<?xml version="1.0" encoding="utf-8" ?>
<svg baseProfile="tiny" height="208.211805934" version="1.2" width="240.101568934" xmlns="http://www.w3.org/2000/svg" xmlns:ev="http://www.w3.org/2001/xml-events" xmlns:xlink="http://www.w3.org/1999/xlink"><defs /><g id="paths" stroke="blue"><path d="M 4.893306967,203.318498967 L 235.208261967,203.318498967 L 235.208261967,4.893306967 L 4.893306967,4.893306967 L 4.893306967,203.318498967 Z" fill-opacity="0" stroke-linejoin="round" stroke-width="1.0" /></g><g fill="red" id="holes"><circle cx="17.2949" cy="17.2949" r="4.9606" stroke-width="0.0" /><circle cx="17.2949" cy="190.9169" r="4.9606" stroke-width="0.0" /><circle cx="222.8067" cy="190.9169" r="4.9606" stroke-width="0.0" /><circle cx="222.8067" cy="17.2949" r="4.9606" stroke-width="0.0" /><circle cx="155.0587" cy="111.6354" r="1.125" stroke-width="0.0" /><circle cx="85.0606" cy="136.2083" r="2.4803" stroke-width="0.0" /><circle cx="85.0606" cy="145.2083" r="2.4803" stroke-width="0.0" /><circle cx="85.0606" cy="154.2083" r="2.4803" stroke-width="0.0" /><circle cx="35.9858" cy="80.9327" r="1.8602" stroke-width="0.0" /><circle cx="35.9858" cy="53.9327" r="1.8602" stroke-width="0.0" /><circle cx="124.5508" cy="12.7949" r="1.9488" stroke-width="0.0" /><circle cx="106.5508" cy="21.7949" r="1.9488" stroke-width="0.0" /><circle cx="187.5508" cy="21.7949" r="1.9488" stroke-width="0.0" /><circle cx="196.5508" cy="12.7949" r="1.9488" stroke-width="0.0" /><circle cx="115.5508" cy="21.7949" r="1.9488" stroke-width="0.0" /><circle cx="88.5508" cy="21.7949" r="1.9488" stroke-width="0.0" /><circle cx="34.5508" cy="21.7949" r="1.9488" stroke-width="0.0" /><circle cx="196.5508" cy="21.7949" r="1.9488" stroke-width="0.0" /><circle cx="160.5508" cy="12.7949" r="1.9488" stroke-width="0.0" /><circle cx="178.5508" cy="12.7949" r="1.9488" stroke-width="0.0" /><circle cx="142.5508" cy="12.7949" r="1.9488" stroke-width="0.0" /><circle cx="142.5508" cy="21.7949" r="1.9488" stroke-width="0.0" /><circle cx="151.5508" cy="12.7949" r="1.9488" stroke-width="0.0" /><circle cx="70.5508" cy="21.7949" r="1.9488" stroke-width="0.0" /><circle cx="205.5508" cy="21.7949" r="1.9488" stroke-width="0.0" /><circle cx="61.5508" cy="12.7949" r="1.9488" stroke-width="0.0" /><circle cx="124.5508" cy="21.7949" r="1.9488" stroke-width="0.0" /><circle cx="79.5508" cy="12.7949" r="1.9488" stroke-width="0.0" /><circle cx="160.5508" cy="21.7949" r="1.9488" stroke-width="0.0" /><circle cx="151.5508" cy="21.7949" r="1.9488" stroke-width="0.0" /><circle cx="52.5508" cy="21.7949" r="1.9488" stroke-width="0.0" /><circle cx="43.5508" cy="21.7949" r="1.9488" stroke-width="0.0" /><circle cx="187.5508" cy="12.7949" r="1.9488" stroke-width="0.0" /><circle cx="133.5508" cy="21.7949" r="1.9488" stroke-width="0.0" /><circle cx="106.5508" cy="12.7949" r="1.9488" stroke-width="0.0" /><circle cx="97.5508" cy="21.7949" r="1.9488" stroke-width="0.0" /><circle cx="169.5508" cy="21.7949" r="1.9488" stroke-width="0.0" /><circle cx="52.5508" cy="12.7949" r="1.9488" stroke-width="0.0" /><circle cx="61.5508" cy="21.7949" r="1.9488" stroke-width="0.0" /><circle cx="88.5508" cy="12.7949" r="1.9488" stroke-width="0.0" /><circle cx="133.5508" cy="12.7949" r="1.9488" stroke-width="0.0" /><circle cx="79.5508" cy="21.7949" r="1.9488" stroke-width="0.0" /><circle cx="115.5508" cy="12.7949" r="1.9488" stroke-width="0.0" /><circle cx="43.5508" cy="12.7949" r="1.9488" stroke-width="0.0" /><circle cx="97.5508" cy="12.7949" r="1.9488" stroke-width="0.0" /><circle cx="70.5508" cy="12.7949" r="1.9488" stroke-width="0.0" /><circle cx="169.5508" cy="12.7949" r="1.9488" stroke-width="0.0" /><circle cx="178.5508" cy="21.7949" r="1.9488" stroke-width="0.0" /><circle cx="34.5508" cy="12.7949" r="1.9488" stroke-width="0.0" /><circle cx="205.5508" cy="12.7949" r="1.9488" stroke-width="0.0" /><circle cx="60.8776" cy="80.9327" r="1.8602" stroke-width="0.0" /><circle cx="60.8776" cy="53.9327" r="1.8602" stroke-width="0.0" /><circle cx="144.2339" cy="81.9071" r="1.8602" stroke-width="0.0" /><circle cx="144.2339" cy="54.9071" r="1.8602" stroke-width="0.0" /><circle cx="85.0606" cy="81.287" r="1.8602" stroke-width="0.0" /><circle cx="85.0606" cy="54.287" r="1.8602" stroke-width="0.0" /><circle cx="144.2339" cy="91.9346" r="1.8602" stroke-width="0.0" /><circle cx="144.2339" cy="118.9346" r="1.8602" stroke-width="0.0" /><circle cx="109.1551" cy="91.9346" r="1.8602" stroke-width="0.0" /><circle cx="109.1551" cy="118.9346" r="1.8602" stroke-width="0.0" /><circle cx="85.0606" cy="91.9346" r="1.8602" stroke-width="0.0" /><circle cx="85.0606" cy="118.9346" r="1.8602" stroke-width="0.0" /><circle cx="189.6236" cy="188.7024" r="2.0374" stroke-width="0.0" /><circle cx="180.6236" cy="188.7024" r="2.0374" stroke-width="0.0" /><circle cx="171.6236" cy="188.7024" r="2.0374" stroke-width="0.0" /><circle cx="162.6236" cy="188.7024" r="2.0374" stroke-width="0.0" /><circle cx="144.2339" cy="136.3854" r="2.4803" stroke-width="0.0" /><circle cx="144.2339" cy="145.3854" r="2.4803" stroke-width="0.0" /><circle cx="144.2339" cy="154.3854" r="2.4803" stroke-width="0.0" /><circle cx="60.8776" cy="92.0232" r="1.8602" stroke-width="0.0" /><circle cx="60.8776" cy="119.0232" r="1.8602" stroke-width="0.0" /><circle cx="221.602" cy="97.1787" r="7.0689" stroke-width="0.0" /><circle cx="221.602" cy="133.1787" r="7.0689" stroke-width="0.0" /><circle cx="185.602" cy="88.1787" r="2.6929" stroke-width="0.0" /><circle cx="185.602" cy="142.1787" r="2.6929" stroke-width="0.0" /><circle cx="185.602" cy="106.1787" r="2.6929" stroke-width="0.0" /><circle cx="185.602" cy="124.1787" r="2.6929" stroke-width="0.0" /><circle cx="194.602" cy="151.1787" r="4.5" stroke-width="0.0" /><circle cx="194.602" cy="79.1787" r="4.5" stroke-width="0.0" /><circle cx="35.9858" cy="136.2083" r="2.4803" stroke-width="0.0" /><circle cx="35.9858" cy="145.2083" r="2.4803" stroke-width="0.0" /><circle cx="35.9858" cy="154.2083" r="2.4803" stroke-width="0.0" /><circle cx="126.9779" cy="188.2594" r="2.0374" stroke-width="0.0" /><circle cx="117.9779" cy="188.2594" r="2.0374" stroke-width="0.0" /><circle cx="108.978" cy="188.2594" r="2.0374" stroke-width="0.0" /><circle cx="99.978" cy="188.2594" r="2.0374" stroke-width="0.0" /><circle cx="90.978" cy="188.2594" r="2.0374" stroke-width="0.0" /><circle cx="189.8185" cy="168.3283" r="1.8602" stroke-width="0.0" /><circle cx="216.8185" cy="168.3283" r="1.8602" stroke-width="0.0" /><circle cx="35.9858" cy="92.0232" r="1.8602" stroke-width="0.0" /><circle cx="35.9858" cy="119.0232" r="1.8602" stroke-width="0.0" /><circle cx="60.8776" cy="136.2083" r="2.4803" stroke-width="0.0" /><circle cx="60.8776" cy="145.2083" r="2.4803" stroke-width="0.0" /><circle cx="60.8776" cy="154.2083" r="2.4803" stroke-width="0.0" /><circle cx="217.4031" cy="37.2791" r="2.0374" stroke-width="0.0" /><circle cx="217.4031" cy="46.2791" r="2.0374" stroke-width="0.0" /><circle cx="217.4031" cy="55.2791" r="2.0374" stroke-width="0.0" /><circle cx="217.4031" cy="64.2791" r="2.0374" stroke-width="0.0" /><circle cx="109.1551" cy="81.5528" r="1.8602" stroke-width="0.0" /><circle cx="109.1551" cy="54.5528" r="1.8602" stroke-width="0.0" /><circle cx="109.5094" cy="136.2083" r="2.4803" stroke-width="0.0" /><circle cx="109.5094" cy="145.2083" r="2.4803" stroke-width="0.0" /><circle cx="109.5094" cy="154.2083" r="2.4803" stroke-width="0.0" /></g><g id="rulers" stroke="black" /></svg>