%FSLAX33Y33*%
%MOMM*%
%AMRect-W1750000-H1750000-RO1.500*
21,1,1.75,1.75,0.,0.,90*%
%ADD10C,6.*%
%ADD11C,1.0668*%
%ADD12R,2.1X2.1*%
%ADD13C,2.1*%
%ADD14C,1.6*%
%ADD15C,1.75*%
%ADD16Rect-W1750000-H1750000-RO1.500*%
%ADD17C,1.6*%
%ADD18C,1.75*%
%ADD19C,4.4*%
%ADD20C,2.*%
%ADD21C,3.*%
%ADD22C,1.6*%
%ADD23C,1.75*%
D10*
%LNbottom solder mask_traces*%
G01*
X3500Y52500D03*
X3500Y3500D03*
X61500Y3500D03*
X61500Y52500D03*
D11*
X42380Y25875D03*
%LNbottom solder mask component f6b11292b8daae35*%
D12*
X22625Y18940D03*
D13*
X22625Y16400D03*
X22625Y13860D03*
%LNbottom solder mask component 687da8b0145f7069*%
D14*
X8775Y34540D03*
X8775Y42160D03*
%LNbottom solder mask component 185414f6375d1064*%
D15*
X33770Y53770D03*
X28690Y51230D03*
X51550Y51230D03*
X54090Y53770D03*
X31230Y51230D03*
X23610Y51230D03*
X54090Y51230D03*
X43930Y53770D03*
X49010Y53770D03*
X38850Y53770D03*
X38850Y51230D03*
X41390Y53770D03*
X18530Y51230D03*
X56630Y51230D03*
X15990Y53770D03*
X33770Y51230D03*
X21070Y53770D03*
X43930Y51230D03*
X41390Y51230D03*
X13450Y51230D03*
X10910Y51230D03*
X51550Y53770D03*
X36310Y51230D03*
X28690Y53770D03*
X26150Y51230D03*
X46470Y51230D03*
X13450Y53770D03*
X15990Y51230D03*
X23610Y53770D03*
X36310Y53770D03*
X21070Y51230D03*
X31230Y53770D03*
X10910Y53770D03*
X26150Y53770D03*
X18530Y53770D03*
X46470Y53770D03*
X49010Y51230D03*
X8370Y53770D03*
X56630Y53770D03*
D16*
X8370Y51230D03*
%LNbottom solder mask component 8802cf38c753d2b4*%
D14*
X15800Y34540D03*
X15800Y42160D03*
%LNbottom solder mask component ba5debff902abb83*%
X39325Y34265D03*
X39325Y41885D03*
%LNbottom solder mask component 55fdcf3c5e6549ef*%
X22625Y34440D03*
X22625Y42060D03*
%LNbottom solder mask component 110889d4a757a866*%
D17*
X39325Y31435D03*
X39325Y23815D03*
%LNbottom solder mask component ff2fcf3b1a510dc9*%
X29425Y31435D03*
X29425Y23815D03*
%LNbottom solder mask component 0a6b8b40ce2b8e93*%
X22625Y31435D03*
X22625Y23815D03*
%LNbottom solder mask component 04810c5c597c12be*%
D18*
X52135Y4125D03*
X49595Y4125D03*
X47055Y4125D03*
X44515Y4125D03*
%LNbottom solder mask component 6c258254c5770ca7*%
D12*
X39325Y18890D03*
D13*
X39325Y16350D03*
X39325Y13810D03*
%LNbottom solder mask component 8c437a439b2244d4*%
D17*
X15800Y31410D03*
X15800Y23790D03*
%LNbottom solder mask component 0fc5d429d87802fd*%
D19*
X61160Y29955D03*
X61160Y19795D03*
D20*
X51000Y32495D03*
X51000Y17255D03*
X51000Y27415D03*
X51000Y22335D03*
D21*
X53540Y14715D03*
X53540Y35035D03*
%LNbottom solder mask component 312cdacbf92fd603*%
D12*
X8775Y18940D03*
D13*
X8775Y16400D03*
X8775Y13860D03*
%LNbottom solder mask component c3cab1f166f104d1*%
D18*
X34455Y4250D03*
X31915Y4250D03*
X29375Y4250D03*
X26835Y4250D03*
X24295Y4250D03*
%LNbottom solder mask component b923ac39a7958762*%
D22*
X52190Y9875D03*
X59810Y9875D03*
%LNbottom solder mask component 8617819b20f8b299*%
D17*
X8775Y31410D03*
X8775Y23790D03*
%LNbottom solder mask component 0fc97c50a163778b*%
D12*
X15800Y18940D03*
D13*
X15800Y16400D03*
X15800Y13860D03*
%LNbottom solder mask component e82071b529bd6739*%
D23*
X59975Y46860D03*
X59975Y44320D03*
X59975Y41780D03*
X59975Y39240D03*
%LNbottom solder mask component 946008f2f507596d*%
D14*
X29425Y34365D03*
X29425Y41985D03*
%LNbottom solder mask component 4347c57bd1fec9ce*%
D12*
X29525Y18940D03*
D13*
X29525Y16400D03*
X29525Y13860D03*
M02*