%FSLAX33Y33*%
%MOMM*%
%ADD10C,0.15*%
%ADD11C,0.2032*%
%ADD12C,0.5*%
%ADD13C,0.3*%
%ADD14C,0.5*%
D10*
%LNpour fill*%
%LNtop silkscreen_traces*%
%LNtop silkscreen component f6b11292b8daae35*%
G01*
X20277Y11070D02*
X20277Y21730D01*
X24973Y21730*
X24973Y11070*
X20277Y11070*
D11*
X20101Y21990D02*
X20101Y21990D01*
X20073Y22002*
X20073Y22002*
X20043Y22017*
X20043Y22017*
X20012Y22035*
X20012Y22035*
X19980Y22056*
X19980Y22057*
X20005Y22084*
X20027Y22114*
X20046Y22146*
X20061Y22180*
X20072Y22216*
X20081Y22255*
X20086Y22295*
X20088Y22338*
X20085Y22390*
X20077Y22439*
X20064Y22486*
X20046Y22529*
X20023Y22569*
X19995Y22605*
X19962Y22635*
X19925Y22661*
X19884Y22682*
X19840Y22696*
X19795Y22705*
X19746Y22708*
X19698Y22705*
X19653Y22697*
X19610Y22683*
X19569Y22663*
X19532Y22637*
X19499Y22607*
X19471Y22571*
X19447Y22531*
X19428Y22486*
X19415Y22439*
X19407Y22390*
X19404Y22338*
X19407Y22286*
X19415Y22237*
X19428Y22190*
X19447Y22147*
X19470Y22107*
X19498Y22071*
X19531Y22041*
X19568Y22015*
X19609Y21995*
X19652Y21980*
X19697Y21971*
X19744Y21968*
X19791Y21971*
X19836Y21979*
X19879Y21993*
X19920Y22013*
X19920Y22013*
X19959Y21985*
X19997Y21961*
X20036Y21941*
X20074Y21925*
X20101Y21990*
X19772Y22178D02*
X19772Y22178D01*
X19811Y22165*
X19846Y22149*
X19878Y22131*
X19907Y22109*
X19943Y22152*
X19970Y22205*
X19985Y22267*
X19990Y22338*
X19989Y22380*
X19983Y22420*
X19974Y22456*
X19961Y22490*
X19944Y22521*
X19924Y22548*
X19901Y22571*
X19874Y22591*
X19845Y22607*
X19814Y22618*
X19781Y22625*
X19747Y22627*
X19696Y22622*
X19650Y22609*
X19608Y22586*
X19571Y22554*
X19540Y22514*
X19519Y22464*
X19505Y22405*
X19501Y22338*
X19505Y22272*
X19518Y22214*
X19540Y22165*
X19570Y22124*
X19607Y22091*
X19649Y22068*
X19695Y22054*
X19747Y22049*
X19772Y22050*
X19796Y22054*
X19820Y22060*
X19842Y22068*
X19820Y22081*
X19797Y22093*
X19773Y22102*
X19749Y22109*
X19772Y22178*
X20458Y21972D02*
X20458Y21972D01*
X20503Y21984*
X20544Y22004*
X20580Y22033*
X20610Y22067*
X20632Y22105*
X20644Y22146*
X20649Y22191*
X20646Y22225*
X20640Y22255*
X20629Y22282*
X20614Y22307*
X20594Y22328*
X20571Y22345*
X20545Y22358*
X20515Y22367*
X20515Y22368*
X20538Y22380*
X20558Y22394*
X20575Y22411*
X20589Y22429*
X20599Y22448*
X20607Y22469*
X20612Y22490*
X20613Y22513*
X20612Y22537*
X20607Y22560*
X20599Y22583*
X20587Y22605*
X20573Y22625*
X20556Y22644*
X20535Y22659*
X20512Y22673*
X20487Y22684*
X20461Y22692*
X20433Y22697*
X20404Y22698*
X20364Y22695*
X20327Y22686*
X20293Y22671*
X20263Y22650*
X20237Y22623*
X20216Y22591*
X20200Y22555*
X20190Y22514*
X20277Y22498*
X20283Y22528*
X20283Y22528*
X20292Y22554*
X20292Y22554*
X20305Y22576*
X20305Y22576*
X20321Y22595*
X20321Y22595*
X20339Y22609*
X20339Y22609*
X20359Y22619*
X20359Y22619*
X20382Y22625*
X20382Y22625*
X20406Y22627*
X20406Y22627*
X20431Y22625*
X20431Y22625*
X20454Y22619*
X20454Y22619*
X20474Y22609*
X20474Y22609*
X20491Y22595*
X20491Y22595*
X20506Y22578*
X20506Y22578*
X20516Y22559*
X20516Y22559*
X20522Y22538*
X20522Y22538*
X20524Y22515*
X20524Y22515*
X20521Y22486*
X20521Y22486*
X20513Y22461*
X20513Y22461*
X20499Y22441*
X20499Y22441*
X20479Y22424*
X20479Y22424*
X20456Y22411*
X20456Y22411*
X20431Y22402*
X20431Y22402*
X20405Y22396*
X20405Y22396*
X20378Y22395*
X20378Y22395*
X20375Y22395*
X20375Y22395*
X20371Y22395*
X20371Y22395*
X20368Y22395*
X20368Y22395*
X20364Y22395*
X20354Y22320*
X20371Y22324*
X20371Y22324*
X20388Y22327*
X20388Y22327*
X20402Y22329*
X20402Y22329*
X20416Y22329*
X20416Y22329*
X20445Y22327*
X20445Y22327*
X20472Y22319*
X20472Y22319*
X20495Y22307*
X20495Y22307*
X20517Y22290*
X20517Y22290*
X20534Y22269*
X20534Y22269*
X20546Y22245*
X20546Y22245*
X20554Y22219*
X20554Y22218*
X20556Y22189*
X20556Y22189*
X20554Y22159*
X20554Y22159*
X20546Y22131*
X20546Y22131*
X20532Y22106*
X20532Y22105*
X20513Y22083*
X20513Y22083*
X20491Y22064*
X20491Y22064*
X20466Y22050*
X20466Y22050*
X20438Y22042*
X20438Y22042*
X20408Y22040*
X20408Y22040*
X20383Y22042*
X20383Y22042*
X20360Y22048*
X20360Y22048*
X20339Y22058*
X20339Y22058*
X20319Y22073*
X20319Y22073*
X20302Y22092*
X20302Y22092*
X20288Y22116*
X20288Y22116*
X20277Y22146*
X20277Y22146*
X20268Y22180*
X20181Y22169*
X20189Y22126*
X20203Y22088*
X20224Y22054*
X20252Y22024*
X20285Y21999*
X20322Y21982*
X20363Y21971*
X20408Y21968*
X20458Y21972*
D12*
X22625Y21988D03*
%LNtop silkscreen component 687da8b0145f7069*%
D10*
X9975Y35200D02*
X7575Y35200D01*
X7575Y41500*
X9975Y41500*
X9975Y35200*
X8775Y35200D02*
X8775Y35740D01*
X8775Y41500D02*
X8775Y40960D01*
D13*
X9905Y36775D02*
X7645Y36775D01*
D11*
X6462Y33413D02*
X6462Y33413D01*
X6461Y33413*
X6461Y33523*
X6461Y33523*
X6461Y33540*
X6461Y33540*
X6462Y33555*
X6462Y33555*
X6463Y33567*
X6463Y33567*
X6465Y33576*
X6465Y33576*
X6468Y33587*
X6468Y33587*
X6472Y33598*
X6472Y33598*
X6477Y33609*
X6477Y33609*
X6484Y33619*
X6484Y33619*
X6492Y33630*
X6492Y33630*
X6503Y33642*
X6503Y33642*
X6516Y33655*
X6516Y33655*
X6532Y33668*
X6532Y33668*
X6551Y33682*
X6551Y33682*
X6573Y33698*
X6574Y33698*
X6600Y33716*
X6600Y33716*
X6630Y33736*
X6630Y33736*
X6779Y33831*
X6779Y33949*
X6585Y33825*
X6558Y33806*
X6533Y33786*
X6510Y33766*
X6490Y33746*
X6481Y33735*
X6472Y33722*
X6463Y33707*
X6454Y33689*
X6453Y33689*
X6444Y33737*
X6430Y33779*
X6411Y33813*
X6387Y33841*
X6360Y33863*
X6329Y33878*
X6296Y33887*
X6259Y33890*
X6230Y33889*
X6203Y33883*
X6176Y33874*
X6151Y33861*
X6129Y33845*
X6110Y33826*
X6095Y33805*
X6084Y33781*
X6075Y33754*
X6069Y33720*
X6065Y33681*
X6064Y33636*
X6064Y33319*
X6779Y33319*
X6779Y33413*
X6462Y33413*
X6380Y33413D02*
X6380Y33413D01*
X6380Y33617*
X6379Y33648*
X6376Y33675*
X6372Y33698*
X6366Y33719*
X6359Y33736*
X6349Y33751*
X6337Y33764*
X6323Y33774*
X6308Y33783*
X6292Y33788*
X6276Y33792*
X6259Y33793*
X6235Y33791*
X6213Y33784*
X6193Y33772*
X6176Y33756*
X6161Y33735*
X6151Y33709*
X6145Y33677*
X6143Y33640*
X6143Y33413*
X6380Y33413*
X6061Y34334D02*
X6061Y34334D01*
X6061Y34278*
X6084Y34265*
X6085Y34265*
X6108Y34247*
X6108Y34247*
X6132Y34226*
X6132Y34226*
X6157Y34200*
X6157Y34200*
X6181Y34172*
X6181Y34172*
X6203Y34140*
X6203Y34140*
X6223Y34107*
X6223Y34107*
X6241Y34072*
X6325Y34072*
X6317Y34092*
X6306Y34114*
X6294Y34138*
X6280Y34163*
X6265Y34188*
X6249Y34210*
X6234Y34229*
X6219Y34247*
X6219Y34247*
X6779Y34247*
X6779Y34334*
X6061Y34334*
X6727Y34760D02*
X6727Y34760D01*
X6727Y34760*
X6677Y34768*
X6677Y34768*
X6629Y34777*
X6629Y34777*
X6583Y34789*
X6583Y34789*
X6519Y34810*
X6519Y34810*
X6457Y34834*
X6457Y34834*
X6395Y34861*
X6395Y34861*
X6335Y34893*
X6335Y34893*
X6277Y34927*
X6277Y34927*
X6226Y34961*
X6226Y34961*
X6180Y34995*
X6180Y34995*
X6141Y35029*
X6074Y35029*
X6074Y34566*
X6157Y34566*
X6157Y34917*
X6158Y34917*
X6198Y34884*
X6243Y34852*
X6292Y34821*
X6345Y34791*
X6401Y34763*
X6458Y34738*
X6516Y34717*
X6576Y34699*
X6633Y34686*
X6686Y34675*
X6735Y34669*
X6779Y34666*
X6779Y34756*
X6727Y34760*
%LNtop silkscreen component 185414f6375d1064*%
X6421Y51848D02*
X6421Y51848D01*
X6411Y51905*
X6395Y51958*
X6372Y52007*
X6343Y52051*
X6309Y52089*
X6268Y52120*
X6222Y52145*
X6168Y52164*
X6103Y52177*
X6029Y52185*
X5944Y52188*
X4969Y52188*
X4969Y52000*
X5955Y52000*
X5955Y52000*
X6012Y51998*
X6012Y51998*
X6061Y51995*
X6061Y51995*
X6102Y51989*
X6102Y51989*
X6134Y51980*
X6134Y51980*
X6161Y51968*
X6161Y51968*
X6184Y51952*
X6185Y51952*
X6205Y51932*
X6205Y51932*
X6223Y51909*
X6223Y51909*
X6238Y51881*
X6238Y51881*
X6248Y51852*
X6248Y51852*
X6254Y51820*
X6254Y51820*
X6256Y51785*
X6256Y51785*
X6252Y51739*
X6252Y51739*
X6241Y51699*
X6241Y51699*
X6222Y51664*
X6222Y51664*
X6195Y51633*
X6195Y51633*
X6158Y51609*
X6158Y51609*
X6109Y51591*
X6109Y51591*
X6046Y51578*
X6046Y51578*
X5971Y51572*
X5994Y51402*
X6094Y51406*
X6181Y51424*
X6255Y51455*
X6316Y51498*
X6363Y51553*
X6397Y51620*
X6417Y51698*
X6424Y51786*
X6421Y51848*
X6232Y53350D02*
X6232Y53350D01*
X6232Y52648*
X6231Y52648*
X6207Y52664*
X6207Y52664*
X6183Y52681*
X6183Y52681*
X6159Y52701*
X6159Y52701*
X6135Y52722*
X6135Y52722*
X6106Y52752*
X6106Y52752*
X6067Y52796*
X6067Y52796*
X6016Y52854*
X6016Y52854*
X5955Y52926*
X5879Y53014*
X5812Y53088*
X5754Y53149*
X5703Y53197*
X5658Y53234*
X5614Y53266*
X5571Y53293*
X5529Y53313*
X5487Y53328*
X5445Y53339*
X5403Y53346*
X5360Y53348*
X5279Y53341*
X5205Y53318*
X5138Y53281*
X5077Y53228*
X5027Y53163*
X4992Y53087*
X4970Y53000*
X4963Y52902*
X4970Y52806*
X4989Y52719*
X5023Y52643*
X5069Y52578*
X5128Y52524*
X5199Y52482*
X5282Y52454*
X5376Y52438*
X5395Y52618*
X5331Y52623*
X5331Y52623*
X5275Y52638*
X5275Y52638*
X5226Y52662*
X5226Y52662*
X5184Y52695*
X5184Y52695*
X5150Y52736*
X5150Y52736*
X5127Y52784*
X5127Y52784*
X5112Y52838*
X5112Y52838*
X5108Y52899*
X5107Y52899*
X5112Y52956*
X5112Y52956*
X5125Y53007*
X5125Y53008*
X5148Y53053*
X5148Y53053*
X5179Y53094*
X5179Y53094*
X5217Y53126*
X5217Y53126*
X5260Y53150*
X5260Y53150*
X5306Y53164*
X5306Y53164*
X5356Y53169*
X5356Y53169*
X5407Y53163*
X5407Y53163*
X5459Y53148*
X5459Y53148*
X5513Y53122*
X5513Y53122*
X5568Y53086*
X5568Y53086*
X5629Y53036*
X5629Y53036*
X5700Y52967*
X5700Y52967*
X5780Y52878*
X5780Y52878*
X5871Y52771*
X5871Y52771*
X5931Y52700*
X5987Y52638*
X6039Y52585*
X6088Y52541*
X6135Y52504*
X6182Y52472*
X6230Y52446*
X6278Y52425*
X6308Y52416*
X6338Y52409*
X6369Y52405*
X6399Y52405*
X6399Y53350*
X6232Y53350*
%LNtop silkscreen component 8802cf38c753d2b4*%
D10*
X17000Y35200D02*
X14600Y35200D01*
X14600Y41500*
X17000Y41500*
X17000Y35200*
X15800Y35200D02*
X15800Y35740D01*
X15800Y41500D02*
X15800Y40960D01*
D13*
X16930Y36775D02*
X14670Y36775D01*
D11*
X13487Y33413D02*
X13487Y33413D01*
X13486Y33413*
X13486Y33523*
X13486Y33523*
X13486Y33540*
X13486Y33540*
X13487Y33555*
X13487Y33555*
X13488Y33567*
X13488Y33567*
X13490Y33576*
X13490Y33576*
X13493Y33587*
X13493Y33587*
X13497Y33598*
X13497Y33598*
X13502Y33609*
X13502Y33609*
X13509Y33619*
X13509Y33619*
X13517Y33630*
X13517Y33630*
X13528Y33642*
X13528Y33642*
X13541Y33655*
X13541Y33655*
X13557Y33668*
X13557Y33668*
X13576Y33682*
X13576Y33682*
X13598Y33698*
X13599Y33698*
X13625Y33716*
X13625Y33716*
X13655Y33736*
X13655Y33736*
X13804Y33831*
X13804Y33949*
X13610Y33825*
X13583Y33806*
X13558Y33786*
X13535Y33766*
X13515Y33746*
X13506Y33735*
X13497Y33722*
X13488Y33707*
X13479Y33689*
X13478Y33689*
X13469Y33737*
X13455Y33779*
X13436Y33813*
X13412Y33841*
X13385Y33863*
X13354Y33878*
X13321Y33887*
X13284Y33890*
X13255Y33889*
X13228Y33883*
X13201Y33874*
X13176Y33861*
X13154Y33845*
X13135Y33826*
X13120Y33805*
X13109Y33781*
X13100Y33754*
X13094Y33720*
X13090Y33681*
X13089Y33636*
X13089Y33319*
X13804Y33319*
X13804Y33413*
X13487Y33413*
X13405Y33413D02*
X13405Y33413D01*
X13405Y33617*
X13404Y33648*
X13401Y33675*
X13397Y33698*
X13391Y33719*
X13384Y33736*
X13374Y33751*
X13362Y33764*
X13348Y33774*
X13333Y33783*
X13317Y33788*
X13301Y33792*
X13284Y33793*
X13260Y33791*
X13238Y33784*
X13218Y33772*
X13201Y33756*
X13186Y33735*
X13176Y33709*
X13170Y33677*
X13168Y33640*
X13168Y33413*
X13405Y33413*
X13086Y34334D02*
X13086Y34334D01*
X13086Y34278*
X13109Y34265*
X13110Y34265*
X13133Y34247*
X13133Y34247*
X13157Y34226*
X13157Y34226*
X13182Y34200*
X13182Y34200*
X13206Y34172*
X13206Y34172*
X13228Y34140*
X13228Y34140*
X13248Y34107*
X13248Y34107*
X13266Y34072*
X13350Y34072*
X13342Y34092*
X13331Y34114*
X13319Y34138*
X13305Y34163*
X13290Y34188*
X13274Y34210*
X13259Y34229*
X13244Y34247*
X13244Y34247*
X13804Y34247*
X13804Y34334*
X13086Y34334*
X13721Y35021D02*
X13721Y35021D01*
X13721Y34670*
X13720Y34670*
X13708Y34678*
X13708Y34678*
X13696Y34687*
X13696Y34687*
X13684Y34697*
X13684Y34697*
X13672Y34707*
X13672Y34707*
X13658Y34722*
X13658Y34722*
X13638Y34744*
X13638Y34744*
X13613Y34773*
X13613Y34773*
X13582Y34809*
X13544Y34853*
X13511Y34890*
X13481Y34921*
X13456Y34944*
X13433Y34963*
X13411Y34979*
X13390Y34993*
X13369Y35003*
X13348Y35010*
X13327Y35016*
X13306Y35019*
X13285Y35020*
X13244Y35017*
X13207Y35005*
X13174Y34987*
X13143Y34960*
X13118Y34928*
X13101Y34890*
X13090Y34846*
X13086Y34798*
X13090Y34749*
X13100Y34706*
X13116Y34668*
X13139Y34635*
X13169Y34608*
X13204Y34588*
X13245Y34574*
X13292Y34566*
X13302Y34655*
X13270Y34658*
X13270Y34658*
X13242Y34665*
X13242Y34665*
X13217Y34677*
X13217Y34677*
X13196Y34694*
X13196Y34694*
X13180Y34714*
X13180Y34714*
X13168Y34738*
X13168Y34738*
X13160Y34765*
X13160Y34765*
X13158Y34796*
X13158Y34796*
X13160Y34824*
X13160Y34824*
X13167Y34850*
X13167Y34850*
X13178Y34873*
X13178Y34873*
X13194Y34893*
X13194Y34893*
X13213Y34910*
X13213Y34910*
X13234Y34922*
X13234Y34922*
X13257Y34929*
X13257Y34929*
X13283Y34931*
X13283Y34931*
X13308Y34928*
X13308Y34928*
X13334Y34921*
X13334Y34921*
X13361Y34908*
X13361Y34908*
X13389Y34890*
X13389Y34890*
X13419Y34865*
X13419Y34865*
X13455Y34830*
X13455Y34830*
X13495Y34786*
X13495Y34786*
X13540Y34732*
X13540Y34732*
X13570Y34697*
X13598Y34666*
X13624Y34639*
X13649Y34617*
X13672Y34599*
X13696Y34583*
X13720Y34570*
X13744Y34559*
X13759Y34555*
X13774Y34551*
X13789Y34549*
X13804Y34549*
X13804Y35021*
X13721Y35021*
%LNtop silkscreen component ba5debff902abb83*%
D10*
X40525Y34925D02*
X38125Y34925D01*
X38125Y41225*
X40525Y41225*
X40525Y34925*
X39325Y34925D02*
X39325Y35465D01*
X39325Y41225D02*
X39325Y40685D01*
D13*
X40455Y36500D02*
X38195Y36500D01*
D11*
X37012Y33138D02*
X37012Y33138D01*
X37011Y33138*
X37011Y33248*
X37011Y33248*
X37011Y33265*
X37011Y33265*
X37012Y33280*
X37012Y33280*
X37013Y33292*
X37013Y33292*
X37015Y33301*
X37015Y33301*
X37018Y33312*
X37018Y33312*
X37022Y33323*
X37022Y33323*
X37027Y33334*
X37027Y33334*
X37034Y33344*
X37034Y33344*
X37042Y33355*
X37042Y33355*
X37053Y33367*
X37053Y33367*
X37066Y33380*
X37066Y33380*
X37082Y33393*
X37082Y33393*
X37101Y33407*
X37101Y33407*
X37123Y33423*
X37124Y33423*
X37150Y33441*
X37150Y33441*
X37180Y33461*
X37180Y33461*
X37329Y33556*
X37329Y33674*
X37135Y33550*
X37108Y33531*
X37083Y33511*
X37060Y33491*
X37040Y33471*
X37031Y33460*
X37022Y33447*
X37013Y33432*
X37004Y33414*
X37003Y33414*
X36994Y33462*
X36980Y33504*
X36961Y33538*
X36937Y33566*
X36910Y33588*
X36879Y33603*
X36846Y33612*
X36809Y33615*
X36780Y33614*
X36753Y33608*
X36726Y33599*
X36701Y33586*
X36679Y33570*
X36660Y33551*
X36645Y33530*
X36634Y33506*
X36625Y33479*
X36619Y33445*
X36615Y33406*
X36614Y33361*
X36614Y33044*
X37329Y33044*
X37329Y33138*
X37012Y33138*
X36930Y33138D02*
X36930Y33138D01*
X36930Y33342*
X36929Y33373*
X36926Y33400*
X36922Y33423*
X36916Y33444*
X36909Y33461*
X36899Y33476*
X36887Y33489*
X36873Y33499*
X36858Y33508*
X36842Y33513*
X36826Y33517*
X36809Y33518*
X36785Y33516*
X36763Y33509*
X36743Y33497*
X36726Y33481*
X36711Y33460*
X36701Y33434*
X36695Y33402*
X36693Y33365*
X36693Y33138*
X36930Y33138*
X37338Y34007D02*
X37338Y34007D01*
X37326Y34052*
X37305Y34093*
X37277Y34129*
X37242Y34159*
X37205Y34180*
X37163Y34193*
X37118Y34197*
X37085Y34195*
X37055Y34189*
X37027Y34178*
X37003Y34162*
X36982Y34143*
X36965Y34120*
X36952Y34094*
X36942Y34064*
X36942Y34064*
X36929Y34087*
X36915Y34107*
X36899Y34124*
X36881Y34137*
X36862Y34148*
X36841Y34156*
X36819Y34161*
X36797Y34162*
X36773Y34161*
X36750Y34156*
X36727Y34148*
X36705Y34136*
X36684Y34122*
X36666Y34104*
X36650Y34084*
X36636Y34061*
X36625Y34036*
X36618Y34009*
X36613Y33982*
X36611Y33953*
X36614Y33913*
X36623Y33875*
X36639Y33842*
X36660Y33812*
X36687Y33786*
X36718Y33765*
X36755Y33749*
X36796Y33739*
X36811Y33825*
X36782Y33832*
X36782Y33832*
X36755Y33841*
X36755Y33841*
X36733Y33854*
X36733Y33854*
X36715Y33869*
X36715Y33869*
X36701Y33888*
X36701Y33888*
X36691Y33908*
X36691Y33908*
X36685Y33931*
X36685Y33931*
X36683Y33955*
X36683Y33955*
X36685Y33980*
X36685Y33980*
X36691Y34002*
X36691Y34002*
X36701Y34022*
X36701Y34022*
X36714Y34040*
X36715Y34040*
X36731Y34054*
X36731Y34054*
X36751Y34065*
X36751Y34065*
X36772Y34071*
X36772Y34071*
X36795Y34073*
X36795Y34073*
X36824Y34070*
X36824Y34070*
X36848Y34062*
X36848Y34062*
X36869Y34048*
X36869Y34048*
X36886Y34028*
X36886Y34028*
X36899Y34005*
X36899Y34005*
X36908Y33980*
X36908Y33980*
X36913Y33954*
X36913Y33954*
X36915Y33926*
X36915Y33926*
X36915Y33924*
X36915Y33924*
X36915Y33920*
X36915Y33920*
X36915Y33916*
X36915Y33916*
X36914Y33913*
X36990Y33903*
X36986Y33920*
X36986Y33920*
X36983Y33936*
X36983Y33936*
X36981Y33951*
X36981Y33951*
X36980Y33965*
X36980Y33965*
X36983Y33994*
X36983Y33994*
X36990Y34020*
X36990Y34020*
X37003Y34044*
X37003Y34044*
X37020Y34065*
X37020Y34065*
X37041Y34083*
X37041Y34083*
X37065Y34095*
X37065Y34095*
X37091Y34103*
X37091Y34103*
X37120Y34105*
X37120Y34105*
X37151Y34102*
X37151Y34102*
X37179Y34094*
X37179Y34094*
X37204Y34081*
X37204Y34081*
X37227Y34062*
X37227Y34062*
X37246Y34040*
X37246Y34040*
X37259Y34015*
X37259Y34015*
X37267Y33987*
X37267Y33987*
X37270Y33957*
X37270Y33957*
X37268Y33932*
X37268Y33932*
X37262Y33909*
X37262Y33909*
X37251Y33888*
X37251Y33887*
X37237Y33868*
X37237Y33868*
X37218Y33851*
X37218Y33851*
X37193Y33837*
X37193Y33837*
X37164Y33825*
X37164Y33825*
X37129Y33817*
X37141Y33730*
X37183Y33737*
X37221Y33752*
X37256Y33773*
X37286Y33801*
X37310Y33834*
X37328Y33871*
X37338Y33912*
X37342Y33957*
X37338Y34007*
%LNtop silkscreen component 55fdcf3c5e6549ef*%
D10*
X23825Y35100D02*
X21425Y35100D01*
X21425Y41400*
X23825Y41400*
X23825Y35100*
X22625Y35100D02*
X22625Y35640D01*
X22625Y41400D02*
X22625Y40860D01*
D13*
X23755Y36675D02*
X21495Y36675D01*
D11*
X20312Y33313D02*
X20312Y33313D01*
X20311Y33313*
X20311Y33423*
X20311Y33423*
X20311Y33440*
X20311Y33440*
X20312Y33455*
X20312Y33455*
X20313Y33467*
X20313Y33467*
X20315Y33476*
X20315Y33476*
X20318Y33487*
X20318Y33487*
X20322Y33498*
X20322Y33498*
X20327Y33509*
X20327Y33509*
X20334Y33519*
X20334Y33519*
X20342Y33530*
X20342Y33530*
X20353Y33542*
X20353Y33542*
X20366Y33555*
X20366Y33555*
X20382Y33568*
X20382Y33568*
X20401Y33582*
X20401Y33582*
X20423Y33598*
X20424Y33598*
X20450Y33616*
X20450Y33616*
X20480Y33636*
X20480Y33636*
X20629Y33731*
X20629Y33849*
X20435Y33725*
X20408Y33706*
X20383Y33686*
X20360Y33666*
X20340Y33646*
X20331Y33635*
X20322Y33622*
X20313Y33607*
X20304Y33589*
X20303Y33589*
X20294Y33637*
X20280Y33679*
X20261Y33713*
X20237Y33741*
X20210Y33763*
X20179Y33778*
X20146Y33787*
X20109Y33790*
X20080Y33789*
X20053Y33783*
X20026Y33774*
X20001Y33761*
X19979Y33745*
X19960Y33726*
X19945Y33705*
X19934Y33681*
X19925Y33654*
X19919Y33620*
X19915Y33581*
X19914Y33536*
X19914Y33219*
X20629Y33219*
X20629Y33313*
X20312Y33313*
X20230Y33313D02*
X20230Y33313D01*
X20230Y33517*
X20229Y33548*
X20226Y33575*
X20222Y33598*
X20216Y33619*
X20209Y33636*
X20199Y33651*
X20187Y33664*
X20173Y33674*
X20158Y33683*
X20142Y33688*
X20126Y33692*
X20109Y33693*
X20085Y33691*
X20063Y33684*
X20043Y33672*
X20026Y33656*
X20011Y33635*
X20001Y33609*
X19995Y33577*
X19993Y33540*
X19993Y33313*
X20230Y33313*
X19911Y34234D02*
X19911Y34234D01*
X19911Y34178*
X19934Y34165*
X19935Y34165*
X19958Y34147*
X19958Y34147*
X19982Y34126*
X19982Y34126*
X20007Y34100*
X20007Y34100*
X20031Y34072*
X20031Y34072*
X20053Y34040*
X20053Y34040*
X20073Y34007*
X20073Y34007*
X20091Y33972*
X20175Y33972*
X20167Y33992*
X20156Y34014*
X20144Y34038*
X20130Y34063*
X20115Y34088*
X20099Y34110*
X20084Y34129*
X20069Y34147*
X20069Y34147*
X20629Y34147*
X20629Y34234*
X19911Y34234*
X20636Y34746D02*
X20636Y34746D01*
X20620Y34796*
X20593Y34840*
X20555Y34877*
X20518Y34902*
X20477Y34920*
X20434Y34930*
X20387Y34934*
X20338Y34930*
X20294Y34918*
X20255Y34898*
X20220Y34870*
X20192Y34836*
X20172Y34798*
X20160Y34757*
X20156Y34712*
X20158Y34677*
X20167Y34643*
X20181Y34609*
X20201Y34577*
X20200Y34576*
X20007Y34615*
X20007Y34615*
X20007Y34900*
X19924Y34900*
X19924Y34545*
X20291Y34476*
X20301Y34558*
X20287Y34568*
X20287Y34568*
X20274Y34581*
X20274Y34581*
X20262Y34595*
X20262Y34595*
X20251Y34611*
X20251Y34611*
X20243Y34629*
X20243Y34629*
X20237Y34648*
X20237Y34648*
X20233Y34668*
X20233Y34668*
X20232Y34688*
X20232Y34688*
X20235Y34721*
X20235Y34721*
X20243Y34750*
X20243Y34750*
X20257Y34776*
X20257Y34777*
X20276Y34799*
X20276Y34799*
X20300Y34818*
X20300Y34818*
X20327Y34831*
X20327Y34831*
X20359Y34839*
X20359Y34839*
X20395Y34842*
X20395Y34842*
X20432Y34839*
X20432Y34839*
X20466Y34831*
X20466Y34831*
X20496Y34817*
X20496Y34817*
X20522Y34798*
X20522Y34798*
X20543Y34774*
X20543Y34774*
X20558Y34749*
X20558Y34749*
X20567Y34720*
X20567Y34720*
X20570Y34690*
X20570Y34690*
X20568Y34664*
X20568Y34664*
X20562Y34641*
X20562Y34641*
X20551Y34619*
X20551Y34619*
X20536Y34599*
X20536Y34599*
X20517Y34582*
X20517Y34582*
X20494Y34569*
X20494Y34569*
X20466Y34558*
X20466Y34558*
X20435Y34552*
X20443Y34460*
X20485Y34468*
X20523Y34482*
X20557Y34503*
X20587Y34531*
X20611Y34564*
X20628Y34601*
X20638Y34643*
X20641Y34690*
X20636Y34746*
%LNtop silkscreen component 110889d4a757a866*%
D10*
X38125Y30775D02*
X40525Y30775D01*
X40525Y24475*
X38125Y24475*
X38125Y30775*
X39325Y30775D02*
X39325Y30235D01*
X39325Y24475D02*
X39325Y25015D01*
D13*
X38195Y29200D02*
X40455Y29200D01*
D11*
X41638Y32562D02*
X41638Y32562D01*
X41639Y32562*
X41639Y32452*
X41639Y32452*
X41639Y32435*
X41639Y32435*
X41638Y32420*
X41638Y32420*
X41637Y32408*
X41637Y32408*
X41635Y32399*
X41635Y32399*
X41632Y32388*
X41632Y32388*
X41628Y32377*
X41628Y32377*
X41623Y32366*
X41623Y32366*
X41616Y32356*
X41616Y32356*
X41608Y32345*
X41608Y32345*
X41597Y32333*
X41597Y32333*
X41584Y32320*
X41584Y32320*
X41568Y32307*
X41568Y32307*
X41549Y32293*
X41549Y32293*
X41527Y32277*
X41526Y32277*
X41500Y32259*
X41500Y32259*
X41470Y32239*
X41470Y32239*
X41321Y32144*
X41321Y32026*
X41515Y32150*
X41542Y32169*
X41567Y32189*
X41590Y32209*
X41610Y32229*
X41619Y32240*
X41628Y32253*
X41637Y32268*
X41646Y32286*
X41647Y32286*
X41656Y32238*
X41670Y32196*
X41689Y32162*
X41713Y32134*
X41740Y32112*
X41771Y32097*
X41804Y32088*
X41841Y32085*
X41870Y32086*
X41897Y32092*
X41924Y32101*
X41949Y32114*
X41971Y32130*
X41990Y32149*
X42005Y32170*
X42016Y32194*
X42025Y32221*
X42031Y32255*
X42035Y32294*
X42036Y32339*
X42036Y32656*
X41321Y32656*
X41321Y32562*
X41638Y32562*
X41720Y32562D02*
X41720Y32562D01*
X41720Y32358*
X41721Y32327*
X41724Y32300*
X41728Y32277*
X41734Y32256*
X41741Y32239*
X41751Y32224*
X41763Y32211*
X41777Y32201*
X41792Y32192*
X41808Y32187*
X41824Y32183*
X41841Y32182*
X41865Y32184*
X41887Y32191*
X41907Y32203*
X41924Y32219*
X41939Y32240*
X41949Y32266*
X41955Y32298*
X41957Y32335*
X41957Y32562*
X41720Y32562*
X42039Y31641D02*
X42039Y31641D01*
X42039Y31697*
X42016Y31710*
X42015Y31710*
X41992Y31728*
X41992Y31728*
X41968Y31749*
X41968Y31749*
X41943Y31775*
X41943Y31775*
X41919Y31803*
X41919Y31803*
X41897Y31835*
X41897Y31835*
X41877Y31868*
X41877Y31868*
X41859Y31903*
X41775Y31903*
X41783Y31883*
X41794Y31861*
X41806Y31837*
X41820Y31812*
X41835Y31787*
X41851Y31765*
X41866Y31746*
X41881Y31728*
X41881Y31728*
X41321Y31728*
X41321Y31641*
X42039Y31641*
%LNtop silkscreen component ff2fcf3b1a510dc9*%
D10*
X28225Y30775D02*
X30625Y30775D01*
X30625Y24475*
X28225Y24475*
X28225Y30775*
X29425Y30775D02*
X29425Y30235D01*
X29425Y24475D02*
X29425Y25015D01*
D13*
X28295Y29200D02*
X30555Y29200D01*
D11*
X31738Y32562D02*
X31738Y32562D01*
X31739Y32562*
X31739Y32452*
X31739Y32452*
X31739Y32435*
X31739Y32435*
X31738Y32420*
X31738Y32420*
X31737Y32408*
X31737Y32408*
X31735Y32399*
X31735Y32399*
X31732Y32388*
X31732Y32388*
X31728Y32377*
X31728Y32377*
X31723Y32366*
X31723Y32366*
X31716Y32356*
X31716Y32356*
X31708Y32345*
X31708Y32345*
X31697Y32333*
X31697Y32333*
X31684Y32320*
X31684Y32320*
X31668Y32307*
X31668Y32307*
X31649Y32293*
X31649Y32293*
X31627Y32277*
X31626Y32277*
X31600Y32259*
X31600Y32259*
X31570Y32239*
X31570Y32239*
X31421Y32144*
X31421Y32026*
X31615Y32150*
X31642Y32169*
X31667Y32189*
X31690Y32209*
X31710Y32229*
X31719Y32240*
X31728Y32253*
X31737Y32268*
X31746Y32286*
X31747Y32286*
X31756Y32238*
X31770Y32196*
X31789Y32162*
X31813Y32134*
X31840Y32112*
X31871Y32097*
X31904Y32088*
X31941Y32085*
X31970Y32086*
X31997Y32092*
X32024Y32101*
X32049Y32114*
X32071Y32130*
X32090Y32149*
X32105Y32170*
X32116Y32194*
X32125Y32221*
X32131Y32255*
X32135Y32294*
X32136Y32339*
X32136Y32656*
X31421Y32656*
X31421Y32562*
X31738Y32562*
X31820Y32562D02*
X31820Y32562D01*
X31820Y32358*
X31821Y32327*
X31824Y32300*
X31828Y32277*
X31834Y32256*
X31841Y32239*
X31851Y32224*
X31863Y32211*
X31877Y32201*
X31892Y32192*
X31908Y32187*
X31924Y32183*
X31941Y32182*
X31965Y32184*
X31987Y32191*
X32007Y32203*
X32024Y32219*
X32039Y32240*
X32049Y32266*
X32055Y32298*
X32057Y32335*
X32057Y32562*
X31820Y32562*
X32139Y31641D02*
X32139Y31641D01*
X32139Y31697*
X32116Y31710*
X32115Y31710*
X32092Y31728*
X32092Y31728*
X32068Y31749*
X32068Y31749*
X32043Y31775*
X32043Y31775*
X32019Y31803*
X32019Y31803*
X31997Y31835*
X31997Y31835*
X31977Y31868*
X31977Y31868*
X31959Y31903*
X31875Y31903*
X31883Y31883*
X31894Y31861*
X31906Y31837*
X31920Y31812*
X31935Y31787*
X31951Y31765*
X31966Y31746*
X31981Y31728*
X31981Y31728*
X31421Y31728*
X31421Y31641*
X32139Y31641*
X31413Y31130D02*
X31413Y31130D01*
X31424Y31085*
X31444Y31045*
X31471Y31010*
X31504Y30981*
X31541Y30961*
X31581Y30949*
X31625Y30945*
X31657Y30947*
X31687Y30954*
X31714Y30964*
X31739Y30979*
X31761Y30998*
X31780Y31021*
X31796Y31048*
X31808Y31080*
X31809Y31080*
X31820Y31055*
X31833Y31033*
X31848Y31015*
X31866Y31000*
X31885Y30989*
X31906Y30981*
X31928Y30976*
X31952Y30974*
X31990Y30978*
X32024Y30989*
X32056Y31006*
X32084Y31031*
X32108Y31062*
X32125Y31097*
X32135Y31137*
X32139Y31182*
X32135Y31226*
X32125Y31266*
X32109Y31301*
X32086Y31331*
X32057Y31355*
X32026Y31373*
X31992Y31383*
X31955Y31387*
X31930Y31385*
X31907Y31380*
X31885Y31372*
X31866Y31361*
X31849Y31346*
X31833Y31327*
X31820Y31305*
X31809Y31279*
X31808Y31279*
X31798Y31311*
X31784Y31338*
X31766Y31361*
X31744Y31380*
X31719Y31396*
X31691Y31407*
X31661Y31413*
X31627Y31416*
X31583Y31412*
X31542Y31399*
X31505Y31379*
X31471Y31351*
X31444Y31316*
X31424Y31276*
X31413Y31231*
X31409Y31180*
X31413Y31130*
X31958Y31297D02*
X31958Y31297D01*
X31933Y31295*
X31911Y31289*
X31892Y31279*
X31875Y31265*
X31860Y31247*
X31850Y31227*
X31844Y31205*
X31842Y31180*
X31844Y31156*
X31850Y31134*
X31860Y31114*
X31874Y31097*
X31891Y31082*
X31910Y31072*
X31930Y31066*
X31953Y31064*
X31976Y31066*
X31997Y31072*
X32016Y31083*
X32034Y31098*
X32048Y31115*
X32059Y31135*
X32065Y31157*
X32067Y31181*
X32065Y31205*
X32059Y31227*
X32049Y31247*
X32035Y31264*
X32018Y31279*
X31999Y31289*
X31979Y31295*
X31958Y31297*
X31627Y31326D02*
X31627Y31326D01*
X31608Y31325*
X31590Y31321*
X31572Y31316*
X31554Y31308*
X31538Y31298*
X31523Y31286*
X31510Y31271*
X31500Y31255*
X31491Y31237*
X31485Y31219*
X31482Y31199*
X31480Y31179*
X31483Y31149*
X31491Y31122*
X31503Y31097*
X31521Y31075*
X31543Y31057*
X31567Y31045*
X31594Y31037*
X31624Y31034*
X31654Y31037*
X31682Y31045*
X31707Y31058*
X31729Y31077*
X31747Y31099*
X31760Y31124*
X31768Y31152*
X31770Y31182*
X31768Y31212*
X31760Y31239*
X31747Y31263*
X31729Y31285*
X31708Y31303*
X31683Y31316*
X31656Y31323*
X31627Y31326*
%LNtop silkscreen component 0a6b8b40ce2b8e93*%
D10*
X21425Y30775D02*
X23825Y30775D01*
X23825Y24475*
X21425Y24475*
X21425Y30775*
X22625Y30775D02*
X22625Y30235D01*
X22625Y24475D02*
X22625Y25015D01*
D13*
X21495Y29200D02*
X23755Y29200D01*
D11*
X24938Y32562D02*
X24938Y32562D01*
X24939Y32562*
X24939Y32452*
X24939Y32452*
X24939Y32435*
X24939Y32435*
X24938Y32420*
X24938Y32420*
X24937Y32408*
X24937Y32408*
X24935Y32399*
X24935Y32399*
X24932Y32388*
X24932Y32388*
X24928Y32377*
X24928Y32377*
X24923Y32366*
X24923Y32366*
X24916Y32356*
X24916Y32356*
X24908Y32345*
X24908Y32345*
X24897Y32333*
X24897Y32333*
X24884Y32320*
X24884Y32320*
X24868Y32307*
X24868Y32307*
X24849Y32293*
X24849Y32293*
X24827Y32277*
X24826Y32277*
X24800Y32259*
X24800Y32259*
X24770Y32239*
X24770Y32239*
X24621Y32144*
X24621Y32026*
X24815Y32150*
X24842Y32169*
X24867Y32189*
X24890Y32209*
X24910Y32229*
X24919Y32240*
X24928Y32253*
X24937Y32268*
X24946Y32286*
X24947Y32286*
X24956Y32238*
X24970Y32196*
X24989Y32162*
X25013Y32134*
X25040Y32112*
X25071Y32097*
X25104Y32088*
X25141Y32085*
X25170Y32086*
X25197Y32092*
X25224Y32101*
X25249Y32114*
X25271Y32130*
X25290Y32149*
X25305Y32170*
X25316Y32194*
X25325Y32221*
X25331Y32255*
X25335Y32294*
X25336Y32339*
X25336Y32656*
X24621Y32656*
X24621Y32562*
X24938Y32562*
X25020Y32562D02*
X25020Y32562D01*
X25020Y32358*
X25021Y32327*
X25024Y32300*
X25028Y32277*
X25034Y32256*
X25041Y32239*
X25051Y32224*
X25063Y32211*
X25077Y32201*
X25092Y32192*
X25108Y32187*
X25124Y32183*
X25141Y32182*
X25165Y32184*
X25187Y32191*
X25207Y32203*
X25224Y32219*
X25239Y32240*
X25249Y32266*
X25255Y32298*
X25257Y32335*
X25257Y32562*
X25020Y32562*
X25339Y31641D02*
X25339Y31641D01*
X25339Y31697*
X25316Y31710*
X25315Y31710*
X25292Y31728*
X25292Y31728*
X25268Y31749*
X25268Y31749*
X25243Y31775*
X25243Y31775*
X25219Y31803*
X25219Y31803*
X25197Y31835*
X25197Y31835*
X25177Y31868*
X25177Y31868*
X25159Y31903*
X25075Y31903*
X25083Y31883*
X25094Y31861*
X25106Y31837*
X25120Y31812*
X25135Y31787*
X25151Y31765*
X25166Y31746*
X25181Y31728*
X25181Y31728*
X24621Y31728*
X24621Y31641*
X25339Y31641*
X24792Y31046D02*
X24792Y31046D01*
X24792Y31046*
X24792Y30949*
X24872Y30949*
X24872Y31046*
X24872Y31046*
X25336Y31046*
X25336Y31117*
X24872Y31443*
X24792Y31443*
X24792Y31133*
X24792Y31133*
X24621Y31133*
X24621Y31046*
X24792Y31046*
X25193Y31134D02*
X25193Y31134D01*
X24873Y31357*
X24873Y31134*
X25193Y31134*
%LNtop silkscreen component 04810c5c597c12be*%
D10*
X43055Y7275D02*
X53595Y7275D01*
X53595Y0975*
X43055Y0975*
X43055Y7275*
D11*
X54496Y7460D02*
X54496Y7460D01*
X54496Y7460*
X54517Y7458*
X54517Y7458*
X54534Y7456*
X54534Y7456*
X54548Y7453*
X54548Y7453*
X54559Y7450*
X54559Y7450*
X54570Y7445*
X54570Y7445*
X54580Y7440*
X54580Y7440*
X54589Y7434*
X54589Y7434*
X54600Y7425*
X54600Y7425*
X54612Y7413*
X54612Y7413*
X54628Y7397*
X54628Y7397*
X54645Y7377*
X54673Y7348*
X54698Y7324*
X54721Y7305*
X54742Y7292*
X54762Y7282*
X54783Y7275*
X54805Y7271*
X54828Y7270*
X54867Y7274*
X54903Y7285*
X54936Y7305*
X54966Y7332*
X54990Y7366*
X55008Y7405*
X55019Y7449*
X55023Y7499*
X55019Y7546*
X55009Y7588*
X54993Y7626*
X54969Y7658*
X54940Y7685*
X54905Y7706*
X54863Y7721*
X54817Y7730*
X54806Y7641*
X54841Y7634*
X54841Y7634*
X54871Y7623*
X54871Y7623*
X54896Y7609*
X54896Y7609*
X54916Y7592*
X54916Y7592*
X54931Y7572*
X54931Y7572*
X54942Y7549*
X54942Y7549*
X54949Y7525*
X54949Y7525*
X54951Y7498*
X54951Y7498*
X54949Y7470*
X54949Y7470*
X54942Y7444*
X54942Y7444*
X54929Y7420*
X54929Y7420*
X54912Y7399*
X54912Y7399*
X54892Y7382*
X54892Y7382*
X54870Y7369*
X54870Y7369*
X54847Y7361*
X54847Y7361*
X54822Y7359*
X54822Y7359*
X54808Y7360*
X54808Y7360*
X54795Y7362*
X54794Y7362*
X54782Y7367*
X54782Y7367*
X54769Y7373*
X54769Y7373*
X54756Y7382*
X54756Y7382*
X54741Y7394*
X54741Y7394*
X54724Y7411*
X54724Y7411*
X54705Y7432*
X54705Y7432*
X54686Y7453*
X54670Y7471*
X54655Y7485*
X54644Y7495*
X54629Y7506*
X54615Y7516*
X54601Y7524*
X54587Y7530*
X54567Y7536*
X54546Y7541*
X54523Y7544*
X54498Y7545*
X54493Y7544*
X54487Y7544*
X54480Y7544*
X54472Y7544*
X54472Y7461*
X54496Y7460*
X54395Y7450D02*
X54395Y7450D01*
X54395Y7549*
X54296Y7549*
X54296Y7450*
X54395Y7450*
X55013Y6847D02*
X55013Y6847D01*
X55013Y6903*
X54990Y6916*
X54990Y6916*
X54966Y6934*
X54966Y6934*
X54942Y6955*
X54942Y6955*
X54918Y6981*
X54918Y6981*
X54894Y7009*
X54894Y7009*
X54872Y7041*
X54872Y7041*
X54852Y7074*
X54852Y7074*
X54834Y7109*
X54750Y7109*
X54758Y7089*
X54768Y7067*
X54781Y7043*
X54795Y7018*
X54810Y6993*
X54825Y6971*
X54840Y6952*
X54856Y6934*
X54855Y6934*
X54296Y6934*
X54296Y6847*
X55013Y6847*
X54379Y6160D02*
X54379Y6160D01*
X54379Y6511*
X54379Y6511*
X54392Y6503*
X54392Y6503*
X54404Y6494*
X54404Y6494*
X54416Y6484*
X54416Y6484*
X54427Y6474*
X54427Y6474*
X54442Y6459*
X54442Y6459*
X54462Y6437*
X54462Y6437*
X54487Y6408*
X54487Y6408*
X54518Y6372*
X54555Y6328*
X54589Y6291*
X54618Y6260*
X54643Y6237*
X54666Y6218*
X54688Y6202*
X54710Y6189*
X54731Y6178*
X54752Y6171*
X54773Y6165*
X54794Y6162*
X54815Y6161*
X54855Y6164*
X54892Y6176*
X54926Y6194*
X54956Y6221*
X54981Y6253*
X54999Y6291*
X55010Y6335*
X55013Y6383*
X55010Y6432*
X55000Y6475*
X54984Y6513*
X54960Y6546*
X54931Y6573*
X54896Y6593*
X54854Y6607*
X54807Y6615*
X54798Y6526*
X54829Y6523*
X54829Y6523*
X54858Y6516*
X54858Y6516*
X54882Y6504*
X54882Y6504*
X54903Y6487*
X54903Y6487*
X54920Y6467*
X54920Y6467*
X54932Y6443*
X54932Y6443*
X54939Y6416*
X54939Y6416*
X54942Y6385*
X54942Y6385*
X54939Y6357*
X54939Y6357*
X54933Y6331*
X54932Y6331*
X54921Y6308*
X54921Y6308*
X54905Y6288*
X54905Y6288*
X54886Y6271*
X54886Y6271*
X54865Y6259*
X54865Y6259*
X54842Y6252*
X54842Y6252*
X54817Y6250*
X54817Y6250*
X54792Y6253*
X54792Y6253*
X54765Y6260*
X54765Y6260*
X54739Y6273*
X54739Y6273*
X54711Y6291*
X54711Y6291*
X54680Y6316*
X54680Y6316*
X54645Y6351*
X54645Y6351*
X54605Y6395*
X54605Y6395*
X54559Y6449*
X54559Y6449*
X54529Y6484*
X54501Y6515*
X54475Y6542*
X54451Y6564*
X54427Y6582*
X54404Y6598*
X54380Y6611*
X54356Y6622*
X54341Y6627*
X54326Y6630*
X54311Y6632*
X54296Y6632*
X54296Y6160*
X54379Y6160*
D14*
X52135Y8025D03*
%LNtop silkscreen component 6c258254c5770ca7*%
D10*
X36977Y11020D02*
X36977Y21680D01*
X41672Y21680*
X41672Y11020*
X36977Y11020*
D11*
X36801Y21940D02*
X36801Y21940D01*
X36773Y21952*
X36773Y21952*
X36743Y21967*
X36743Y21967*
X36712Y21985*
X36712Y21985*
X36680Y22006*
X36680Y22007*
X36705Y22034*
X36727Y22064*
X36746Y22096*
X36761Y22130*
X36772Y22166*
X36781Y22205*
X36786Y22245*
X36788Y22288*
X36785Y22340*
X36777Y22389*
X36764Y22436*
X36746Y22479*
X36723Y22519*
X36695Y22555*
X36662Y22585*
X36625Y22611*
X36584Y22632*
X36540Y22646*
X36495Y22655*
X36446Y22658*
X36398Y22655*
X36353Y22647*
X36310Y22633*
X36269Y22613*
X36232Y22587*
X36199Y22557*
X36171Y22521*
X36147Y22481*
X36128Y22436*
X36115Y22389*
X36107Y22340*
X36104Y22288*
X36107Y22236*
X36115Y22187*
X36128Y22140*
X36147Y22097*
X36170Y22057*
X36198Y22021*
X36231Y21991*
X36268Y21965*
X36309Y21945*
X36352Y21930*
X36397Y21921*
X36444Y21918*
X36491Y21921*
X36536Y21929*
X36579Y21943*
X36620Y21963*
X36620Y21963*
X36659Y21935*
X36697Y21911*
X36736Y21891*
X36774Y21875*
X36801Y21940*
X36472Y22128D02*
X36472Y22128D01*
X36511Y22115*
X36546Y22099*
X36578Y22081*
X36607Y22059*
X36643Y22102*
X36670Y22155*
X36685Y22217*
X36690Y22288*
X36689Y22330*
X36683Y22370*
X36674Y22406*
X36661Y22440*
X36644Y22471*
X36624Y22498*
X36601Y22521*
X36574Y22541*
X36545Y22557*
X36514Y22568*
X36481Y22575*
X36447Y22577*
X36396Y22572*
X36350Y22559*
X36308Y22536*
X36271Y22504*
X36240Y22464*
X36219Y22414*
X36205Y22355*
X36201Y22288*
X36205Y22222*
X36218Y22164*
X36240Y22115*
X36270Y22074*
X36307Y22041*
X36349Y22018*
X36395Y22004*
X36447Y21999*
X36472Y22000*
X36496Y22004*
X36520Y22010*
X36542Y22018*
X36520Y22031*
X36497Y22043*
X36473Y22052*
X36449Y22059*
X36472Y22128*
X37210Y22648D02*
X37210Y22648D01*
X37155Y22648*
X37141Y22625*
X37141Y22625*
X37124Y22601*
X37124Y22601*
X37102Y22577*
X37102Y22577*
X37076Y22553*
X37076Y22553*
X37048Y22529*
X37048Y22529*
X37017Y22507*
X37017Y22507*
X36983Y22487*
X36983Y22487*
X36948Y22469*
X36948Y22385*
X36968Y22393*
X36991Y22403*
X37014Y22416*
X37040Y22430*
X37064Y22445*
X37086Y22460*
X37106Y22475*
X37123Y22491*
X37124Y22490*
X37124Y21931*
X37210Y21931*
X37210Y22648*
D12*
X39325Y21938D03*
%LNtop silkscreen component 8c437a439b2244d4*%
D10*
X14600Y30750D02*
X17000Y30750D01*
X17000Y24450*
X14600Y24450*
X14600Y30750*
X15800Y30750D02*
X15800Y30210D01*
X15800Y24450D02*
X15800Y24990D01*
D13*
X14670Y29175D02*
X16930Y29175D01*
D11*
X18113Y32537D02*
X18113Y32537D01*
X18114Y32537*
X18114Y32427*
X18114Y32427*
X18114Y32410*
X18114Y32410*
X18113Y32395*
X18113Y32395*
X18112Y32383*
X18112Y32383*
X18110Y32374*
X18110Y32374*
X18107Y32363*
X18107Y32363*
X18103Y32352*
X18103Y32352*
X18098Y32341*
X18098Y32341*
X18091Y32331*
X18091Y32331*
X18083Y32320*
X18083Y32320*
X18072Y32308*
X18072Y32308*
X18059Y32295*
X18059Y32295*
X18043Y32282*
X18043Y32282*
X18024Y32268*
X18024Y32268*
X18002Y32252*
X18001Y32252*
X17975Y32234*
X17975Y32234*
X17945Y32214*
X17945Y32214*
X17796Y32119*
X17796Y32001*
X17990Y32125*
X18017Y32144*
X18042Y32164*
X18065Y32184*
X18085Y32204*
X18094Y32215*
X18103Y32228*
X18112Y32243*
X18121Y32261*
X18122Y32261*
X18131Y32213*
X18145Y32171*
X18164Y32137*
X18188Y32109*
X18215Y32087*
X18246Y32072*
X18279Y32063*
X18316Y32060*
X18345Y32061*
X18372Y32067*
X18399Y32076*
X18424Y32089*
X18446Y32105*
X18465Y32124*
X18480Y32145*
X18491Y32169*
X18500Y32196*
X18506Y32230*
X18510Y32269*
X18511Y32314*
X18511Y32631*
X17796Y32631*
X17796Y32537*
X18113Y32537*
X18195Y32537D02*
X18195Y32537D01*
X18195Y32333*
X18196Y32302*
X18199Y32275*
X18203Y32252*
X18209Y32231*
X18216Y32214*
X18226Y32199*
X18238Y32186*
X18252Y32176*
X18267Y32167*
X18283Y32162*
X18299Y32158*
X18316Y32157*
X18340Y32159*
X18362Y32166*
X18382Y32178*
X18399Y32194*
X18414Y32215*
X18424Y32241*
X18430Y32273*
X18432Y32310*
X18432Y32537*
X18195Y32537*
X18514Y31616D02*
X18514Y31616D01*
X18514Y31672*
X18491Y31685*
X18490Y31685*
X18467Y31703*
X18467Y31703*
X18443Y31724*
X18443Y31724*
X18418Y31750*
X18418Y31750*
X18394Y31778*
X18394Y31778*
X18372Y31810*
X18372Y31810*
X18352Y31843*
X18352Y31843*
X18334Y31878*
X18250Y31878*
X18258Y31858*
X18269Y31836*
X18281Y31812*
X18295Y31787*
X18310Y31762*
X18326Y31740*
X18341Y31721*
X18356Y31703*
X18356Y31703*
X17796Y31703*
X17796Y31616*
X18514Y31616*
X17787Y31112D02*
X17787Y31112D01*
X17799Y31067*
X17820Y31026*
X17848Y30990*
X17883Y30960*
X17920Y30938*
X17962Y30926*
X18007Y30921*
X18040Y30924*
X18070Y30930*
X18098Y30941*
X18122Y30956*
X18143Y30976*
X18160Y30999*
X18173Y31025*
X18183Y31055*
X18183Y31055*
X18196Y31032*
X18210Y31012*
X18226Y30995*
X18244Y30981*
X18263Y30971*
X18284Y30963*
X18306Y30958*
X18328Y30957*
X18352Y30958*
X18375Y30963*
X18398Y30971*
X18420Y30983*
X18441Y30997*
X18459Y31014*
X18475Y31035*
X18489Y31058*
X18500Y31083*
X18507Y31109*
X18512Y31137*
X18514Y31166*
X18511Y31206*
X18502Y31243*
X18486Y31277*
X18465Y31307*
X18438Y31333*
X18407Y31354*
X18370Y31370*
X18329Y31380*
X18314Y31293*
X18343Y31287*
X18343Y31287*
X18370Y31278*
X18370Y31278*
X18392Y31265*
X18392Y31265*
X18410Y31249*
X18410Y31249*
X18424Y31231*
X18424Y31231*
X18434Y31211*
X18434Y31211*
X18440Y31188*
X18440Y31188*
X18442Y31164*
X18442Y31164*
X18440Y31139*
X18440Y31139*
X18434Y31116*
X18434Y31116*
X18424Y31096*
X18424Y31096*
X18411Y31079*
X18410Y31079*
X18394Y31064*
X18394Y31064*
X18374Y31054*
X18374Y31054*
X18353Y31048*
X18353Y31048*
X18330Y31046*
X18330Y31046*
X18301Y31049*
X18301Y31049*
X18277Y31057*
X18277Y31057*
X18256Y31071*
X18256Y31071*
X18239Y31091*
X18239Y31091*
X18226Y31114*
X18226Y31114*
X18217Y31139*
X18217Y31139*
X18212Y31165*
X18212Y31165*
X18210Y31192*
X18210Y31192*
X18210Y31195*
X18210Y31195*
X18210Y31199*
X18210Y31199*
X18210Y31202*
X18210Y31202*
X18211Y31206*
X18135Y31216*
X18139Y31199*
X18139Y31199*
X18142Y31182*
X18142Y31182*
X18144Y31168*
X18144Y31168*
X18145Y31154*
X18145Y31154*
X18142Y31125*
X18142Y31125*
X18135Y31098*
X18135Y31098*
X18122Y31075*
X18122Y31075*
X18105Y31053*
X18105Y31053*
X18084Y31036*
X18084Y31036*
X18060Y31024*
X18060Y31024*
X18034Y31016*
X18034Y31016*
X18005Y31014*
X18005Y31014*
X17974Y31016*
X17974Y31016*
X17946Y31024*
X17946Y31024*
X17921Y31038*
X17921Y31038*
X17898Y31057*
X17898Y31057*
X17879Y31079*
X17879Y31079*
X17866Y31104*
X17866Y31104*
X17858Y31132*
X17858Y31132*
X17855Y31162*
X17855Y31162*
X17857Y31187*
X17857Y31187*
X17863Y31210*
X17863Y31210*
X17874Y31231*
X17874Y31231*
X17888Y31251*
X17888Y31251*
X17907Y31268*
X17907Y31268*
X17932Y31282*
X17932Y31282*
X17961Y31293*
X17961Y31293*
X17996Y31302*
X17984Y31389*
X17942Y31381*
X17904Y31367*
X17869Y31346*
X17839Y31318*
X17815Y31285*
X17797Y31248*
X17787Y31207*
X17783Y31162*
X17787Y31112*
%LNtop silkscreen component 0fc5d429d87802fd*%
D10*
X49875Y36660D02*
X63485Y36660D01*
X63485Y13090*
X49875Y13090*
X49875Y36660*
D11*
X63726Y36249D02*
X63726Y36249D01*
X63733Y36205*
X63746Y36165*
X63763Y36131*
X63784Y36102*
X63809Y36077*
X63836Y36058*
X63866Y36043*
X63900Y36033*
X63941Y36025*
X63986Y36020*
X64037Y36019*
X64450Y36019*
X64450Y36113*
X64038Y36113*
X64038Y36113*
X63976Y36115*
X63976Y36115*
X63925Y36124*
X63925Y36124*
X63885Y36138*
X63884Y36138*
X63855Y36157*
X63855Y36157*
X63834Y36183*
X63834Y36183*
X63820Y36217*
X63820Y36217*
X63811Y36258*
X63811Y36258*
X63808Y36306*
X63808Y36306*
X63809Y36336*
X63809Y36336*
X63814Y36363*
X63814Y36363*
X63821Y36388*
X63821Y36388*
X63832Y36410*
X63832Y36410*
X63845Y36430*
X63845Y36430*
X63861Y36446*
X63861Y36446*
X63879Y36460*
X63879Y36460*
X63900Y36470*
X63900Y36470*
X63925Y36477*
X63925Y36477*
X63957Y36483*
X63957Y36483*
X63994Y36486*
X63994Y36486*
X64038Y36487*
X64038Y36487*
X64450Y36487*
X64450Y36581*
X64037Y36581*
X63983Y36579*
X63936Y36574*
X63894Y36566*
X63858Y36554*
X63827Y36538*
X63800Y36517*
X63777Y36492*
X63758Y36462*
X63743Y36428*
X63732Y36390*
X63725Y36346*
X63723Y36298*
X63726Y36249*
X64453Y35566D02*
X64453Y35566D01*
X64453Y35622*
X64430Y35635*
X64430Y35635*
X64406Y35653*
X64406Y35653*
X64382Y35674*
X64382Y35674*
X64358Y35700*
X64358Y35700*
X64334Y35728*
X64334Y35728*
X64312Y35760*
X64312Y35760*
X64292Y35793*
X64292Y35793*
X64274Y35828*
X64190Y35828*
X64198Y35808*
X64208Y35786*
X64221Y35762*
X64235Y35737*
X64250Y35712*
X64265Y35690*
X64280Y35671*
X64296Y35653*
X64295Y35653*
X63736Y35653*
X63736Y35566*
X64453Y35566*
D14*
X49650Y32535D03*
%LNtop silkscreen component 312cdacbf92fd603*%
D10*
X6428Y11070D02*
X6428Y21730D01*
X11123Y21730*
X11123Y11070*
X6428Y11070*
D11*
X6251Y21990D02*
X6251Y21990D01*
X6223Y22002*
X6223Y22002*
X6193Y22017*
X6193Y22017*
X6162Y22035*
X6162Y22035*
X6130Y22056*
X6130Y22057*
X6155Y22084*
X6177Y22114*
X6196Y22146*
X6211Y22180*
X6222Y22216*
X6231Y22255*
X6236Y22295*
X6238Y22338*
X6235Y22390*
X6227Y22439*
X6214Y22486*
X6196Y22529*
X6173Y22569*
X6145Y22605*
X6112Y22635*
X6075Y22661*
X6034Y22682*
X5990Y22696*
X5945Y22705*
X5896Y22708*
X5848Y22705*
X5803Y22697*
X5760Y22683*
X5719Y22663*
X5682Y22637*
X5649Y22607*
X5621Y22571*
X5597Y22531*
X5578Y22486*
X5565Y22439*
X5557Y22390*
X5554Y22338*
X5557Y22286*
X5565Y22237*
X5578Y22190*
X5597Y22147*
X5620Y22107*
X5648Y22071*
X5681Y22041*
X5718Y22015*
X5759Y21995*
X5802Y21980*
X5847Y21971*
X5894Y21968*
X5941Y21971*
X5986Y21979*
X6029Y21993*
X6070Y22013*
X6070Y22013*
X6109Y21985*
X6147Y21961*
X6186Y21941*
X6224Y21925*
X6251Y21990*
X5922Y22178D02*
X5922Y22178D01*
X5961Y22165*
X5996Y22149*
X6028Y22131*
X6057Y22109*
X6093Y22152*
X6120Y22205*
X6135Y22267*
X6140Y22338*
X6139Y22380*
X6133Y22420*
X6124Y22456*
X6111Y22490*
X6094Y22521*
X6074Y22548*
X6051Y22571*
X6024Y22591*
X5995Y22607*
X5964Y22618*
X5931Y22625*
X5897Y22627*
X5846Y22622*
X5800Y22609*
X5758Y22586*
X5721Y22554*
X5690Y22514*
X5669Y22464*
X5655Y22405*
X5651Y22338*
X5655Y22272*
X5668Y22214*
X5690Y22165*
X5720Y22124*
X5757Y22091*
X5799Y22068*
X5845Y22054*
X5897Y22049*
X5922Y22050*
X5946Y22054*
X5970Y22060*
X5992Y22068*
X5970Y22081*
X5947Y22093*
X5923Y22102*
X5899Y22109*
X5922Y22178*
X6699Y22152D02*
X6699Y22152D01*
X6699Y22152*
X6796Y22152*
X6796Y22231*
X6699Y22231*
X6699Y22232*
X6699Y22695*
X6628Y22695*
X6302Y22232*
X6302Y22152*
X6612Y22152*
X6612Y22152*
X6612Y21981*
X6699Y21981*
X6699Y22152*
X6611Y22553D02*
X6611Y22553D01*
X6388Y22232*
X6611Y22232*
X6611Y22553*
D12*
X8775Y21988D03*
%LNtop silkscreen component c3cab1f166f104d1*%
D10*
X22835Y7400D02*
X35915Y7400D01*
X35915Y1100*
X22835Y1100*
X22835Y7400*
X33185Y7400D02*
X33185Y1100D01*
D11*
X36606Y7489D02*
X36606Y7489D01*
X36613Y7445*
X36626Y7405*
X36643Y7371*
X36664Y7342*
X36689Y7317*
X36716Y7298*
X36746Y7283*
X36780Y7273*
X36821Y7265*
X36866Y7260*
X36917Y7259*
X37330Y7259*
X37330Y7353*
X36918Y7353*
X36918Y7353*
X36856Y7355*
X36856Y7355*
X36805Y7364*
X36805Y7364*
X36765Y7378*
X36764Y7378*
X36735Y7397*
X36735Y7397*
X36714Y7423*
X36714Y7423*
X36700Y7457*
X36700Y7457*
X36691Y7498*
X36691Y7498*
X36688Y7546*
X36688Y7546*
X36689Y7576*
X36689Y7576*
X36694Y7603*
X36694Y7603*
X36701Y7628*
X36701Y7628*
X36712Y7650*
X36712Y7650*
X36725Y7670*
X36725Y7670*
X36741Y7686*
X36741Y7686*
X36759Y7700*
X36759Y7700*
X36780Y7710*
X36780Y7710*
X36805Y7717*
X36805Y7717*
X36837Y7723*
X36837Y7723*
X36874Y7726*
X36874Y7726*
X36918Y7727*
X36918Y7727*
X37330Y7727*
X37330Y7821*
X36917Y7821*
X36863Y7819*
X36816Y7814*
X36774Y7806*
X36738Y7794*
X36707Y7778*
X36680Y7757*
X36657Y7732*
X36638Y7702*
X36623Y7668*
X36612Y7630*
X36605Y7586*
X36603Y7538*
X36606Y7489*
X36699Y6675D02*
X36699Y6675D01*
X36699Y7026*
X36699Y7026*
X36712Y7018*
X36712Y7018*
X36724Y7009*
X36724Y7009*
X36736Y7000*
X36736Y6999*
X36747Y6989*
X36747Y6989*
X36762Y6974*
X36762Y6974*
X36782Y6952*
X36782Y6952*
X36807Y6923*
X36807Y6923*
X36838Y6887*
X36875Y6843*
X36909Y6806*
X36938Y6775*
X36963Y6752*
X36986Y6733*
X37008Y6717*
X37030Y6704*
X37051Y6693*
X37072Y6686*
X37093Y6680*
X37114Y6677*
X37135Y6676*
X37175Y6680*
X37212Y6691*
X37246Y6710*
X37276Y6736*
X37301Y6768*
X37319Y6806*
X37330Y6850*
X37333Y6899*
X37330Y6947*
X37320Y6990*
X37304Y7028*
X37280Y7061*
X37251Y7088*
X37216Y7108*
X37174Y7123*
X37127Y7130*
X37118Y7041*
X37149Y7039*
X37149Y7039*
X37178Y7031*
X37178Y7031*
X37202Y7019*
X37202Y7019*
X37223Y7002*
X37223Y7002*
X37240Y6982*
X37240Y6982*
X37252Y6958*
X37252Y6958*
X37259Y6931*
X37259Y6931*
X37262Y6901*
X37262Y6900*
X37259Y6872*
X37259Y6872*
X37253Y6846*
X37252Y6846*
X37241Y6823*
X37241Y6823*
X37225Y6803*
X37225Y6803*
X37206Y6786*
X37206Y6786*
X37185Y6775*
X37185Y6775*
X37162Y6768*
X37162Y6768*
X37137Y6765*
X37137Y6765*
X37112Y6768*
X37112Y6768*
X37085Y6775*
X37085Y6776*
X37059Y6788*
X37059Y6788*
X37031Y6806*
X37031Y6806*
X37000Y6832*
X37000Y6832*
X36965Y6866*
X36965Y6866*
X36925Y6910*
X36925Y6910*
X36879Y6964*
X36879Y6964*
X36849Y6999*
X36821Y7030*
X36795Y7057*
X36771Y7079*
X36747Y7098*
X36724Y7113*
X36700Y7126*
X36676Y7137*
X36661Y7142*
X36646Y7145*
X36631Y7147*
X36616Y7147*
X36616Y6675*
X36699Y6675*
X36606Y6328D02*
X36606Y6328D01*
X36614Y6292*
X36627Y6259*
X36646Y6228*
X36669Y6201*
X36698Y6177*
X36731Y6156*
X36769Y6140*
X36813Y6127*
X36864Y6117*
X36922Y6112*
X36988Y6110*
X37050Y6112*
X37104Y6117*
X37150Y6127*
X37189Y6140*
X37222Y6157*
X37250Y6177*
X37275Y6201*
X37296Y6228*
X37312Y6257*
X37324Y6288*
X37331Y6321*
X37333Y6355*
X37329Y6401*
X37317Y6443*
X37296Y6482*
X37267Y6516*
X37231Y6544*
X37190Y6564*
X37144Y6576*
X37092Y6580*
X37042Y6576*
X36997Y6564*
X36957Y6545*
X36922Y6518*
X36894Y6486*
X36874Y6450*
X36862Y6411*
X36858Y6368*
X36860Y6342*
X36865Y6317*
X36873Y6293*
X36884Y6270*
X36898Y6248*
X36914Y6229*
X36932Y6212*
X36953Y6198*
X36952Y6197*
X36946Y6197*
X36946Y6197*
X36942Y6196*
X36942Y6196*
X36938Y6196*
X36938Y6196*
X36934Y6196*
X36934Y6196*
X36907Y6197*
X36907Y6197*
X36880Y6200*
X36880Y6200*
X36853Y6204*
X36853Y6204*
X36827Y6210*
X36827Y6210*
X36802Y6217*
X36802Y6217*
X36779Y6224*
X36779Y6224*
X36760Y6233*
X36760Y6233*
X36743Y6242*
X36743Y6242*
X36728Y6253*
X36728Y6253*
X36715Y6265*
X36715Y6265*
X36703Y6278*
X36703Y6278*
X36693Y6293*
X36693Y6293*
X36685Y6308*
X36685Y6309*
X36679Y6326*
X36679Y6326*
X36676Y6344*
X36676Y6344*
X36675Y6364*
X36675Y6364*
X36676Y6387*
X36676Y6387*
X36681Y6407*
X36681Y6407*
X36690Y6426*
X36690Y6426*
X36702Y6442*
X36702Y6442*
X36717Y6456*
X36717Y6456*
X36737Y6467*
X36737Y6467*
X36760Y6476*
X36760Y6476*
X36788Y6483*
X36780Y6566*
X36741Y6558*
X36706Y6545*
X36675Y6527*
X36650Y6503*
X36629Y6474*
X36615Y6442*
X36606Y6406*
X36603Y6366*
X36606Y6328*
X37096Y6207D02*
X37096Y6207D01*
X37132Y6210*
X37164Y6217*
X37192Y6230*
X37217Y6247*
X37236Y6269*
X37250Y6292*
X37258Y6317*
X37261Y6344*
X37258Y6373*
X37249Y6399*
X37234Y6424*
X37213Y6446*
X37187Y6465*
X37158Y6479*
X37125Y6487*
X37089Y6490*
X37057Y6487*
X37027Y6480*
X37001Y6467*
X36978Y6449*
X36959Y6427*
X36946Y6402*
X36938Y6376*
X36935Y6347*
X36938Y6318*
X36946Y6291*
X36959Y6267*
X36978Y6246*
X37001Y6229*
X37029Y6217*
X37061Y6210*
X37096Y6207*
D14*
X34455Y8150D03*
%LNtop silkscreen component b923ac39a7958762*%
D10*
X52850Y8675D02*
X52850Y11075D01*
X59150Y11075*
X59150Y8675*
X52850Y8675*
X52850Y9875D02*
X53390Y9875D01*
X59150Y9875D02*
X58610Y9875D01*
D13*
X54425Y8745D02*
X54425Y11005D01*
D11*
X51063Y12188D02*
X51063Y12188D01*
X51063Y12189*
X51173Y12189*
X51173Y12189*
X51190Y12189*
X51190Y12189*
X51205Y12188*
X51205Y12188*
X51217Y12187*
X51217Y12187*
X51226Y12185*
X51226Y12185*
X51237Y12182*
X51237Y12182*
X51248Y12178*
X51248Y12178*
X51259Y12173*
X51259Y12173*
X51269Y12166*
X51269Y12166*
X51280Y12158*
X51280Y12158*
X51292Y12147*
X51292Y12147*
X51305Y12134*
X51305Y12134*
X51318Y12118*
X51318Y12118*
X51332Y12099*
X51332Y12099*
X51348Y12077*
X51348Y12076*
X51366Y12050*
X51366Y12050*
X51386Y12020*
X51386Y12020*
X51481Y11871*
X51599Y11871*
X51475Y12065*
X51456Y12092*
X51436Y12117*
X51416Y12140*
X51396Y12160*
X51385Y12169*
X51372Y12178*
X51357Y12187*
X51339Y12196*
X51339Y12197*
X51387Y12206*
X51429Y12220*
X51463Y12239*
X51491Y12263*
X51513Y12290*
X51528Y12321*
X51537Y12354*
X51540Y12391*
X51539Y12420*
X51533Y12447*
X51524Y12474*
X51511Y12499*
X51495Y12521*
X51476Y12540*
X51455Y12555*
X51431Y12566*
X51404Y12575*
X51370Y12581*
X51331Y12585*
X51286Y12586*
X50969Y12586*
X50969Y11871*
X51063Y11871*
X51063Y12188*
X51063Y12270D02*
X51063Y12270D01*
X51267Y12270*
X51298Y12271*
X51325Y12274*
X51348Y12278*
X51369Y12284*
X51386Y12291*
X51401Y12301*
X51414Y12313*
X51424Y12327*
X51433Y12342*
X51438Y12358*
X51442Y12374*
X51443Y12391*
X51441Y12415*
X51434Y12437*
X51422Y12457*
X51406Y12474*
X51385Y12489*
X51359Y12499*
X51327Y12505*
X51290Y12507*
X51063Y12507*
X51063Y12270*
X52115Y11954D02*
X52115Y11954D01*
X51764Y11954*
X51764Y11955*
X51772Y11967*
X51772Y11967*
X51781Y11979*
X51781Y11979*
X51790Y11991*
X51791Y11991*
X51801Y12003*
X51801Y12003*
X51816Y12017*
X51816Y12017*
X51838Y12037*
X51838Y12037*
X51867Y12062*
X51867Y12062*
X51903Y12093*
X51947Y12131*
X51984Y12164*
X52015Y12194*
X52038Y12219*
X52057Y12242*
X52073Y12264*
X52086Y12285*
X52097Y12306*
X52104Y12327*
X52110Y12348*
X52113Y12369*
X52114Y12390*
X52110Y12431*
X52099Y12468*
X52080Y12501*
X52054Y12532*
X52022Y12557*
X51984Y12574*
X51940Y12585*
X51891Y12589*
X51843Y12585*
X51800Y12575*
X51762Y12559*
X51729Y12536*
X51702Y12506*
X51682Y12471*
X51667Y12430*
X51660Y12383*
X51749Y12373*
X51751Y12405*
X51751Y12405*
X51759Y12433*
X51759Y12433*
X51771Y12458*
X51771Y12458*
X51788Y12479*
X51788Y12479*
X51808Y12495*
X51808Y12495*
X51832Y12507*
X51832Y12507*
X51859Y12515*
X51859Y12515*
X51889Y12517*
X51890Y12517*
X51918Y12515*
X51918Y12515*
X51944Y12508*
X51944Y12508*
X51967Y12497*
X51967Y12497*
X51987Y12481*
X51987Y12481*
X52004Y12462*
X52004Y12462*
X52015Y12441*
X52015Y12441*
X52022Y12418*
X52022Y12418*
X52025Y12392*
X52025Y12392*
X52022Y12367*
X52022Y12367*
X52015Y12341*
X52014Y12341*
X52002Y12314*
X52002Y12314*
X51984Y12286*
X51984Y12286*
X51958Y12256*
X51958Y12256*
X51924Y12220*
X51924Y12220*
X51880Y12180*
X51880Y12180*
X51826Y12135*
X51826Y12135*
X51791Y12105*
X51760Y12077*
X51733Y12051*
X51711Y12026*
X51692Y12003*
X51677Y11979*
X51664Y11955*
X51653Y11931*
X51648Y11916*
X51645Y11901*
X51643Y11886*
X51643Y11871*
X52115Y11871*
X52115Y11954*
X55722Y12443D02*
X55722Y12443D01*
X55666Y12443*
X55653Y12420*
X55653Y12420*
X55635Y12396*
X55635Y12396*
X55614Y12372*
X55614Y12372*
X55588Y12348*
X55588Y12348*
X55559Y12324*
X55559Y12324*
X55528Y12302*
X55528Y12302*
X55495Y12282*
X55495Y12282*
X55459Y12264*
X55459Y12180*
X55480Y12188*
X55502Y12198*
X55526Y12211*
X55551Y12225*
X55576Y12240*
X55598Y12255*
X55617Y12270*
X55635Y12286*
X55635Y12285*
X55635Y11726*
X55722Y11726*
X55722Y12443*
X56226Y11717D02*
X56226Y11717D01*
X56271Y11729*
X56312Y11749*
X56348Y11778*
X56378Y11812*
X56399Y11850*
X56412Y11891*
X56416Y11936*
X56414Y11970*
X56408Y12000*
X56397Y12027*
X56381Y12052*
X56362Y12073*
X56339Y12090*
X56313Y12103*
X56283Y12112*
X56283Y12113*
X56306Y12125*
X56326Y12139*
X56343Y12156*
X56356Y12174*
X56367Y12193*
X56375Y12214*
X56380Y12235*
X56381Y12258*
X56380Y12282*
X56375Y12305*
X56367Y12328*
X56355Y12350*
X56341Y12370*
X56323Y12389*
X56303Y12404*
X56280Y12418*
X56255Y12429*
X56228Y12437*
X56201Y12442*
X56172Y12443*
X56132Y12440*
X56094Y12431*
X56061Y12416*
X56031Y12395*
X56005Y12368*
X55984Y12336*
X55968Y12300*
X55958Y12259*
X56044Y12243*
X56051Y12273*
X56051Y12273*
X56060Y12299*
X56060Y12299*
X56073Y12321*
X56073Y12321*
X56088Y12340*
X56088Y12340*
X56107Y12354*
X56107Y12354*
X56127Y12364*
X56127Y12364*
X56150Y12370*
X56150Y12370*
X56174Y12372*
X56174Y12372*
X56199Y12370*
X56199Y12370*
X56221Y12364*
X56221Y12364*
X56241Y12354*
X56241Y12354*
X56259Y12340*
X56259Y12340*
X56273Y12323*
X56273Y12323*
X56284Y12304*
X56284Y12304*
X56290Y12283*
X56290Y12283*
X56292Y12260*
X56292Y12260*
X56289Y12231*
X56289Y12231*
X56281Y12206*
X56281Y12206*
X56267Y12186*
X56266Y12186*
X56247Y12169*
X56247Y12169*
X56224Y12156*
X56224Y12156*
X56199Y12147*
X56199Y12147*
X56173Y12141*
X56173Y12141*
X56145Y12140*
X56145Y12140*
X56143Y12140*
X56142Y12140*
X56139Y12140*
X56139Y12140*
X56135Y12140*
X56135Y12140*
X56132Y12140*
X56122Y12065*
X56139Y12069*
X56139Y12069*
X56155Y12072*
X56155Y12072*
X56170Y12074*
X56170Y12074*
X56183Y12074*
X56184Y12074*
X56213Y12072*
X56213Y12072*
X56239Y12064*
X56239Y12064*
X56263Y12052*
X56263Y12052*
X56284Y12035*
X56284Y12035*
X56302Y12014*
X56302Y12014*
X56314Y11990*
X56314Y11990*
X56322Y11964*
X56322Y11963*
X56324Y11934*
X56324Y11934*
X56321Y11904*
X56321Y11904*
X56313Y11876*
X56313Y11876*
X56300Y11851*
X56300Y11850*
X56281Y11828*
X56281Y11828*
X56259Y11809*
X56259Y11809*
X56234Y11795*
X56234Y11795*
X56206Y11787*
X56206Y11787*
X56176Y11785*
X56176Y11785*
X56151Y11787*
X56151Y11787*
X56128Y11793*
X56128Y11793*
X56106Y11803*
X56106Y11803*
X56087Y11818*
X56087Y11818*
X56070Y11837*
X56070Y11837*
X56056Y11861*
X56056Y11861*
X56044Y11891*
X56044Y11891*
X56036Y11925*
X55949Y11914*
X55956Y11871*
X55971Y11833*
X55992Y11799*
X56020Y11769*
X56053Y11744*
X56090Y11727*
X56131Y11716*
X56176Y11713*
X56226Y11717*
X56775Y11716D02*
X56775Y11716D01*
X56809Y11724*
X56840Y11737*
X56867Y11755*
X56891Y11779*
X56912Y11806*
X56930Y11838*
X56944Y11875*
X56956Y11916*
X56964Y11964*
X56968Y12018*
X56970Y12078*
X56969Y12128*
X56966Y12173*
X56961Y12213*
X56954Y12247*
X56945Y12277*
X56935Y12305*
X56923Y12330*
X56910Y12353*
X56895Y12374*
X56878Y12392*
X56859Y12407*
X56838Y12420*
X56816Y12430*
X56791Y12437*
X56765Y12442*
X56737Y12443*
X56700Y12441*
X56666Y12433*
X56635Y12420*
X56608Y12401*
X56584Y12378*
X56563Y12351*
X56545Y12319*
X56530Y12282*
X56519Y12240*
X56511Y12193*
X56506Y12138*
X56504Y12078*
X56509Y11984*
X56522Y11905*
X56544Y11839*
X56575Y11787*
X56607Y11755*
X56645Y11732*
X56688Y11718*
X56737Y11713*
X56775Y11716*
X56594Y12078D02*
X56594Y12078D01*
X56597Y11997*
X56604Y11931*
X56617Y11880*
X56635Y11843*
X56657Y11818*
X56681Y11800*
X56708Y11789*
X56737Y11785*
X56766Y11789*
X56793Y11800*
X56817Y11818*
X56839Y11844*
X56857Y11880*
X56870Y11932*
X56878Y11997*
X56880Y12078*
X56878Y12159*
X56870Y12225*
X56857Y12276*
X56839Y12313*
X56817Y12338*
X56793Y12356*
X56766Y12367*
X56736Y12371*
X56707Y12368*
X56682Y12358*
X56659Y12342*
X56640Y12320*
X56620Y12280*
X56606Y12227*
X56597Y12159*
X56594Y12078*
%LNtop silkscreen component 8617819b20f8b299*%
D10*
X7575Y30750D02*
X9975Y30750D01*
X9975Y24450*
X7575Y24450*
X7575Y30750*
X8775Y30750D02*
X8775Y30210D01*
X8775Y24450D02*
X8775Y24990D01*
D13*
X7645Y29175D02*
X9905Y29175D01*
D11*
X11088Y32537D02*
X11088Y32537D01*
X11089Y32537*
X11089Y32427*
X11089Y32427*
X11089Y32410*
X11089Y32410*
X11088Y32395*
X11088Y32395*
X11087Y32383*
X11087Y32383*
X11085Y32374*
X11085Y32374*
X11082Y32363*
X11082Y32363*
X11078Y32352*
X11078Y32352*
X11073Y32341*
X11073Y32341*
X11066Y32331*
X11066Y32331*
X11058Y32320*
X11058Y32320*
X11047Y32308*
X11047Y32308*
X11034Y32295*
X11034Y32295*
X11018Y32282*
X11018Y32282*
X10999Y32268*
X10999Y32268*
X10977Y32252*
X10976Y32252*
X10950Y32234*
X10950Y32234*
X10920Y32214*
X10920Y32214*
X10771Y32119*
X10771Y32001*
X10965Y32125*
X10992Y32144*
X11017Y32164*
X11040Y32184*
X11060Y32204*
X11069Y32215*
X11078Y32228*
X11087Y32243*
X11096Y32261*
X11097Y32261*
X11106Y32213*
X11120Y32171*
X11139Y32137*
X11163Y32109*
X11190Y32087*
X11221Y32072*
X11254Y32063*
X11291Y32060*
X11320Y32061*
X11347Y32067*
X11374Y32076*
X11399Y32089*
X11421Y32105*
X11440Y32124*
X11455Y32145*
X11466Y32169*
X11475Y32196*
X11481Y32230*
X11485Y32269*
X11486Y32314*
X11486Y32631*
X10771Y32631*
X10771Y32537*
X11088Y32537*
X11170Y32537D02*
X11170Y32537D01*
X11170Y32333*
X11171Y32302*
X11174Y32275*
X11178Y32252*
X11184Y32231*
X11191Y32214*
X11201Y32199*
X11213Y32186*
X11227Y32176*
X11242Y32167*
X11258Y32162*
X11274Y32158*
X11291Y32157*
X11315Y32159*
X11337Y32166*
X11357Y32178*
X11374Y32194*
X11389Y32215*
X11399Y32241*
X11405Y32273*
X11407Y32310*
X11407Y32537*
X11170Y32537*
X11489Y31616D02*
X11489Y31616D01*
X11489Y31672*
X11466Y31685*
X11465Y31685*
X11442Y31703*
X11442Y31703*
X11418Y31724*
X11418Y31724*
X11393Y31750*
X11393Y31750*
X11369Y31778*
X11369Y31778*
X11347Y31810*
X11347Y31810*
X11327Y31843*
X11327Y31843*
X11309Y31878*
X11225Y31878*
X11233Y31858*
X11244Y31836*
X11256Y31812*
X11270Y31787*
X11285Y31762*
X11301Y31740*
X11316Y31721*
X11331Y31703*
X11331Y31703*
X10771Y31703*
X10771Y31616*
X11489Y31616*
X10761Y31114D02*
X10761Y31114D01*
X10766Y31085*
X10776Y31057*
X10789Y31031*
X10806Y31007*
X10827Y30985*
X10851Y30967*
X10878Y30951*
X10907Y30938*
X10938Y30929*
X10970Y30924*
X11003Y30922*
X11052Y30926*
X11096Y30937*
X11135Y30957*
X11170Y30984*
X11198Y31016*
X11218Y31052*
X11230Y31091*
X11234Y31133*
X11233Y31158*
X11228Y31182*
X11221Y31206*
X11211Y31229*
X11198Y31251*
X11181Y31271*
X11162Y31290*
X11139Y31306*
X11139Y31307*
X11190Y31305*
X11190Y31305*
X11235Y31300*
X11235Y31300*
X11273Y31293*
X11273Y31293*
X11305Y31282*
X11305Y31282*
X11333Y31269*
X11333Y31269*
X11357Y31254*
X11357Y31254*
X11377Y31236*
X11377Y31236*
X11394Y31217*
X11394Y31217*
X11404Y31200*
X11404Y31200*
X11412Y31182*
X11412Y31182*
X11416Y31163*
X11416Y31163*
X11417Y31143*
X11417Y31143*
X11415Y31117*
X11415Y31117*
X11408Y31094*
X11408Y31094*
X11396Y31073*
X11396Y31073*
X11380Y31054*
X11380Y31054*
X11366Y31044*
X11366Y31044*
X11349Y31035*
X11349Y31035*
X11328Y31027*
X11328Y31027*
X11305Y31021*
X11311Y30935*
X11350Y30943*
X11385Y30956*
X11416Y30975*
X11441Y30999*
X11462Y31028*
X11477Y31061*
X11486Y31097*
X11489Y31137*
X11484Y31191*
X11468Y31239*
X11443Y31281*
X11407Y31317*
X11353Y31350*
X11284Y31374*
X11202Y31389*
X11105Y31394*
X11019Y31389*
X10946Y31376*
X10886Y31355*
X10839Y31324*
X10804Y31287*
X10779Y31245*
X10764Y31198*
X10759Y31146*
X10761Y31114*
X11002Y31293D02*
X11002Y31293D01*
X10980Y31292*
X10958Y31288*
X10936Y31282*
X10915Y31274*
X10896Y31263*
X10879Y31251*
X10864Y31236*
X10852Y31220*
X10843Y31202*
X10836Y31184*
X10832Y31166*
X10830Y31147*
X10833Y31120*
X10842Y31095*
X10856Y31072*
X10875Y31051*
X10900Y31034*
X10928Y31021*
X10961Y31014*
X10997Y31011*
X11033Y31014*
X11064Y31021*
X11091Y31034*
X11114Y31051*
X11133Y31072*
X11146Y31095*
X11154Y31122*
X11157Y31150*
X11154Y31179*
X11146Y31205*
X11133Y31230*
X11114Y31251*
X11091Y31270*
X11065Y31283*
X11035Y31290*
X11002Y31293*
%LNtop silkscreen component 0fc97c50a163778b*%
D10*
X13453Y11070D02*
X13453Y21730D01*
X18148Y21730*
X18148Y11070*
X13453Y11070*
D11*
X13276Y21990D02*
X13276Y21990D01*
X13248Y22002*
X13248Y22002*
X13218Y22017*
X13218Y22017*
X13187Y22035*
X13187Y22035*
X13155Y22056*
X13155Y22057*
X13180Y22084*
X13202Y22114*
X13221Y22146*
X13236Y22180*
X13247Y22216*
X13256Y22255*
X13261Y22295*
X13263Y22338*
X13260Y22390*
X13252Y22439*
X13239Y22486*
X13221Y22529*
X13198Y22569*
X13170Y22605*
X13137Y22635*
X13100Y22661*
X13059Y22682*
X13015Y22696*
X12970Y22705*
X12921Y22708*
X12873Y22705*
X12828Y22697*
X12785Y22683*
X12744Y22663*
X12707Y22637*
X12674Y22607*
X12646Y22571*
X12622Y22531*
X12603Y22486*
X12590Y22439*
X12582Y22390*
X12579Y22338*
X12582Y22286*
X12590Y22237*
X12603Y22190*
X12622Y22147*
X12645Y22107*
X12673Y22071*
X12706Y22041*
X12743Y22015*
X12784Y21995*
X12827Y21980*
X12872Y21971*
X12919Y21968*
X12966Y21971*
X13011Y21979*
X13054Y21993*
X13095Y22013*
X13095Y22013*
X13134Y21985*
X13172Y21961*
X13211Y21941*
X13249Y21925*
X13276Y21990*
X12947Y22178D02*
X12947Y22178D01*
X12986Y22165*
X13021Y22149*
X13053Y22131*
X13082Y22109*
X13118Y22152*
X13145Y22205*
X13160Y22267*
X13165Y22338*
X13164Y22380*
X13158Y22420*
X13149Y22456*
X13136Y22490*
X13119Y22521*
X13099Y22548*
X13076Y22571*
X13049Y22591*
X13020Y22607*
X12989Y22618*
X12956Y22625*
X12922Y22627*
X12871Y22622*
X12825Y22609*
X12783Y22586*
X12746Y22554*
X12715Y22514*
X12694Y22464*
X12680Y22405*
X12676Y22338*
X12680Y22272*
X12693Y22214*
X12715Y22165*
X12745Y22124*
X12782Y22091*
X12824Y22068*
X12870Y22054*
X12922Y22049*
X12947Y22050*
X12971Y22054*
X12995Y22060*
X13017Y22068*
X12995Y22081*
X12972Y22093*
X12948Y22102*
X12924Y22109*
X12947Y22178*
X13816Y22064D02*
X13816Y22064D01*
X13465Y22064*
X13465Y22064*
X13473Y22077*
X13473Y22077*
X13482Y22089*
X13482Y22089*
X13492Y22101*
X13492Y22101*
X13502Y22112*
X13502Y22112*
X13517Y22127*
X13517Y22127*
X13539Y22147*
X13539Y22147*
X13568Y22172*
X13568Y22172*
X13604Y22203*
X13648Y22240*
X13685Y22274*
X13716Y22303*
X13739Y22328*
X13758Y22351*
X13774Y22373*
X13788Y22395*
X13798Y22416*
X13805Y22437*
X13811Y22458*
X13814Y22479*
X13815Y22500*
X13812Y22540*
X13800Y22577*
X13782Y22611*
X13755Y22641*
X13723Y22666*
X13685Y22684*
X13641Y22695*
X13593Y22698*
X13544Y22695*
X13501Y22685*
X13463Y22669*
X13430Y22645*
X13403Y22616*
X13383Y22581*
X13369Y22539*
X13361Y22492*
X13450Y22483*
X13453Y22514*
X13453Y22514*
X13460Y22543*
X13460Y22543*
X13472Y22567*
X13472Y22567*
X13489Y22588*
X13489Y22588*
X13509Y22605*
X13510Y22605*
X13533Y22617*
X13533Y22617*
X13560Y22624*
X13560Y22624*
X13591Y22627*
X13591Y22627*
X13619Y22624*
X13619Y22624*
X13645Y22618*
X13645Y22617*
X13668Y22606*
X13668Y22606*
X13688Y22590*
X13688Y22590*
X13705Y22571*
X13705Y22571*
X13717Y22550*
X13717Y22550*
X13724Y22527*
X13724Y22527*
X13726Y22502*
X13726Y22502*
X13723Y22477*
X13723Y22477*
X13716Y22450*
X13716Y22450*
X13703Y22424*
X13703Y22424*
X13685Y22396*
X13685Y22396*
X13660Y22365*
X13660Y22365*
X13625Y22330*
X13625Y22330*
X13581Y22290*
X13581Y22290*
X13527Y22244*
X13527Y22244*
X13492Y22214*
X13461Y22186*
X13434Y22160*
X13412Y22136*
X13394Y22112*
X13378Y22089*
X13365Y22065*
X13354Y22041*
X13350Y22026*
X13346Y22011*
X13344Y21996*
X13344Y21981*
X13816Y21981*
X13816Y22064*
D12*
X15800Y21988D03*
%LNtop silkscreen component e82071b529bd6739*%
D10*
X56825Y37780D02*
X56825Y48320D01*
X63125Y48320*
X63125Y37780*
X56825Y37780*
D11*
X56640Y49221D02*
X56640Y49221D01*
X56640Y49221*
X56642Y49242*
X56642Y49242*
X56644Y49259*
X56644Y49259*
X56647Y49273*
X56647Y49273*
X56650Y49284*
X56650Y49284*
X56655Y49295*
X56655Y49295*
X56660Y49305*
X56660Y49305*
X56666Y49314*
X56666Y49314*
X56675Y49325*
X56675Y49325*
X56687Y49337*
X56687Y49337*
X56703Y49353*
X56703Y49353*
X56723Y49370*
X56752Y49398*
X56776Y49423*
X56795Y49446*
X56808Y49467*
X56818Y49487*
X56825Y49508*
X56829Y49530*
X56830Y49553*
X56826Y49592*
X56815Y49628*
X56795Y49661*
X56768Y49691*
X56734Y49715*
X56695Y49733*
X56651Y49744*
X56601Y49748*
X56554Y49744*
X56512Y49734*
X56474Y49718*
X56442Y49694*
X56415Y49665*
X56394Y49630*
X56379Y49588*
X56370Y49542*
X56459Y49531*
X56466Y49566*
X56466Y49566*
X56477Y49596*
X56477Y49596*
X56491Y49621*
X56491Y49621*
X56508Y49641*
X56508Y49641*
X56528Y49656*
X56528Y49656*
X56551Y49667*
X56551Y49667*
X56575Y49674*
X56575Y49674*
X56602Y49676*
X56602Y49676*
X56630Y49674*
X56630Y49674*
X56656Y49667*
X56656Y49667*
X56680Y49654*
X56680Y49654*
X56701Y49637*
X56701Y49637*
X56718Y49617*
X56718Y49617*
X56731Y49595*
X56731Y49595*
X56739Y49572*
X56739Y49572*
X56741Y49547*
X56741Y49547*
X56740Y49533*
X56740Y49533*
X56738Y49520*
X56738Y49519*
X56733Y49507*
X56733Y49507*
X56727Y49494*
X56727Y49494*
X56718Y49481*
X56718Y49481*
X56706Y49466*
X56706Y49466*
X56689Y49449*
X56689Y49449*
X56668Y49430*
X56668Y49430*
X56647Y49411*
X56629Y49395*
X56615Y49380*
X56605Y49369*
X56594Y49354*
X56584Y49340*
X56576Y49326*
X56570Y49312*
X56564Y49292*
X56559Y49271*
X56556Y49248*
X56555Y49223*
X56556Y49218*
X56556Y49212*
X56556Y49205*
X56556Y49197*
X56639Y49197*
X56640Y49221*
X56650Y49120D02*
X56650Y49120D01*
X56551Y49120*
X56551Y49021*
X56650Y49021*
X56650Y49120*
X57201Y49012D02*
X57201Y49012D01*
X57246Y49024*
X57287Y49044*
X57323Y49073*
X57353Y49107*
X57374Y49145*
X57387Y49186*
X57391Y49231*
X57389Y49265*
X57383Y49295*
X57372Y49322*
X57356Y49347*
X57337Y49368*
X57314Y49385*
X57288Y49398*
X57258Y49407*
X57258Y49408*
X57281Y49420*
X57301Y49434*
X57318Y49451*
X57331Y49469*
X57342Y49488*
X57350Y49509*
X57355Y49530*
X57356Y49553*
X57355Y49577*
X57350Y49600*
X57342Y49623*
X57330Y49645*
X57316Y49665*
X57298Y49684*
X57278Y49699*
X57255Y49713*
X57230Y49724*
X57203Y49732*
X57176Y49737*
X57147Y49738*
X57107Y49735*
X57069Y49726*
X57036Y49711*
X57006Y49690*
X56980Y49663*
X56959Y49631*
X56943Y49595*
X56933Y49554*
X57019Y49538*
X57026Y49568*
X57026Y49568*
X57035Y49594*
X57035Y49594*
X57048Y49616*
X57048Y49616*
X57063Y49635*
X57063Y49635*
X57082Y49649*
X57082Y49649*
X57102Y49659*
X57102Y49659*
X57125Y49665*
X57125Y49665*
X57149Y49667*
X57149Y49667*
X57174Y49665*
X57174Y49665*
X57196Y49659*
X57196Y49659*
X57216Y49649*
X57216Y49649*
X57234Y49635*
X57234Y49635*
X57248Y49618*
X57248Y49618*
X57259Y49599*
X57259Y49599*
X57265Y49578*
X57265Y49578*
X57267Y49555*
X57267Y49555*
X57264Y49526*
X57264Y49526*
X57256Y49501*
X57256Y49501*
X57242Y49481*
X57241Y49481*
X57222Y49464*
X57222Y49464*
X57199Y49451*
X57199Y49451*
X57174Y49442*
X57174Y49442*
X57148Y49436*
X57148Y49436*
X57120Y49435*
X57120Y49435*
X57118Y49435*
X57117Y49435*
X57114Y49435*
X57114Y49435*
X57110Y49435*
X57110Y49435*
X57107Y49435*
X57097Y49360*
X57114Y49364*
X57114Y49364*
X57130Y49367*
X57130Y49367*
X57145Y49369*
X57145Y49369*
X57158Y49369*
X57159Y49369*
X57188Y49367*
X57188Y49367*
X57214Y49359*
X57214Y49359*
X57238Y49347*
X57238Y49347*
X57259Y49330*
X57259Y49330*
X57277Y49309*
X57277Y49309*
X57289Y49285*
X57289Y49285*
X57297Y49259*
X57297Y49258*
X57299Y49229*
X57299Y49229*
X57296Y49199*
X57296Y49199*
X57288Y49171*
X57288Y49171*
X57275Y49146*
X57275Y49145*
X57256Y49123*
X57256Y49123*
X57234Y49104*
X57234Y49104*
X57209Y49090*
X57209Y49090*
X57181Y49082*
X57181Y49082*
X57151Y49080*
X57151Y49080*
X57126Y49082*
X57126Y49082*
X57103Y49088*
X57103Y49088*
X57081Y49098*
X57081Y49098*
X57062Y49113*
X57062Y49113*
X57045Y49132*
X57045Y49132*
X57031Y49156*
X57031Y49156*
X57019Y49186*
X57019Y49186*
X57011Y49220*
X56924Y49209*
X56931Y49166*
X56946Y49128*
X56967Y49094*
X56995Y49064*
X57028Y49039*
X57065Y49022*
X57106Y49011*
X57151Y49008*
X57201Y49012*
X57809Y49738D02*
X57809Y49738D01*
X57754Y49738*
X57740Y49715*
X57740Y49715*
X57723Y49691*
X57723Y49691*
X57701Y49667*
X57701Y49667*
X57675Y49643*
X57675Y49643*
X57647Y49619*
X57647Y49619*
X57616Y49597*
X57616Y49597*
X57582Y49577*
X57582Y49577*
X57547Y49559*
X57547Y49475*
X57567Y49483*
X57590Y49493*
X57613Y49506*
X57638Y49520*
X57663Y49535*
X57685Y49550*
X57705Y49565*
X57722Y49581*
X57722Y49580*
X57722Y49021*
X57809Y49021*
X57809Y49738*
D12*
X56075Y46860D03*
%LNtop silkscreen component 946008f2f507596d*%
D10*
X30625Y35025D02*
X28225Y35025D01*
X28225Y41325*
X30625Y41325*
X30625Y35025*
X29425Y35025D02*
X29425Y35565D01*
X29425Y41325D02*
X29425Y40785D01*
D13*
X30555Y36600D02*
X28295Y36600D01*
D11*
X27112Y33238D02*
X27112Y33238D01*
X27111Y33238*
X27111Y33348*
X27111Y33348*
X27111Y33365*
X27111Y33365*
X27112Y33380*
X27112Y33380*
X27113Y33392*
X27113Y33392*
X27115Y33401*
X27115Y33401*
X27118Y33412*
X27118Y33412*
X27122Y33423*
X27122Y33423*
X27127Y33434*
X27127Y33434*
X27134Y33444*
X27134Y33444*
X27142Y33455*
X27142Y33455*
X27153Y33467*
X27153Y33467*
X27166Y33480*
X27166Y33480*
X27182Y33493*
X27182Y33493*
X27201Y33507*
X27201Y33507*
X27223Y33523*
X27224Y33523*
X27250Y33541*
X27250Y33541*
X27280Y33561*
X27280Y33561*
X27429Y33656*
X27429Y33774*
X27235Y33650*
X27208Y33631*
X27183Y33611*
X27160Y33591*
X27140Y33571*
X27131Y33560*
X27122Y33547*
X27113Y33532*
X27104Y33514*
X27103Y33514*
X27094Y33562*
X27080Y33604*
X27061Y33638*
X27037Y33666*
X27010Y33688*
X26979Y33703*
X26946Y33712*
X26909Y33715*
X26880Y33714*
X26853Y33708*
X26826Y33699*
X26801Y33686*
X26779Y33670*
X26760Y33651*
X26745Y33630*
X26734Y33606*
X26725Y33579*
X26719Y33545*
X26715Y33506*
X26714Y33461*
X26714Y33144*
X27429Y33144*
X27429Y33238*
X27112Y33238*
X27030Y33238D02*
X27030Y33238D01*
X27030Y33442*
X27029Y33473*
X27026Y33500*
X27022Y33523*
X27016Y33544*
X27009Y33561*
X26999Y33576*
X26987Y33589*
X26973Y33599*
X26958Y33608*
X26942Y33613*
X26926Y33617*
X26909Y33618*
X26885Y33616*
X26863Y33609*
X26843Y33597*
X26826Y33581*
X26811Y33560*
X26801Y33534*
X26795Y33502*
X26793Y33465*
X26793Y33238*
X27030Y33238*
X26711Y34159D02*
X26711Y34159D01*
X26711Y34103*
X26734Y34090*
X26735Y34090*
X26758Y34072*
X26758Y34072*
X26782Y34051*
X26782Y34051*
X26807Y34025*
X26807Y34025*
X26831Y33997*
X26831Y33997*
X26853Y33965*
X26853Y33965*
X26873Y33932*
X26873Y33932*
X26891Y33897*
X26975Y33897*
X26967Y33917*
X26956Y33939*
X26944Y33963*
X26930Y33988*
X26915Y34013*
X26899Y34035*
X26884Y34054*
X26869Y34072*
X26869Y34072*
X27429Y34072*
X27429Y34159*
X26711Y34159*
X27439Y34637D02*
X27439Y34637D01*
X27431Y34673*
X27417Y34706*
X27399Y34737*
X27375Y34764*
X27347Y34788*
X27314Y34809*
X27275Y34825*
X27231Y34838*
X27180Y34848*
X27122Y34853*
X27057Y34855*
X26995Y34853*
X26941Y34848*
X26894Y34838*
X26856Y34825*
X26823Y34808*
X26794Y34788*
X26770Y34764*
X26749Y34737*
X26732Y34708*
X26721Y34677*
X26714Y34644*
X26711Y34610*
X26716Y34564*
X26728Y34522*
X26749Y34483*
X26778Y34449*
X26813Y34421*
X26854Y34401*
X26901Y34389*
X26953Y34385*
X27003Y34389*
X27048Y34401*
X27087Y34420*
X27122Y34447*
X27150Y34479*
X27170Y34515*
X27182Y34554*
X27186Y34597*
X27185Y34623*
X27180Y34648*
X27172Y34672*
X27160Y34695*
X27146Y34717*
X27130Y34736*
X27112Y34753*
X27092Y34767*
X27092Y34768*
X27098Y34768*
X27098Y34768*
X27103Y34769*
X27103Y34769*
X27107Y34769*
X27107Y34769*
X27110Y34769*
X27110Y34769*
X27138Y34768*
X27138Y34768*
X27165Y34765*
X27165Y34765*
X27191Y34761*
X27191Y34761*
X27218Y34755*
X27218Y34755*
X27243Y34748*
X27243Y34748*
X27265Y34741*
X27265Y34741*
X27285Y34732*
X27285Y34732*
X27302Y34723*
X27302Y34723*
X27316Y34712*
X27316Y34712*
X27330Y34700*
X27330Y34700*
X27341Y34687*
X27341Y34687*
X27351Y34672*
X27351Y34672*
X27360Y34657*
X27360Y34656*
X27365Y34639*
X27365Y34639*
X27369Y34621*
X27369Y34621*
X27370Y34601*
X27370Y34601*
X27368Y34578*
X27368Y34578*
X27363Y34558*
X27363Y34558*
X27355Y34539*
X27355Y34539*
X27343Y34523*
X27343Y34523*
X27328Y34509*
X27327Y34509*
X27308Y34498*
X27308Y34498*
X27284Y34489*
X27284Y34489*
X27257Y34482*
X27265Y34399*
X27304Y34407*
X27339Y34420*
X27369Y34438*
X27395Y34462*
X27415Y34491*
X27430Y34523*
X27438Y34559*
X27441Y34599*
X27439Y34637*
X26948Y34758D02*
X26948Y34758D01*
X26912Y34755*
X26880Y34748*
X26852Y34735*
X26828Y34718*
X26809Y34696*
X26795Y34673*
X26786Y34648*
X26784Y34621*
X26787Y34592*
X26796Y34566*
X26811Y34541*
X26831Y34519*
X26857Y34500*
X26886Y34486*
X26919Y34478*
X26955Y34475*
X26988Y34478*
X27017Y34485*
X27044Y34498*
X27067Y34516*
X27085Y34538*
X27099Y34563*
X27107Y34589*
X27109Y34618*
X27107Y34647*
X27099Y34674*
X27085Y34698*
X27067Y34719*
X27043Y34736*
X27016Y34748*
X26984Y34755*
X26948Y34758*
%LNtop silkscreen component 4347c57bd1fec9ce*%
D10*
X27177Y11070D02*
X27177Y21730D01*
X31872Y21730*
X31872Y11070*
X27177Y11070*
D11*
X27001Y21990D02*
X27001Y21990D01*
X26973Y22002*
X26973Y22002*
X26943Y22017*
X26943Y22017*
X26912Y22035*
X26912Y22035*
X26880Y22056*
X26880Y22057*
X26905Y22084*
X26927Y22114*
X26946Y22146*
X26961Y22180*
X26972Y22216*
X26981Y22255*
X26986Y22295*
X26988Y22338*
X26985Y22390*
X26977Y22439*
X26964Y22486*
X26946Y22529*
X26923Y22569*
X26895Y22605*
X26862Y22635*
X26825Y22661*
X26784Y22682*
X26740Y22696*
X26695Y22705*
X26646Y22708*
X26598Y22705*
X26553Y22697*
X26510Y22683*
X26469Y22663*
X26432Y22637*
X26399Y22607*
X26371Y22571*
X26347Y22531*
X26328Y22486*
X26315Y22439*
X26307Y22390*
X26304Y22338*
X26307Y22286*
X26315Y22237*
X26328Y22190*
X26347Y22147*
X26370Y22107*
X26398Y22071*
X26431Y22041*
X26468Y22015*
X26509Y21995*
X26552Y21980*
X26597Y21971*
X26644Y21968*
X26691Y21971*
X26736Y21979*
X26779Y21993*
X26820Y22013*
X26820Y22013*
X26859Y21985*
X26897Y21961*
X26936Y21941*
X26974Y21925*
X27001Y21990*
X26672Y22178D02*
X26672Y22178D01*
X26711Y22165*
X26746Y22149*
X26778Y22131*
X26807Y22109*
X26843Y22152*
X26870Y22205*
X26885Y22267*
X26890Y22338*
X26889Y22380*
X26883Y22420*
X26874Y22456*
X26861Y22490*
X26844Y22521*
X26824Y22548*
X26801Y22571*
X26774Y22591*
X26745Y22607*
X26714Y22618*
X26681Y22625*
X26647Y22627*
X26596Y22622*
X26550Y22609*
X26508Y22586*
X26471Y22554*
X26440Y22514*
X26419Y22464*
X26405Y22405*
X26401Y22338*
X26405Y22272*
X26418Y22214*
X26440Y22165*
X26470Y22124*
X26507Y22091*
X26549Y22068*
X26595Y22054*
X26647Y22049*
X26672Y22050*
X26696Y22054*
X26720Y22060*
X26742Y22068*
X26720Y22081*
X26697Y22093*
X26673Y22102*
X26649Y22109*
X26672Y22178*
X27366Y21974D02*
X27366Y21974D01*
X27416Y21990*
X27460Y22017*
X27497Y22055*
X27522Y22092*
X27540Y22132*
X27550Y22176*
X27554Y22223*
X27550Y22271*
X27538Y22315*
X27518Y22355*
X27490Y22389*
X27456Y22418*
X27418Y22438*
X27377Y22450*
X27332Y22454*
X27297Y22451*
X27263Y22443*
X27229Y22429*
X27197Y22409*
X27196Y22409*
X27235Y22602*
X27235Y22603*
X27520Y22603*
X27520Y22686*
X27165Y22686*
X27096Y22319*
X27178Y22308*
X27188Y22323*
X27188Y22323*
X27201Y22336*
X27201Y22336*
X27215Y22348*
X27215Y22348*
X27231Y22358*
X27231Y22358*
X27249Y22367*
X27249Y22367*
X27268Y22373*
X27268Y22373*
X27288Y22376*
X27288Y22376*
X27308Y22377*
X27308Y22377*
X27341Y22375*
X27341Y22375*
X27370Y22367*
X27370Y22367*
X27396Y22353*
X27397Y22353*
X27419Y22334*
X27419Y22334*
X27438Y22310*
X27438Y22310*
X27451Y22282*
X27451Y22282*
X27459Y22251*
X27459Y22251*
X27462Y22215*
X27462Y22215*
X27459Y22177*
X27459Y22177*
X27451Y22143*
X27451Y22143*
X27437Y22114*
X27437Y22114*
X27418Y22088*
X27418Y22088*
X27394Y22067*
X27394Y22067*
X27369Y22052*
X27369Y22052*
X27340Y22043*
X27340Y22043*
X27310Y22040*
X27310Y22040*
X27284Y22042*
X27284Y22042*
X27261Y22048*
X27261Y22048*
X27239Y22059*
X27239Y22059*
X27219Y22074*
X27219Y22074*
X27202Y22093*
X27202Y22093*
X27189Y22116*
X27189Y22116*
X27178Y22144*
X27178Y22144*
X27172Y22175*
X27080Y22167*
X27088Y22125*
X27102Y22086*
X27123Y22052*
X27151Y22023*
X27184Y21999*
X27221Y21982*
X27263Y21972*
X27310Y21968*
X27366Y21974*
D12*
X29525Y21988D03*
%LNtext*%
D11*
X53033Y47312D02*
X53033Y47312D01*
X52962Y47312*
X52945Y47283*
X52945Y47283*
X52922Y47253*
X52922Y47253*
X52895Y47222*
X52895Y47222*
X52862Y47191*
X52862Y47191*
X52826Y47161*
X52826Y47161*
X52786Y47133*
X52786Y47133*
X52744Y47107*
X52744Y47107*
X52699Y47084*
X52699Y46977*
X52725Y46988*
X52753Y47001*
X52784Y47017*
X52816Y47035*
X52847Y47054*
X52875Y47073*
X52899Y47092*
X52921Y47112*
X52922Y47112*
X52922Y46401*
X53033Y46401*
X53033Y47312*
X53905Y46507D02*
X53905Y46507D01*
X53459Y46507*
X53459Y46507*
X53469Y46523*
X53469Y46523*
X53480Y46538*
X53480Y46538*
X53493Y46553*
X53493Y46553*
X53507Y46568*
X53507Y46568*
X53525Y46587*
X53525Y46587*
X53553Y46612*
X53553Y46612*
X53590Y46644*
X53590Y46644*
X53636Y46683*
X53691Y46731*
X53739Y46773*
X53777Y46811*
X53808Y46842*
X53832Y46871*
X53852Y46899*
X53869Y46927*
X53882Y46953*
X53891Y46980*
X53898Y47006*
X53903Y47033*
X53904Y47060*
X53899Y47112*
X53885Y47159*
X53861Y47202*
X53828Y47240*
X53786Y47272*
X53738Y47294*
X53683Y47308*
X53621Y47312*
X53560Y47308*
X53505Y47296*
X53457Y47275*
X53415Y47245*
X53381Y47208*
X53354Y47163*
X53336Y47110*
X53326Y47050*
X53440Y47039*
X53443Y47079*
X53443Y47079*
X53453Y47115*
X53453Y47115*
X53468Y47146*
X53468Y47146*
X53489Y47172*
X53489Y47172*
X53515Y47194*
X53516Y47194*
X53546Y47209*
X53546Y47209*
X53580Y47218*
X53580Y47218*
X53619Y47221*
X53619Y47221*
X53655Y47218*
X53655Y47218*
X53688Y47210*
X53688Y47209*
X53717Y47195*
X53717Y47195*
X53743Y47175*
X53743Y47175*
X53763Y47151*
X53763Y47151*
X53778Y47124*
X53778Y47124*
X53787Y47095*
X53787Y47095*
X53790Y47063*
X53790Y47063*
X53787Y47031*
X53787Y47031*
X53777Y46998*
X53777Y46998*
X53761Y46963*
X53761Y46963*
X53738Y46928*
X53738Y46928*
X53706Y46890*
X53706Y46890*
X53662Y46845*
X53662Y46845*
X53606Y46793*
X53606Y46793*
X53538Y46736*
X53538Y46736*
X53493Y46698*
X53453Y46662*
X53420Y46629*
X53392Y46598*
X53368Y46568*
X53348Y46538*
X53331Y46508*
X53318Y46477*
X53312Y46459*
X53308Y46439*
X53306Y46420*
X53305Y46401*
X53905Y46401*
X53905Y46507*
X54809Y47309D02*
X54809Y47309D01*
X54687Y47309*
X54442Y46648*
X54428Y46611*
X54416Y46574*
X54404Y46537*
X54393Y46499*
X54392Y46499*
X54382Y46535*
X54370Y46572*
X54358Y46609*
X54344Y46648*
X54108Y47309*
X53979Y47309*
X54331Y46401*
X54454Y46401*
X54809Y47309*
X47433Y17792D02*
X47433Y17792D01*
X47362Y17792*
X47345Y17763*
X47345Y17763*
X47322Y17733*
X47322Y17733*
X47295Y17702*
X47295Y17702*
X47262Y17671*
X47262Y17671*
X47226Y17641*
X47226Y17641*
X47186Y17613*
X47186Y17613*
X47144Y17587*
X47144Y17587*
X47099Y17564*
X47099Y17457*
X47125Y17468*
X47153Y17481*
X47184Y17497*
X47216Y17515*
X47247Y17534*
X47275Y17553*
X47299Y17572*
X47321Y17592*
X47322Y17592*
X47322Y16881*
X47433Y16881*
X47433Y17792*
X48305Y16987D02*
X48305Y16987D01*
X47859Y16987*
X47859Y16987*
X47869Y17003*
X47869Y17003*
X47880Y17018*
X47880Y17018*
X47893Y17033*
X47893Y17033*
X47907Y17048*
X47907Y17048*
X47925Y17067*
X47925Y17067*
X47953Y17092*
X47953Y17092*
X47990Y17124*
X47990Y17124*
X48036Y17163*
X48091Y17211*
X48139Y17253*
X48177Y17291*
X48208Y17322*
X48232Y17351*
X48252Y17379*
X48269Y17407*
X48282Y17433*
X48291Y17460*
X48298Y17486*
X48303Y17513*
X48304Y17540*
X48299Y17592*
X48285Y17639*
X48261Y17682*
X48228Y17720*
X48186Y17752*
X48138Y17774*
X48083Y17788*
X48021Y17792*
X47960Y17788*
X47905Y17776*
X47857Y17755*
X47815Y17725*
X47781Y17688*
X47754Y17643*
X47736Y17590*
X47726Y17530*
X47840Y17519*
X47843Y17559*
X47843Y17559*
X47853Y17595*
X47853Y17595*
X47868Y17626*
X47868Y17626*
X47889Y17652*
X47889Y17652*
X47915Y17674*
X47916Y17674*
X47946Y17689*
X47946Y17689*
X47980Y17698*
X47980Y17698*
X48019Y17701*
X48019Y17701*
X48055Y17698*
X48055Y17698*
X48088Y17690*
X48088Y17689*
X48117Y17675*
X48117Y17675*
X48143Y17655*
X48143Y17655*
X48163Y17631*
X48163Y17631*
X48178Y17604*
X48178Y17604*
X48187Y17575*
X48187Y17575*
X48190Y17543*
X48190Y17543*
X48187Y17511*
X48187Y17511*
X48177Y17478*
X48177Y17478*
X48161Y17443*
X48161Y17443*
X48138Y17408*
X48138Y17408*
X48106Y17370*
X48106Y17370*
X48062Y17325*
X48062Y17325*
X48006Y17273*
X48006Y17273*
X47938Y17216*
X47938Y17216*
X47893Y17178*
X47853Y17142*
X47820Y17109*
X47792Y17078*
X47768Y17048*
X47748Y17018*
X47731Y16988*
X47718Y16957*
X47712Y16939*
X47708Y16919*
X47706Y16900*
X47705Y16881*
X48305Y16881*
X48305Y16987*
X49209Y17789D02*
X49209Y17789D01*
X49087Y17789*
X48842Y17128*
X48828Y17091*
X48816Y17054*
X48804Y17017*
X48793Y16979*
X48792Y16979*
X48782Y17015*
X48770Y17052*
X48758Y17089*
X48744Y17128*
X48508Y17789*
X48379Y17789*
X48731Y16881*
X48854Y16881*
X49209Y17789*
X36961Y43601D02*
X36961Y43601D01*
X37000Y43604*
X37035Y43609*
X37066Y43616*
X37095Y43624*
X37121Y43634*
X37144Y43647*
X37166Y43661*
X37185Y43677*
X37202Y43697*
X37218Y43719*
X37232Y43745*
X37244Y43773*
X37252Y43802*
X37257Y43832*
X37259Y43864*
X37256Y43902*
X37248Y43937*
X37234Y43971*
X37215Y44001*
X37190Y44028*
X37161Y44051*
X37127Y44069*
X37088Y44083*
X37088Y44084*
X37118Y44101*
X37144Y44121*
X37166Y44143*
X37183Y44167*
X37197Y44193*
X37207Y44220*
X37213Y44248*
X37215Y44277*
X37213Y44307*
X37206Y44338*
X37195Y44367*
X37179Y44396*
X37160Y44423*
X37137Y44446*
X37111Y44465*
X37081Y44481*
X37047Y44493*
X37008Y44502*
X36964Y44507*
X36914Y44509*
X36574Y44509*
X36574Y43601*
X36920Y43601*
X36961Y43601*
X36693Y44127D02*
X36693Y44127D01*
X36890Y44127*
X36927Y44128*
X36959Y44130*
X36984Y44133*
X37005Y44138*
X37026Y44146*
X37045Y44156*
X37061Y44168*
X37074Y44183*
X37084Y44200*
X37091Y44219*
X37096Y44239*
X37097Y44262*
X37096Y44284*
X37092Y44305*
X37085Y44324*
X37075Y44342*
X37063Y44358*
X37049Y44371*
X37032Y44381*
X37013Y44389*
X36990Y44395*
X36959Y44399*
X36920Y44401*
X36875Y44402*
X36693Y44402*
X36693Y44127*
X36693Y43707D02*
X36693Y43707D01*
X36920Y43707*
X36947Y43708*
X36969Y43708*
X36988Y43710*
X37002Y43712*
X37021Y43716*
X37040Y43722*
X37056Y43728*
X37071Y43736*
X37084Y43746*
X37096Y43758*
X37107Y43771*
X37117Y43787*
X37125Y43804*
X37130Y43823*
X37134Y43842*
X37135Y43864*
X37133Y43888*
X37128Y43911*
X37120Y43932*
X37109Y43952*
X37095Y43969*
X37078Y43984*
X37058Y43996*
X37037Y44005*
X37011Y44011*
X36980Y44016*
X36944Y44019*
X36904Y44020*
X36693Y44020*
X36693Y43707*
X37776Y44402D02*
X37776Y44402D01*
X37776Y44402*
X38077Y44402*
X38077Y44509*
X37357Y44509*
X37357Y44402*
X37657Y44402*
X37657Y44402*
X37657Y43601*
X37776Y43601*
X37776Y44402*
X38915Y44509D02*
X38915Y44509D01*
X38801Y44509*
X38801Y43795*
X38800Y43795*
X38323Y44509*
X38200Y44509*
X38200Y43601*
X38314Y43601*
X38314Y44315*
X38315Y44315*
X38793Y43601*
X38915Y43601*
X38915Y44509*
X39740Y43428D02*
X39740Y43428D01*
X39001Y43428*
X39001Y43348*
X39740Y43348*
X39740Y43428*
X40387Y43707D02*
X40387Y43707D01*
X39939Y43707*
X39939Y43707*
X39939Y44509*
X39820Y44509*
X39820Y43601*
X40387Y43601*
X40387Y43707*
X41211Y43707D02*
X41211Y43707D01*
X40653Y43707*
X40653Y43707*
X40653Y44017*
X40653Y44017*
X41156Y44017*
X41156Y44123*
X40653Y44123*
X40653Y44123*
X40653Y44402*
X40653Y44402*
X41190Y44402*
X41190Y44509*
X40534Y44509*
X40534Y43601*
X41211Y43601*
X41211Y43707*
X41746Y43601D02*
X41746Y43601D01*
X41783Y43604*
X41819Y43609*
X41852Y43616*
X41882Y43625*
X41911Y43635*
X41936Y43647*
X41960Y43662*
X41982Y43678*
X42003Y43697*
X42023Y43719*
X42043Y43744*
X42061Y43772*
X42077Y43803*
X42092Y43838*
X42105Y43876*
X42115Y43918*
X42123Y43962*
X42127Y44009*
X42129Y44060*
X42127Y44119*
X42120Y44174*
X42109Y44227*
X42093Y44275*
X42073Y44321*
X42049Y44361*
X42019Y44398*
X41986Y44431*
X41957Y44452*
X41925Y44470*
X41890Y44485*
X41853Y44496*
X41822Y44501*
X41784Y44505*
X41741Y44508*
X41691Y44509*
X41378Y44509*
X41378Y43601*
X41706Y43601*
X41746Y43601*
X41498Y43707D02*
X41498Y43707D01*
X41692Y43707*
X41735Y43708*
X41772Y43711*
X41805Y43717*
X41833Y43724*
X41857Y43733*
X41879Y43744*
X41898Y43757*
X41915Y43771*
X41935Y43794*
X41953Y43821*
X41968Y43852*
X41981Y43886*
X41992Y43924*
X41999Y43966*
X42004Y44012*
X42005Y44061*
X42002Y44129*
X41994Y44187*
X41979Y44238*
X41958Y44281*
X41934Y44316*
X41907Y44345*
X41877Y44367*
X41845Y44383*
X41817Y44391*
X41782Y44397*
X41739Y44401*
X41689Y44402*
X41498Y44402*
X41498Y43707*
X46981Y7707D02*
X46981Y7707D01*
X46533Y7707*
X46533Y7707*
X46533Y8509*
X46414Y8509*
X46414Y7601*
X46981Y7601*
X46981Y7707*
X47805Y7707D02*
X47805Y7707D01*
X47247Y7707*
X47247Y7707*
X47247Y8017*
X47247Y8017*
X47749Y8017*
X47749Y8123*
X47247Y8123*
X47247Y8123*
X47247Y8402*
X47247Y8402*
X47784Y8402*
X47784Y8509*
X47127Y8509*
X47127Y7601*
X47805Y7601*
X47805Y7707*
X48339Y7601D02*
X48339Y7601D01*
X48377Y7604*
X48412Y7609*
X48445Y7616*
X48476Y7625*
X48504Y7635*
X48530Y7647*
X48554Y7662*
X48576Y7678*
X48597Y7697*
X48617Y7719*
X48636Y7744*
X48654Y7772*
X48671Y7803*
X48685Y7838*
X48698Y7876*
X48709Y7918*
X48716Y7962*
X48721Y8009*
X48722Y8060*
X48720Y8119*
X48714Y8174*
X48702Y8227*
X48687Y8275*
X48667Y8321*
X48642Y8361*
X48613Y8398*
X48579Y8431*
X48550Y8452*
X48519Y8470*
X48484Y8485*
X48446Y8496*
X48415Y8501*
X48378Y8505*
X48334Y8508*
X48285Y8509*
X47972Y8509*
X47972Y7601*
X48299Y7601*
X48339Y7601*
X48092Y7707D02*
X48092Y7707D01*
X48286Y7707*
X48328Y7708*
X48366Y7711*
X48399Y7717*
X48427Y7724*
X48451Y7733*
X48473Y7744*
X48492Y7757*
X48508Y7771*
X48529Y7794*
X48546Y7821*
X48562Y7852*
X48575Y7886*
X48586Y7924*
X48593Y7966*
X48597Y8012*
X48599Y8061*
X48596Y8129*
X48587Y8187*
X48573Y8238*
X48552Y8281*
X48527Y8316*
X48500Y8345*
X48471Y8367*
X48438Y8383*
X48410Y8391*
X48375Y8397*
X48333Y8401*
X48283Y8402*
X48092Y8402*
X48092Y7707*
X49511Y7428D02*
X49511Y7428D01*
X48772Y7428*
X48772Y7348*
X49511Y7348*
X49511Y7428*
X50309Y8509D02*
X50309Y8509D01*
X50195Y8509*
X50195Y7795*
X50194Y7795*
X49717Y8509*
X49594Y8509*
X49594Y7601*
X49708Y7601*
X49708Y8315*
X49709Y8315*
X50187Y7601*
X50309Y7601*
X50309Y8509*
X51192Y7707D02*
X51192Y7707D01*
X50635Y7707*
X50634Y7707*
X50634Y8017*
X50635Y8017*
X51137Y8017*
X51137Y8123*
X50635Y8123*
X50634Y8123*
X50634Y8402*
X50635Y8402*
X51171Y8402*
X51171Y8509*
X50515Y8509*
X50515Y7601*
X51192Y7601*
X51192Y7707*
X51842Y7587D02*
X51842Y7587D01*
X51891Y7594*
X51939Y7605*
X51987Y7621*
X52033Y7641*
X52079Y7665*
X52125Y7694*
X52169Y7727*
X52169Y8063*
X51785Y8063*
X51785Y7957*
X52052Y7957*
X52052Y7957*
X52052Y7787*
X52052Y7787*
X52031Y7770*
X52031Y7770*
X52005Y7754*
X52005Y7754*
X51974Y7738*
X51974Y7738*
X51939Y7723*
X51939Y7723*
X51902Y7709*
X51902Y7709*
X51864Y7700*
X51864Y7700*
X51825Y7694*
X51825Y7694*
X51786Y7693*
X51786Y7693*
X51742Y7695*
X51742Y7695*
X51699Y7702*
X51699Y7702*
X51657Y7715*
X51657Y7715*
X51616Y7732*
X51616Y7732*
X51579Y7755*
X51579Y7755*
X51546Y7783*
X51546Y7783*
X51518Y7816*
X51518Y7816*
X51494Y7854*
X51494Y7854*
X51476Y7897*
X51476Y7898*
X51463Y7946*
X51463Y7946*
X51455Y7999*
X51455Y7999*
X51452Y8058*
X51452Y8058*
X51454Y8106*
X51454Y8106*
X51461Y8153*
X51461Y8153*
X51472Y8198*
X51472Y8198*
X51487Y8241*
X51487Y8241*
X51498Y8265*
X51498Y8265*
X51512Y8288*
X51512Y8288*
X51527Y8310*
X51527Y8310*
X51544Y8331*
X51545Y8331*
X51564Y8350*
X51564Y8350*
X51587Y8368*
X51587Y8368*
X51613Y8383*
X51613Y8383*
X51642Y8397*
X51642Y8397*
X51673Y8408*
X51673Y8408*
X51708Y8416*
X51708Y8416*
X51745Y8421*
X51745Y8421*
X51785Y8422*
X51785Y8422*
X51818Y8421*
X51818Y8421*
X51850Y8416*
X51850Y8416*
X51881Y8409*
X51881Y8409*
X51910Y8398*
X51910Y8398*
X51937Y8385*
X51937Y8385*
X51960Y8370*
X51960Y8370*
X51980Y8353*
X51980Y8353*
X51997Y8335*
X51997Y8335*
X52012Y8313*
X52012Y8313*
X52025Y8287*
X52025Y8287*
X52037Y8258*
X52037Y8258*
X52048Y8226*
X52155Y8255*
X52142Y8298*
X52127Y8338*
X52108Y8373*
X52087Y8403*
X52062Y8430*
X52033Y8454*
X52000Y8475*
X51962Y8492*
X51921Y8506*
X51878Y8516*
X51832Y8522*
X51784Y8524*
X51718Y8521*
X51656Y8510*
X51598Y8493*
X51544Y8468*
X51495Y8437*
X51452Y8398*
X51415Y8351*
X51385Y8298*
X51360Y8239*
X51343Y8178*
X51333Y8115*
X51329Y8050*
X51333Y7985*
X51343Y7923*
X51361Y7864*
X51385Y7808*
X51416Y7757*
X51454Y7712*
X51499Y7674*
X51550Y7642*
X51606Y7617*
X51666Y7599*
X51728Y7589*
X51793Y7585*
X51842Y7587*
X2091Y24327D02*
X2091Y24327D01*
X2091Y24198*
X2999Y23849*
X2999Y23976*
X2724Y24075*
X2724Y24076*
X2724Y24456*
X2724Y24456*
X2999Y24562*
X2999Y24698*
X2091Y24327*
X2375Y24323D02*
X2375Y24323D01*
X2375Y24323*
X2320Y24303*
X2320Y24303*
X2271Y24285*
X2271Y24285*
X2226Y24271*
X2226Y24271*
X2188Y24259*
X2230Y24250*
X2230Y24250*
X2274Y24239*
X2274Y24239*
X2317Y24226*
X2317Y24226*
X2360Y24211*
X2360Y24211*
X2626Y24111*
X2626Y24418*
X2375Y24323*
X2655Y24891D02*
X2655Y24891D01*
X2655Y24891*
X2621Y24892*
X2621Y24892*
X2587Y24895*
X2587Y24895*
X2555Y24901*
X2555Y24901*
X2525Y24909*
X2525Y24909*
X2506Y24917*
X2506Y24917*
X2490Y24926*
X2490Y24926*
X2476Y24937*
X2476Y24937*
X2464Y24951*
X2463Y24951*
X2454Y24966*
X2454Y24966*
X2447Y24982*
X2447Y24982*
X2443Y24999*
X2443Y24999*
X2441Y25017*
X2441Y25017*
X2443Y25038*
X2443Y25038*
X2447Y25058*
X2447Y25058*
X2455Y25079*
X2455Y25079*
X2465Y25099*
X2363Y25137*
X2347Y25108*
X2336Y25079*
X2329Y25051*
X2327Y25023*
X2328Y25004*
X2333Y24985*
X2340Y24968*
X2349Y24951*
X2363Y24935*
X2383Y24917*
X2409Y24899*
X2442Y24880*
X2442Y24880*
X2342Y24880*
X2342Y24780*
X2999Y24780*
X2999Y24891*
X2655Y24891*
X2640Y25315D02*
X2640Y25315D01*
X2640Y25315*
X2582Y25318*
X2582Y25318*
X2534Y25328*
X2534Y25328*
X2496Y25344*
X2496Y25344*
X2468Y25367*
X2468Y25367*
X2448Y25394*
X2448Y25394*
X2434Y25424*
X2434Y25424*
X2426Y25456*
X2426Y25456*
X2423Y25490*
X2423Y25490*
X2424Y25512*
X2424Y25512*
X2428Y25532*
X2428Y25532*
X2434Y25551*
X2434Y25551*
X2443Y25568*
X2443Y25568*
X2454Y25584*
X2454Y25584*
X2467Y25597*
X2467Y25597*
X2481Y25607*
X2481Y25607*
X2497Y25615*
X2497Y25615*
X2516Y25620*
X2516Y25620*
X2540Y25625*
X2540Y25625*
X2567Y25627*
X2567Y25627*
X2599Y25628*
X2599Y25628*
X2999Y25628*
X2999Y25738*
X2595Y25738*
X2559Y25738*
X2529Y25737*
X2505Y25735*
X2487Y25732*
X2464Y25726*
X2442Y25719*
X2422Y25709*
X2404Y25698*
X2388Y25684*
X2373Y25667*
X2360Y25646*
X2348Y25623*
X2339Y25598*
X2332Y25571*
X2328Y25543*
X2327Y25514*
X2334Y25449*
X2354Y25393*
X2388Y25345*
X2436Y25304*
X2435Y25304*
X2342Y25304*
X2342Y25204*
X2999Y25204*
X2999Y25315*
X2640Y25315*
X3011Y26241D02*
X3011Y26241D01*
X3000Y26291*
X2983Y26335*
X2959Y26375*
X2928Y26409*
X2892Y26437*
X2850Y26459*
X2803Y26476*
X2788Y26361*
X2821Y26347*
X2821Y26347*
X2849Y26331*
X2849Y26331*
X2873Y26313*
X2873Y26313*
X2891Y26292*
X2891Y26292*
X2905Y26269*
X2905Y26269*
X2916Y26244*
X2916Y26244*
X2922Y26217*
X2922Y26217*
X2924Y26187*
X2924Y26187*
X2920Y26148*
X2920Y26148*
X2909Y26111*
X2909Y26111*
X2891Y26079*
X2891Y26079*
X2866Y26049*
X2866Y26049*
X2834Y26025*
X2834Y26025*
X2795Y26006*
X2795Y26006*
X2750Y25994*
X2750Y25994*
X2699Y25988*
X2699Y25988*
X2699Y26479*
X2690Y26479*
X2682Y26479*
X2675Y26479*
X2669Y26479*
X2593Y26474*
X2525Y26459*
X2466Y26432*
X2417Y26396*
X2378Y26351*
X2350Y26300*
X2333Y26243*
X2327Y26180*
X2333Y26115*
X2350Y26057*
X2379Y26005*
X2419Y25959*
X2469Y25921*
X2529Y25895*
X2598Y25879*
X2676Y25873*
X2752Y25879*
X2819Y25894*
X2877Y25921*
X2926Y25958*
X2964Y26004*
X2992Y26057*
X3009Y26118*
X3014Y26187*
X3011Y26241*
X2607Y25994D02*
X2607Y25994D01*
X2607Y26362*
X2569Y26357*
X2535Y26348*
X2506Y26336*
X2483Y26320*
X2455Y26291*
X2434Y26259*
X2422Y26222*
X2418Y26182*
X2422Y26145*
X2431Y26111*
X2447Y26080*
X2470Y26052*
X2498Y26029*
X2530Y26012*
X2567Y26000*
X2607Y25994*
X2999Y27367D02*
X2999Y27367D01*
X2996Y27405*
X2991Y27440*
X2984Y27472*
X2976Y27500*
X2966Y27526*
X2953Y27550*
X2939Y27571*
X2923Y27590*
X2903Y27607*
X2881Y27623*
X2855Y27638*
X2827Y27649*
X2798Y27658*
X2768Y27663*
X2736Y27664*
X2698Y27662*
X2663Y27653*
X2629Y27640*
X2599Y27620*
X2572Y27596*
X2549Y27566*
X2531Y27532*
X2517Y27493*
X2516Y27493*
X2499Y27523*
X2479Y27549*
X2457Y27571*
X2433Y27589*
X2407Y27603*
X2380Y27613*
X2352Y27618*
X2323Y27620*
X2293Y27618*
X2262Y27612*
X2233Y27600*
X2204Y27585*
X2177Y27565*
X2154Y27542*
X2135Y27516*
X2119Y27486*
X2107Y27452*
X2098Y27413*
X2093Y27369*
X2091Y27320*
X2091Y26979*
X2999Y26979*
X2999Y27325*
X2999Y27367*
X2473Y27099D02*
X2473Y27099D01*
X2473Y27295*
X2472Y27333*
X2470Y27364*
X2467Y27390*
X2462Y27410*
X2454Y27432*
X2444Y27450*
X2432Y27466*
X2417Y27479*
X2400Y27489*
X2381Y27497*
X2361Y27501*
X2338Y27502*
X2316Y27501*
X2295Y27497*
X2276Y27490*
X2258Y27481*
X2242Y27469*
X2229Y27454*
X2219Y27438*
X2211Y27419*
X2205Y27395*
X2201Y27364*
X2199Y27326*
X2198Y27280*
X2198Y27099*
X2473Y27099*
X2893Y27099D02*
X2893Y27099D01*
X2893Y27325*
X2892Y27352*
X2892Y27375*
X2890Y27393*
X2888Y27407*
X2884Y27427*
X2878Y27445*
X2872Y27462*
X2864Y27476*
X2854Y27490*
X2842Y27502*
X2829Y27513*
X2813Y27522*
X2796Y27530*
X2777Y27536*
X2758Y27539*
X2736Y27540*
X2712Y27539*
X2689Y27534*
X2668Y27526*
X2648Y27514*
X2631Y27500*
X2616Y27483*
X2604Y27464*
X2595Y27442*
X2589Y27416*
X2584Y27386*
X2581Y27350*
X2580Y27309*
X2580Y27099*
X2893Y27099*
X3011Y28148D02*
X3011Y28148D01*
X3000Y28197*
X2983Y28242*
X2959Y28281*
X2928Y28315*
X2892Y28343*
X2850Y28365*
X2803Y28382*
X2788Y28267*
X2821Y28254*
X2821Y28254*
X2849Y28238*
X2849Y28238*
X2873Y28219*
X2873Y28219*
X2891Y28199*
X2891Y28199*
X2905Y28176*
X2905Y28176*
X2916Y28151*
X2916Y28151*
X2922Y28123*
X2922Y28123*
X2924Y28094*
X2924Y28093*
X2920Y28054*
X2920Y28054*
X2909Y28018*
X2909Y28018*
X2891Y27985*
X2891Y27985*
X2866Y27955*
X2866Y27955*
X2834Y27931*
X2834Y27931*
X2795Y27912*
X2795Y27912*
X2750Y27900*
X2750Y27900*
X2699Y27894*
X2699Y27894*
X2699Y28385*
X2690Y28385*
X2682Y28386*
X2675Y28386*
X2669Y28386*
X2593Y28380*
X2525Y28365*
X2466Y28339*
X2417Y28302*
X2378Y28257*
X2350Y28206*
X2333Y28150*
X2327Y28087*
X2333Y28022*
X2350Y27963*
X2379Y27911*
X2419Y27865*
X2469Y27828*
X2529Y27801*
X2598Y27785*
X2676Y27780*
X2752Y27785*
X2819Y27801*
X2877Y27827*
X2926Y27864*
X2964Y27910*
X2992Y27964*
X3009Y28024*
X3014Y28093*
X3011Y28148*
X2607Y27901D02*
X2607Y27901D01*
X2607Y28268*
X2569Y28263*
X2535Y28254*
X2506Y28242*
X2483Y28226*
X2455Y28198*
X2434Y28165*
X2422Y28128*
X2418Y28088*
X2422Y28051*
X2431Y28017*
X2447Y27986*
X2470Y27959*
X2498Y27935*
X2530Y27918*
X2567Y27906*
X2607Y27901*
X3010Y28840D02*
X3010Y28840D01*
X2998Y28887*
X2978Y28931*
X2950Y28970*
X2915Y29003*
X2874Y29030*
X2827Y29049*
X2773Y29062*
X2759Y28953*
X2798Y28945*
X2798Y28945*
X2832Y28933*
X2832Y28933*
X2860Y28917*
X2860Y28917*
X2883Y28897*
X2883Y28897*
X2901Y28873*
X2901Y28873*
X2913Y28847*
X2914Y28847*
X2921Y28818*
X2921Y28818*
X2924Y28787*
X2924Y28787*
X2920Y28748*
X2920Y28748*
X2909Y28713*
X2909Y28712*
X2890Y28681*
X2890Y28681*
X2863Y28654*
X2863Y28654*
X2829Y28631*
X2829Y28631*
X2785Y28615*
X2785Y28615*
X2732Y28606*
X2732Y28606*
X2670Y28603*
X2670Y28603*
X2609Y28606*
X2609Y28606*
X2557Y28616*
X2557Y28616*
X2513Y28632*
X2513Y28632*
X2478Y28656*
X2478Y28656*
X2452Y28684*
X2452Y28684*
X2433Y28716*
X2433Y28716*
X2422Y28753*
X2422Y28753*
X2418Y28793*
X2418Y28793*
X2420Y28820*
X2420Y28820*
X2426Y28845*
X2426Y28845*
X2437Y28868*
X2437Y28868*
X2451Y28888*
X2451Y28889*
X2470Y28907*
X2470Y28907*
X2493Y28922*
X2493Y28922*
X2520Y28934*
X2520Y28934*
X2551Y28943*
X2534Y29051*
X2488Y29038*
X2447Y29020*
X2411Y28995*
X2381Y28964*
X2358Y28927*
X2341Y28886*
X2330Y28840*
X2327Y28789*
X2330Y28747*
X2337Y28707*
X2350Y28669*
X2367Y28632*
X2389Y28598*
X2417Y28569*
X2449Y28544*
X2487Y28524*
X2528Y28509*
X2573Y28498*
X2622Y28491*
X2673Y28489*
X2751Y28494*
X2819Y28510*
X2877Y28535*
X2926Y28571*
X2965Y28615*
X2992Y28666*
X3009Y28724*
X3014Y28788*
X3010Y28840*
X2640Y29269D02*
X2640Y29269D01*
X2640Y29269*
X2603Y29270*
X2603Y29270*
X2571Y29273*
X2570Y29273*
X2542Y29279*
X2542Y29279*
X2518Y29287*
X2518Y29287*
X2497Y29298*
X2497Y29298*
X2478Y29312*
X2478Y29312*
X2462Y29330*
X2462Y29330*
X2448Y29350*
X2448Y29350*
X2437Y29372*
X2437Y29372*
X2429Y29395*
X2429Y29395*
X2424Y29419*
X2424Y29419*
X2422Y29444*
X2422Y29444*
X2425Y29475*
X2425Y29475*
X2432Y29503*
X2432Y29503*
X2444Y29526*
X2444Y29526*
X2460Y29547*
X2460Y29547*
X2482Y29562*
X2483Y29562*
X2510Y29574*
X2510Y29574*
X2544Y29581*
X2544Y29581*
X2583Y29583*
X2583Y29583*
X2999Y29583*
X2999Y29694*
X2583Y29694*
X2537Y29692*
X2497Y29688*
X2464Y29680*
X2435Y29670*
X2411Y29657*
X2390Y29640*
X2372Y29618*
X2356Y29593*
X2343Y29565*
X2334Y29535*
X2329Y29502*
X2327Y29466*
X2333Y29410*
X2350Y29358*
X2378Y29311*
X2418Y29269*
X2417Y29269*
X2091Y29269*
X2091Y29158*
X2999Y29158*
X2999Y29269*
X2640Y29269*
X2615Y30516D02*
X2615Y30516D01*
X2615Y30174*
X2727Y30174*
X2727Y30516*
X2615Y30516*
X3013Y31401D02*
X3013Y31401D01*
X3006Y31446*
X2995Y31488*
X2979Y31528*
X2960Y31565*
X2937Y31597*
X2910Y31625*
X2880Y31648*
X2847Y31666*
X2814Y31679*
X2779Y31686*
X2743Y31689*
X2708Y31687*
X2675Y31680*
X2643Y31668*
X2614Y31651*
X2587Y31630*
X2563Y31603*
X2541Y31571*
X2522Y31534*
X2509Y31501*
X2495Y31457*
X2480Y31401*
X2464Y31333*
X2464Y31333*
X2447Y31267*
X2447Y31267*
X2431Y31214*
X2431Y31214*
X2415Y31176*
X2415Y31176*
X2399Y31152*
X2399Y31152*
X2382Y31136*
X2382Y31136*
X2363Y31125*
X2363Y31125*
X2341Y31118*
X2341Y31118*
X2318Y31116*
X2318Y31116*
X2291Y31119*
X2291Y31119*
X2265Y31129*
X2265Y31129*
X2242Y31144*
X2242Y31144*
X2221Y31166*
X2221Y31166*
X2203Y31195*
X2203Y31195*
X2191Y31231*
X2191Y31231*
X2183Y31275*
X2183Y31275*
X2181Y31326*
X2181Y31326*
X2184Y31375*
X2184Y31375*
X2192Y31418*
X2192Y31418*
X2206Y31454*
X2206Y31454*
X2225Y31484*
X2225Y31484*
X2250Y31508*
X2250Y31508*
X2280Y31527*
X2280Y31527*
X2315Y31540*
X2315Y31540*
X2355Y31547*
X2347Y31662*
X2308Y31658*
X2271Y31649*
X2237Y31636*
X2204Y31617*
X2174Y31594*
X2149Y31567*
X2127Y31535*
X2108Y31499*
X2094Y31459*
X2084Y31416*
X2078Y31370*
X2076Y31321*
X2078Y31276*
X2084Y31233*
X2093Y31192*
X2107Y31154*
X2124Y31119*
X2145Y31088*
X2169Y31062*
X2198Y31040*
X2228Y31023*
X2259Y31011*
X2292Y31004*
X2326Y31001*
X2356Y31003*
X2385Y31009*
X2413Y31019*
X2439Y31033*
X2463Y31051*
X2485Y31073*
X2505Y31099*
X2523Y31130*
X2537Y31160*
X2551Y31199*
X2565Y31247*
X2580Y31305*
X2594Y31362*
X2594Y31362*
X2606Y31408*
X2606Y31408*
X2616Y31443*
X2616Y31443*
X2624Y31467*
X2624Y31467*
X2636Y31494*
X2636Y31494*
X2649Y31516*
X2649Y31516*
X2663Y31535*
X2663Y31535*
X2678Y31549*
X2678Y31549*
X2695Y31560*
X2695Y31560*
X2713Y31568*
X2713Y31568*
X2732Y31573*
X2732Y31573*
X2753Y31574*
X2753Y31574*
X2774Y31572*
X2774Y31572*
X2794Y31568*
X2794Y31568*
X2813Y31560*
X2813Y31560*
X2831Y31548*
X2831Y31548*
X2848Y31534*
X2848Y31534*
X2863Y31516*
X2863Y31516*
X2876Y31494*
X2876Y31494*
X2888Y31470*
X2888Y31470*
X2897Y31442*
X2897Y31442*
X2903Y31413*
X2903Y31413*
X2907Y31381*
X2907Y31381*
X2908Y31348*
X2908Y31348*
X2906Y31310*
X2906Y31310*
X2901Y31274*
X2901Y31274*
X2893Y31240*
X2893Y31240*
X2881Y31208*
X2881Y31208*
X2867Y31179*
X2867Y31179*
X2850Y31154*
X2850Y31154*
X2831Y31133*
X2831Y31133*
X2810Y31116*
X2810Y31116*
X2787Y31103*
X2787Y31103*
X2760Y31092*
X2760Y31092*
X2731Y31084*
X2731Y31084*
X2699Y31079*
X2708Y30966*
X2752Y30970*
X2794Y30980*
X2834Y30995*
X2871Y31016*
X2905Y31042*
X2934Y31073*
X2959Y31107*
X2979Y31147*
X2995Y31191*
X3006Y31240*
X3013Y31294*
X3015Y31353*
X3013Y31401*
X3011Y32171D02*
X3011Y32171D01*
X3000Y32221*
X2983Y32265*
X2959Y32304*
X2928Y32338*
X2892Y32366*
X2850Y32389*
X2803Y32405*
X2788Y32291*
X2821Y32277*
X2821Y32277*
X2849Y32261*
X2849Y32261*
X2873Y32243*
X2873Y32243*
X2891Y32222*
X2891Y32222*
X2905Y32199*
X2905Y32199*
X2916Y32174*
X2916Y32174*
X2922Y32147*
X2922Y32146*
X2924Y32117*
X2924Y32117*
X2920Y32077*
X2920Y32077*
X2909Y32041*
X2909Y32041*
X2891Y32008*
X2891Y32008*
X2866Y31979*
X2866Y31979*
X2834Y31954*
X2834Y31954*
X2795Y31936*
X2795Y31936*
X2750Y31923*
X2750Y31923*
X2699Y31917*
X2699Y31918*
X2699Y32408*
X2690Y32409*
X2682Y32409*
X2675Y32409*
X2669Y32409*
X2593Y32404*
X2525Y32388*
X2466Y32362*
X2417Y32325*
X2378Y32281*
X2350Y32230*
X2333Y32173*
X2327Y32110*
X2333Y32045*
X2350Y31987*
X2379Y31934*
X2419Y31888*
X2469Y31851*
X2529Y31824*
X2598Y31808*
X2676Y31803*
X2752Y31808*
X2819Y31824*
X2877Y31850*
X2926Y31887*
X2964Y31933*
X2992Y31987*
X3009Y32048*
X3014Y32116*
X3011Y32171*
X2607Y31924D02*
X2607Y31924D01*
X2607Y32292*
X2569Y32286*
X2535Y32277*
X2506Y32265*
X2483Y32250*
X2455Y32221*
X2434Y32188*
X2422Y32152*
X2418Y32111*
X2422Y32074*
X2431Y32040*
X2447Y32010*
X2470Y31982*
X2498Y31959*
X2530Y31941*
X2567Y31930*
X2607Y31924*
X2931Y32657D02*
X2931Y32657D01*
X2931Y32658*
X2949Y32673*
X2964Y32690*
X2978Y32710*
X2991Y32731*
X3001Y32754*
X3008Y32778*
X3013Y32803*
X3014Y32831*
X3012Y32868*
X3004Y32905*
X2990Y32941*
X2971Y32976*
X2947Y33008*
X2919Y33037*
X2886Y33061*
X2848Y33081*
X2806Y33097*
X2762Y33108*
X2715Y33115*
X2666Y33117*
X2620Y33115*
X2575Y33109*
X2533Y33099*
X2493Y33084*
X2455Y33066*
X2423Y33044*
X2394Y33017*
X2370Y32987*
X2351Y32954*
X2338Y32918*
X2330Y32880*
X2327Y32839*
X2329Y32808*
X2333Y32779*
X2341Y32753*
X2352Y32729*
X2366Y32707*
X2383Y32686*
X2404Y32667*
X2428Y32648*
X2427Y32647*
X2342Y32647*
X2342Y32546*
X3252Y32546*
X3252Y32657*
X2931Y32657*
X2674Y32647D02*
X2674Y32647D01*
X2734Y32650*
X2785Y32660*
X2828Y32676*
X2862Y32699*
X2889Y32726*
X2908Y32755*
X2919Y32788*
X2923Y32823*
X2919Y32859*
X2907Y32892*
X2888Y32923*
X2860Y32951*
X2824Y32974*
X2780Y32990*
X2727Y33000*
X2665Y33004*
X2606Y33000*
X2555Y32991*
X2512Y32974*
X2477Y32952*
X2449Y32925*
X2430Y32895*
X2418Y32863*
X2414Y32828*
X2418Y32794*
X2431Y32761*
X2451Y32730*
X2481Y32702*
X2518Y32678*
X2562Y32661*
X2615Y32650*
X2674Y32647*
X2893Y34160D02*
X2893Y34160D01*
X2893Y33715*
X2893Y33714*
X2877Y33724*
X2877Y33724*
X2862Y33736*
X2862Y33736*
X2847Y33748*
X2847Y33748*
X2832Y33762*
X2832Y33762*
X2813Y33780*
X2813Y33780*
X2788Y33808*
X2788Y33808*
X2756Y33845*
X2756Y33845*
X2717Y33891*
X2669Y33947*
X2627Y33994*
X2589Y34033*
X2558Y34063*
X2529Y34087*
X2501Y34107*
X2473Y34124*
X2447Y34137*
X2420Y34146*
X2394Y34153*
X2367Y34158*
X2340Y34159*
X2288Y34154*
X2241Y34140*
X2198Y34116*
X2160Y34083*
X2128Y34041*
X2106Y33993*
X2092Y33938*
X2088Y33876*
X2092Y33815*
X2104Y33760*
X2125Y33712*
X2155Y33670*
X2192Y33636*
X2237Y33609*
X2290Y33591*
X2350Y33582*
X2361Y33695*
X2321Y33698*
X2321Y33698*
X2285Y33708*
X2285Y33708*
X2254Y33723*
X2254Y33723*
X2228Y33744*
X2228Y33744*
X2206Y33771*
X2206Y33771*
X2191Y33801*
X2191Y33801*
X2182Y33835*
X2182Y33835*
X2179Y33874*
X2179Y33874*
X2182Y33910*
X2182Y33910*
X2190Y33943*
X2191Y33943*
X2205Y33972*
X2205Y33972*
X2225Y33998*
X2225Y33998*
X2249Y34019*
X2249Y34019*
X2276Y34033*
X2276Y34033*
X2305Y34042*
X2305Y34042*
X2337Y34045*
X2337Y34045*
X2369Y34042*
X2369Y34042*
X2402Y34032*
X2402Y34032*
X2437Y34016*
X2437Y34016*
X2472Y33993*
X2472Y33993*
X2510Y33961*
X2510Y33961*
X2555Y33917*
X2555Y33917*
X2607Y33861*
X2607Y33861*
X2664Y33793*
X2664Y33793*
X2702Y33748*
X2738Y33709*
X2771Y33675*
X2802Y33647*
X2832Y33623*
X2862Y33603*
X2892Y33587*
X2923Y33573*
X2941Y33567*
X2961Y33563*
X2980Y33561*
X2999Y33560*
X2999Y34160*
X2893Y34160*
X3012Y34625D02*
X3012Y34625D01*
X3002Y34668*
X2985Y34707*
X2961Y34742*
X2932Y34772*
X2897Y34799*
X2856Y34821*
X2810Y34840*
X2757Y34854*
X2696Y34865*
X2628Y34871*
X2552Y34873*
X2488Y34871*
X2430Y34868*
X2380Y34861*
X2337Y34852*
X2299Y34841*
X2263Y34828*
X2231Y34813*
X2202Y34796*
X2176Y34777*
X2153Y34755*
X2133Y34731*
X2117Y34705*
X2104Y34676*
X2095Y34645*
X2090Y34612*
X2088Y34577*
X2091Y34529*
X2101Y34486*
X2118Y34447*
X2141Y34413*
X2170Y34382*
X2205Y34355*
X2246Y34333*
X2292Y34314*
X2345Y34300*
X2406Y34289*
X2475Y34283*
X2552Y34281*
X2671Y34287*
X2772Y34303*
X2855Y34331*
X2921Y34371*
X2962Y34412*
X2991Y34460*
X3009Y34515*
X3015Y34577*
X3012Y34625*
X2552Y34395D02*
X2552Y34395D01*
X2654Y34398*
X2738Y34408*
X2803Y34425*
X2850Y34448*
X2882Y34475*
X2905Y34506*
X2919Y34540*
X2924Y34577*
X2919Y34614*
X2905Y34648*
X2882Y34678*
X2849Y34706*
X2803Y34729*
X2738Y34745*
X2654Y34755*
X2552Y34759*
X2449Y34755*
X2365Y34745*
X2300Y34729*
X2253Y34706*
X2221Y34678*
X2198Y34647*
X2184Y34613*
X2180Y34576*
X2184Y34539*
X2196Y34506*
X2216Y34478*
X2245Y34453*
X2295Y34428*
X2363Y34410*
X2449Y34399*
X2552Y34395*
X2088Y35407D02*
X2088Y35407D01*
X2088Y35336*
X2117Y35319*
X2117Y35319*
X2147Y35296*
X2147Y35296*
X2178Y35269*
X2178Y35269*
X2209Y35236*
X2209Y35236*
X2239Y35200*
X2239Y35200*
X2267Y35160*
X2267Y35160*
X2293Y35118*
X2293Y35118*
X2316Y35073*
X2423Y35073*
X2412Y35099*
X2399Y35128*
X2383Y35158*
X2365Y35190*
X2346Y35221*
X2327Y35249*
X2308Y35274*
X2288Y35296*
X2288Y35296*
X2999Y35296*
X2999Y35407*
X2088Y35407*
X3013Y36044D02*
X3013Y36044D01*
X3005Y36081*
X2993Y36117*
X2976Y36150*
X2954Y36180*
X2928Y36207*
X2898Y36231*
X2864Y36251*
X2826Y36267*
X2787Y36279*
X2747Y36286*
X2705Y36288*
X2643Y36283*
X2587Y36268*
X2537Y36244*
X2493Y36210*
X2457Y36168*
X2431Y36123*
X2416Y36074*
X2411Y36020*
X2413Y35988*
X2418Y35958*
X2427Y35927*
X2440Y35898*
X2457Y35870*
X2478Y35844*
X2503Y35821*
X2532Y35799*
X2532Y35799*
X2467Y35801*
X2467Y35801*
X2410Y35807*
X2410Y35807*
X2362Y35817*
X2362Y35817*
X2321Y35830*
X2321Y35830*
X2286Y35847*
X2286Y35847*
X2256Y35866*
X2256Y35866*
X2230Y35889*
X2230Y35889*
X2208Y35914*
X2208Y35914*
X2195Y35935*
X2195Y35935*
X2186Y35957*
X2186Y35957*
X2180Y35982*
X2180Y35982*
X2178Y36007*
X2178Y36008*
X2181Y36039*
X2181Y36039*
X2190Y36069*
X2190Y36069*
X2205Y36095*
X2205Y36095*
X2226Y36119*
X2226Y36120*
X2244Y36132*
X2244Y36132*
X2265Y36144*
X2265Y36144*
X2291Y36154*
X2291Y36154*
X2322Y36162*
X2313Y36272*
X2264Y36262*
X2219Y36244*
X2181Y36221*
X2148Y36190*
X2121Y36153*
X2103Y36112*
X2091Y36065*
X2088Y36014*
X2094Y35946*
X2114Y35885*
X2146Y35832*
X2192Y35786*
X2260Y35743*
X2347Y35713*
X2452Y35695*
X2575Y35689*
X2684Y35694*
X2777Y35711*
X2853Y35738*
X2913Y35777*
X2957Y35824*
X2989Y35877*
X3009Y35937*
X3015Y36004*
X3013Y36044*
X2705Y35817D02*
X2705Y35817D01*
X2734Y35818*
X2762Y35823*
X2789Y35830*
X2816Y35841*
X2841Y35854*
X2862Y35870*
X2881Y35889*
X2896Y35910*
X2908Y35932*
X2917Y35955*
X2922Y35978*
X2924Y36002*
X2920Y36036*
X2909Y36068*
X2892Y36097*
X2867Y36123*
X2836Y36146*
X2799Y36162*
X2758Y36171*
X2712Y36174*
X2667Y36171*
X2627Y36162*
X2593Y36146*
X2563Y36124*
X2539Y36097*
X2522Y36067*
X2512Y36034*
X2509Y35998*
X2512Y35961*
X2522Y35928*
X2539Y35897*
X2563Y35869*
X2592Y35846*
X2626Y35830*
X2664Y35820*
X2705Y35817*
X21674Y44465D02*
X21674Y44465D01*
X21674Y44465*
X22036Y44989*
X21897Y44989*
X21721Y44722*
X21693Y44678*
X21667Y44637*
X21644Y44598*
X21622Y44561*
X21621Y44561*
X21599Y44599*
X21577Y44638*
X21553Y44676*
X21529Y44715*
X21350Y44989*
X21205Y44989*
X21555Y44465*
X21555Y44465*
X21555Y44081*
X21674Y44081*
X21674Y44465*
X22825Y44187D02*
X22825Y44187D01*
X22268Y44187*
X22267Y44187*
X22267Y44497*
X22268Y44497*
X22770Y44497*
X22770Y44603*
X22268Y44603*
X22267Y44603*
X22267Y44882*
X22268Y44882*
X22804Y44882*
X22804Y44989*
X22148Y44989*
X22148Y44081*
X22825Y44081*
X22825Y44187*
X23555Y44187D02*
X23555Y44187D01*
X23107Y44187*
X23107Y44187*
X23107Y44989*
X22988Y44989*
X22988Y44081*
X23555Y44081*
X23555Y44187*
X44721Y9361D02*
X44721Y9361D01*
X44760Y9364*
X44795Y9369*
X44826Y9376*
X44855Y9384*
X44881Y9394*
X44904Y9407*
X44926Y9421*
X44945Y9437*
X44962Y9457*
X44978Y9479*
X44992Y9505*
X45004Y9533*
X45012Y9562*
X45017Y9592*
X45019Y9624*
X45016Y9662*
X45008Y9697*
X44994Y9731*
X44975Y9761*
X44950Y9788*
X44921Y9811*
X44887Y9829*
X44848Y9843*
X44848Y9844*
X44878Y9861*
X44904Y9881*
X44926Y9903*
X44943Y9927*
X44957Y9953*
X44967Y9980*
X44973Y10008*
X44975Y10037*
X44973Y10067*
X44966Y10098*
X44955Y10127*
X44939Y10156*
X44920Y10183*
X44897Y10206*
X44871Y10225*
X44841Y10241*
X44807Y10253*
X44768Y10262*
X44724Y10267*
X44674Y10269*
X44334Y10269*
X44334Y9361*
X44680Y9361*
X44721Y9361*
X44453Y9887D02*
X44453Y9887D01*
X44650Y9887*
X44687Y9888*
X44719Y9890*
X44744Y9893*
X44765Y9898*
X44786Y9906*
X44805Y9916*
X44821Y9928*
X44834Y9943*
X44844Y9960*
X44851Y9979*
X44856Y9999*
X44857Y10022*
X44856Y10044*
X44852Y10065*
X44845Y10084*
X44835Y10102*
X44823Y10118*
X44809Y10131*
X44792Y10141*
X44773Y10149*
X44750Y10155*
X44719Y10159*
X44680Y10161*
X44635Y10162*
X44453Y10162*
X44453Y9887*
X44453Y9467D02*
X44453Y9467D01*
X44680Y9467*
X44707Y9468*
X44729Y9468*
X44748Y9470*
X44762Y9472*
X44781Y9476*
X44800Y9482*
X44816Y9488*
X44831Y9496*
X44844Y9506*
X44856Y9518*
X44867Y9531*
X44877Y9547*
X44885Y9564*
X44890Y9583*
X44894Y9602*
X44895Y9624*
X44893Y9648*
X44888Y9671*
X44880Y9692*
X44869Y9712*
X44855Y9729*
X44838Y9744*
X44818Y9756*
X44797Y9765*
X44771Y9771*
X44740Y9776*
X44704Y9779*
X44664Y9780*
X44453Y9780*
X44453Y9467*
X45536Y10162D02*
X45536Y10162D01*
X45536Y10162*
X45837Y10162*
X45837Y10269*
X45117Y10269*
X45117Y10162*
X45417Y10162*
X45417Y10162*
X45417Y9361*
X45536Y9361*
X45536Y10162*
X46675Y10269D02*
X46675Y10269D01*
X46561Y10269*
X46561Y9555*
X46560Y9555*
X46083Y10269*
X45960Y10269*
X45960Y9361*
X46074Y9361*
X46074Y10075*
X46075Y10075*
X46553Y9361*
X46675Y9361*
X46675Y10269*
X47500Y9188D02*
X47500Y9188D01*
X46761Y9188*
X46761Y9108*
X47500Y9108*
X47500Y9188*
X47725Y10269D02*
X47725Y10269D01*
X47605Y10269*
X47605Y9361*
X47725Y9361*
X47725Y10269*
X48652Y10269D02*
X48652Y10269D01*
X48537Y10269*
X48537Y9555*
X48537Y9555*
X48059Y10269*
X47936Y10269*
X47936Y9361*
X48051Y9361*
X48051Y10075*
X48051Y10075*
X48529Y9361*
X48652Y9361*
X48652Y10269*
X23041Y7921D02*
X23041Y7921D01*
X23080Y7924*
X23115Y7929*
X23146Y7936*
X23175Y7944*
X23201Y7954*
X23224Y7967*
X23246Y7981*
X23265Y7997*
X23282Y8017*
X23298Y8039*
X23312Y8065*
X23324Y8093*
X23332Y8122*
X23337Y8152*
X23339Y8184*
X23336Y8222*
X23328Y8257*
X23314Y8291*
X23295Y8321*
X23270Y8348*
X23241Y8371*
X23207Y8389*
X23168Y8403*
X23168Y8404*
X23198Y8421*
X23224Y8441*
X23246Y8463*
X23263Y8487*
X23277Y8513*
X23287Y8540*
X23293Y8568*
X23295Y8597*
X23293Y8627*
X23286Y8658*
X23275Y8687*
X23259Y8716*
X23240Y8743*
X23217Y8766*
X23191Y8785*
X23161Y8801*
X23127Y8813*
X23088Y8822*
X23044Y8827*
X22994Y8829*
X22654Y8829*
X22654Y7921*
X23000Y7921*
X23041Y7921*
X22773Y8447D02*
X22773Y8447D01*
X22970Y8447*
X23007Y8448*
X23039Y8450*
X23064Y8453*
X23085Y8458*
X23106Y8466*
X23125Y8476*
X23141Y8488*
X23154Y8503*
X23164Y8520*
X23171Y8539*
X23176Y8559*
X23177Y8582*
X23176Y8604*
X23172Y8625*
X23165Y8644*
X23155Y8662*
X23143Y8678*
X23129Y8691*
X23112Y8701*
X23093Y8709*
X23070Y8715*
X23039Y8719*
X23000Y8721*
X22955Y8722*
X22773Y8722*
X22773Y8447*
X22773Y8027D02*
X22773Y8027D01*
X23000Y8027*
X23027Y8028*
X23049Y8028*
X23068Y8030*
X23082Y8032*
X23101Y8036*
X23120Y8042*
X23136Y8048*
X23151Y8056*
X23164Y8066*
X23176Y8078*
X23187Y8091*
X23197Y8107*
X23205Y8124*
X23210Y8143*
X23214Y8162*
X23215Y8184*
X23213Y8208*
X23208Y8231*
X23200Y8252*
X23189Y8272*
X23175Y8289*
X23158Y8304*
X23138Y8316*
X23117Y8325*
X23091Y8331*
X23060Y8336*
X23024Y8339*
X22984Y8340*
X22773Y8340*
X22773Y8027*
X23929Y7908D02*
X23929Y7908D01*
X23985Y7918*
X24035Y7933*
X24079Y7955*
X24116Y7983*
X24147Y8013*
X24172Y8048*
X24190Y8086*
X24204Y8130*
X24214Y8181*
X24219Y8239*
X24221Y8304*
X24221Y8829*
X24102Y8829*
X24102Y8304*
X24102Y8304*
X24099Y8226*
X24099Y8226*
X24088Y8161*
X24088Y8161*
X24070Y8110*
X24070Y8110*
X24046Y8073*
X24046Y8073*
X24013Y8046*
X24012Y8046*
X23970Y8028*
X23970Y8028*
X23918Y8016*
X23918Y8016*
X23856Y8013*
X23856Y8013*
X23819Y8014*
X23819Y8014*
X23784Y8020*
X23784Y8020*
X23753Y8030*
X23753Y8030*
X23725Y8043*
X23725Y8043*
X23700Y8060*
X23700Y8060*
X23679Y8080*
X23679Y8080*
X23662Y8103*
X23662Y8103*
X23649Y8130*
X23649Y8130*
X23639Y8162*
X23639Y8162*
X23632Y8202*
X23632Y8202*
X23628Y8249*
X23628Y8249*
X23627Y8304*
X23627Y8304*
X23627Y8829*
X23507Y8829*
X23507Y8304*
X23510Y8235*
X23516Y8175*
X23527Y8122*
X23542Y8076*
X23562Y8037*
X23588Y8003*
X23620Y7973*
X23658Y7949*
X23701Y7930*
X23751Y7916*
X23806Y7908*
X23867Y7905*
X23929Y7908*
X25068Y8027D02*
X25068Y8027D01*
X24488Y8027*
X24487Y8027*
X24543Y8091*
X25053Y8722*
X25053Y8829*
X24403Y8829*
X24403Y8722*
X24910Y8722*
X24910Y8722*
X24887Y8698*
X24864Y8672*
X24840Y8644*
X24816Y8614*
X24350Y8031*
X24350Y7921*
X25068Y7921*
X25068Y8027*
X12710Y46952D02*
X12710Y46952D01*
X12779Y46957*
X12841Y46966*
X12898Y46978*
X12949Y46993*
X12996Y47011*
X13038Y47033*
X13076Y47058*
X13110Y47087*
X13141Y47122*
X13169Y47163*
X13195Y47209*
X13216Y47259*
X13231Y47311*
X13240Y47365*
X13243Y47421*
X13238Y47490*
X13223Y47553*
X13198Y47612*
X13164Y47667*
X13120Y47715*
X13067Y47756*
X13007Y47789*
X12937Y47814*
X12937Y47815*
X12991Y47845*
X13037Y47880*
X13076Y47920*
X13108Y47963*
X13132Y48010*
X13150Y48058*
X13161Y48108*
X13164Y48159*
X13160Y48215*
X13148Y48269*
X13128Y48322*
X13100Y48373*
X13066Y48421*
X13025Y48463*
X12978Y48497*
X12924Y48525*
X12864Y48547*
X12794Y48562*
X12714Y48571*
X12626Y48574*
X12017Y48574*
X12017Y46951*
X12636Y46951*
X12710Y46952*
X12231Y47892D02*
X12231Y47892D01*
X12583Y47892*
X12649Y47893*
X12705Y47897*
X12752Y47903*
X12788Y47911*
X12826Y47925*
X12860Y47943*
X12888Y47966*
X12911Y47992*
X12929Y48022*
X12942Y48056*
X12950Y48093*
X12953Y48134*
X12950Y48173*
X12943Y48210*
X12931Y48244*
X12914Y48276*
X12893Y48305*
X12867Y48328*
X12837Y48347*
X12803Y48360*
X12761Y48370*
X12705Y48377*
X12637Y48382*
X12556Y48383*
X12231Y48383*
X12231Y47892*
X12231Y47142D02*
X12231Y47142D01*
X12636Y47142*
X12684Y47142*
X12725Y47144*
X12757Y47146*
X12782Y47150*
X12818Y47157*
X12850Y47167*
X12880Y47179*
X12906Y47194*
X12930Y47211*
X12952Y47232*
X12971Y47256*
X12988Y47284*
X13002Y47315*
X13012Y47348*
X13018Y47383*
X13020Y47421*
X13018Y47465*
X13009Y47506*
X12994Y47544*
X12974Y47579*
X12948Y47610*
X12918Y47636*
X12884Y47657*
X12845Y47673*
X12799Y47685*
X12744Y47694*
X12680Y47699*
X12607Y47700*
X12231Y47700*
X12231Y47142*
X14106Y46930D02*
X14106Y46930D01*
X14195Y46949*
X14274Y46980*
X14345Y47024*
X14405Y47078*
X14456Y47143*
X14496Y47219*
X14525Y47303*
X14320Y47329*
X14295Y47270*
X14295Y47270*
X14266Y47220*
X14266Y47220*
X14234Y47178*
X14234Y47178*
X14197Y47145*
X14197Y47145*
X14156Y47119*
X14156Y47119*
X14111Y47101*
X14111Y47101*
X14062Y47091*
X14062Y47091*
X14009Y47087*
X14009Y47087*
X13938Y47093*
X13938Y47093*
X13874Y47113*
X13874Y47113*
X13815Y47145*
X13815Y47145*
X13763Y47190*
X13763Y47190*
X13719Y47247*
X13719Y47247*
X13686Y47316*
X13686Y47316*
X13664Y47396*
X13664Y47396*
X13653Y47488*
X13653Y47488*
X14531Y47488*
X14531Y47504*
X14532Y47519*
X14532Y47531*
X14532Y47541*
X14523Y47678*
X14494Y47799*
X14448Y47904*
X14382Y47993*
X14302Y48063*
X14211Y48113*
X14110Y48143*
X13997Y48153*
X13881Y48143*
X13776Y48112*
X13683Y48061*
X13601Y47989*
X13534Y47899*
X13486Y47792*
X13457Y47669*
X13448Y47529*
X13457Y47393*
X13486Y47274*
X13533Y47170*
X13599Y47083*
X13681Y47013*
X13777Y46964*
X13886Y46934*
X14008Y46924*
X14106Y46930*
X13664Y47652D02*
X13664Y47652D01*
X14322Y47652*
X14312Y47721*
X14296Y47782*
X14274Y47833*
X14246Y47874*
X14195Y47925*
X14137Y47961*
X14072Y47982*
X13999Y47990*
X13933Y47984*
X13873Y47967*
X13818Y47938*
X13768Y47898*
X13727Y47848*
X13695Y47790*
X13675Y47725*
X13664Y47652*
X14975Y47593D02*
X14975Y47593D01*
X14975Y47593*
X14981Y47697*
X14981Y47697*
X14998Y47783*
X14998Y47783*
X15027Y47851*
X15027Y47851*
X15068Y47900*
X15068Y47900*
X15116Y47936*
X15117Y47936*
X15169Y47961*
X15169Y47961*
X15227Y47976*
X15227Y47976*
X15288Y47981*
X15288Y47981*
X15327Y47979*
X15327Y47979*
X15363Y47972*
X15363Y47972*
X15397Y47961*
X15397Y47961*
X15428Y47945*
X15428Y47945*
X15455Y47926*
X15455Y47926*
X15478Y47903*
X15478Y47903*
X15497Y47877*
X15497Y47877*
X15510Y47849*
X15510Y47849*
X15521Y47814*
X15521Y47814*
X15528Y47773*
X15528Y47773*
X15532Y47723*
X15532Y47723*
X15534Y47666*
X15534Y47666*
X15534Y46951*
X15732Y46951*
X15732Y47674*
X15732Y47738*
X15729Y47792*
X15726Y47835*
X15721Y47868*
X15711Y47909*
X15697Y47947*
X15680Y47982*
X15659Y48015*
X15634Y48044*
X15604Y48071*
X15568Y48094*
X15526Y48115*
X15480Y48132*
X15432Y48144*
X15383Y48151*
X15330Y48153*
X15215Y48141*
X15115Y48105*
X15028Y48044*
X14956Y47959*
X14955Y47959*
X14955Y48127*
X14777Y48127*
X14777Y46951*
X14975Y46951*
X14975Y47593*
X16237Y48574D02*
X16237Y48574D01*
X16038Y48574*
X16038Y48344*
X16237Y48344*
X16237Y48574*
X16019Y46480D02*
X16019Y46480D01*
X16084Y46500*
X16138Y46535*
X16180Y46583*
X16205Y46634*
X16222Y46702*
X16233Y46785*
X16237Y46886*
X16237Y48127*
X16038Y48127*
X16038Y46890*
X16038Y46890*
X16036Y46817*
X16036Y46817*
X16031Y46759*
X16031Y46759*
X16021Y46716*
X16021Y46715*
X16008Y46688*
X16008Y46688*
X15991Y46670*
X15991Y46670*
X15970Y46657*
X15970Y46657*
X15945Y46649*
X15945Y46649*
X15917Y46647*
X15917Y46647*
X15898Y46648*
X15898Y46648*
X15876Y46651*
X15876Y46651*
X15851Y46656*
X15851Y46656*
X15823Y46662*
X15785Y46494*
X15823Y46485*
X15862Y46478*
X15901Y46474*
X15941Y46473*
X16019Y46480*
X16935Y46926D02*
X16935Y46926D01*
X16991Y46934*
X17045Y46946*
X17098Y46963*
X17149Y46986*
X17202Y47015*
X17256Y47052*
X17311Y47096*
X17312Y47096*
X17317Y47055*
X17326Y47017*
X17337Y46983*
X17351Y46951*
X17559Y46951*
X17542Y46984*
X17542Y46984*
X17527Y47019*
X17527Y47019*
X17516Y47055*
X17516Y47055*
X17508Y47091*
X17508Y47091*
X17503Y47141*
X17503Y47141*
X17499Y47216*
X17499Y47216*
X17496Y47317*
X17496Y47317*
X17496Y47443*
X17496Y47443*
X17496Y47709*
X17495Y47771*
X17493Y47822*
X17490Y47863*
X17486Y47893*
X17475Y47932*
X17461Y47968*
X17444Y48000*
X17424Y48029*
X17399Y48054*
X17367Y48078*
X17329Y48099*
X17285Y48118*
X17235Y48133*
X17177Y48144*
X17112Y48151*
X17041Y48153*
X16967Y48151*
X16898Y48143*
X16834Y48130*
X16774Y48112*
X16720Y48089*
X16672Y48061*
X16632Y48029*
X16598Y47993*
X16569Y47952*
X16545Y47904*
X16526Y47851*
X16510Y47792*
X16704Y47765*
X16723Y47823*
X16723Y47823*
X16745Y47871*
X16745Y47871*
X16772Y47910*
X16772Y47910*
X16804Y47940*
X16804Y47940*
X16842Y47961*
X16842Y47961*
X16889Y47977*
X16889Y47977*
X16946Y47986*
X16946Y47986*
X17012Y47989*
X17012Y47989*
X17083Y47985*
X17083Y47985*
X17144Y47972*
X17144Y47972*
X17196Y47951*
X17196Y47951*
X17239Y47921*
X17239Y47921*
X17264Y47892*
X17264Y47892*
X17282Y47853*
X17282Y47853*
X17293Y47806*
X17293Y47806*
X17296Y47749*
X17296Y47749*
X17296Y47742*
X17296Y47742*
X17296Y47731*
X17296Y47731*
X17295Y47716*
X17295Y47716*
X17295Y47697*
X17295Y47697*
X17230Y47677*
X17230Y47677*
X17149Y47659*
X17149Y47659*
X17052Y47643*
X17052Y47643*
X16939Y47628*
X16939Y47628*
X16883Y47621*
X16835Y47613*
X16795Y47606*
X16761Y47598*
X16723Y47586*
X16686Y47571*
X16651Y47553*
X16618Y47533*
X16588Y47509*
X16561Y47482*
X16536Y47452*
X16515Y47418*
X16498Y47381*
X16486Y47343*
X16478Y47303*
X16476Y47260*
X16482Y47190*
X16502Y47126*
X16534Y47069*
X16580Y47019*
X16638Y46977*
X16706Y46948*
X16786Y46930*
X16878Y46924*
X16935Y46926*
X17294Y47541D02*
X17294Y47541D01*
X17233Y47519*
X17159Y47500*
X17070Y47482*
X16969Y47465*
X16912Y47456*
X16864Y47447*
X16825Y47436*
X16795Y47426*
X16771Y47413*
X16749Y47398*
X16731Y47381*
X16716Y47361*
X16704Y47339*
X16695Y47316*
X16690Y47291*
X16688Y47266*
X16692Y47228*
X16703Y47193*
X16722Y47161*
X16749Y47133*
X16782Y47110*
X16823Y47093*
X16871Y47083*
X16925Y47080*
X16981Y47083*
X17034Y47092*
X17084Y47108*
X17130Y47130*
X17172Y47158*
X17208Y47190*
X17238Y47227*
X17262Y47268*
X17276Y47306*
X17286Y47352*
X17292Y47406*
X17294Y47468*
X17294Y47541*
X17805Y46950D02*
X17805Y46950D01*
X17805Y48127*
X17984Y48127*
X17984Y47962*
X18014Y48003*
X18048Y48040*
X18088Y48073*
X18131Y48101*
X18179Y48124*
X18230Y48141*
X18284Y48150*
X18341Y48154*
X18403Y48150*
X18460Y48140*
X18511Y48123*
X18555Y48099*
X18594Y48070*
X18627Y48034*
X18653Y47994*
X18673Y47948*
X18748Y48038*
X18834Y48102*
X18930Y48141*
X19037Y48154*
X19119Y48148*
X19192Y48129*
X19254Y48099*
X19306Y48057*
X19347Y48002*
X19377Y47934*
X19395Y47852*
X19400Y47758*
X19400Y46950*
X19202Y46950*
X19202Y47692*
X19201Y47747*
X19197Y47794*
X19191Y47833*
X19183Y47864*
X19171Y47889*
X19155Y47911*
X19136Y47931*
X19112Y47949*
X19086Y47963*
X19057Y47973*
X19026Y47979*
X18993Y47981*
X18933Y47976*
X18879Y47960*
X18830Y47934*
X18786Y47898*
X18751Y47851*
X18725Y47791*
X18709Y47719*
X18704Y47634*
X18704Y46950*
X18505Y46950*
X18505Y47715*
X18502Y47777*
X18493Y47831*
X18477Y47877*
X18456Y47914*
X18428Y47943*
X18392Y47964*
X18348Y47977*
X18296Y47981*
X18255Y47978*
X18215Y47970*
X18177Y47956*
X18141Y47936*
X18107Y47912*
X18079Y47882*
X18056Y47847*
X18037Y47807*
X18023Y47759*
X18013Y47703*
X18007Y47636*
X18005Y47561*
X18005Y46950*
X17805Y46950*
X19897Y48574D02*
X19897Y48574D01*
X19698Y48574*
X19698Y48346*
X19897Y48346*
X19897Y48574*
X19897Y48127D02*
X19897Y48127D01*
X19698Y48127*
X19698Y46951*
X19897Y46951*
X19897Y48127*
X20400Y47593D02*
X20400Y47593D01*
X20400Y47593*
X20405Y47697*
X20405Y47697*
X20423Y47783*
X20423Y47783*
X20452Y47851*
X20452Y47851*
X20492Y47900*
X20492Y47900*
X20541Y47936*
X20541Y47936*
X20594Y47961*
X20594Y47961*
X20651Y47976*
X20651Y47976*
X20713Y47981*
X20713Y47981*
X20751Y47979*
X20751Y47979*
X20788Y47972*
X20788Y47972*
X20821Y47961*
X20821Y47961*
X20852Y47945*
X20852Y47945*
X20880Y47926*
X20880Y47926*
X20903Y47903*
X20903Y47903*
X20921Y47877*
X20921Y47877*
X20935Y47849*
X20935Y47849*
X20945Y47814*
X20945Y47814*
X20952Y47773*
X20952Y47773*
X20957Y47723*
X20957Y47723*
X20958Y47666*
X20958Y47666*
X20958Y46951*
X21157Y46951*
X21157Y47674*
X21156Y47738*
X21154Y47792*
X21150Y47835*
X21146Y47868*
X21135Y47909*
X21121Y47947*
X21104Y47982*
X21084Y48015*
X21059Y48044*
X21028Y48071*
X20992Y48094*
X20950Y48115*
X20905Y48132*
X20857Y48144*
X20807Y48151*
X20755Y48153*
X20640Y48141*
X20539Y48105*
X20453Y48044*
X20380Y47959*
X20380Y47959*
X20380Y48127*
X20201Y48127*
X20201Y46951*
X20400Y46951*
X20400Y47593*
X21954Y46927D02*
X21954Y46927D01*
X22018Y46936*
X22078Y46951*
X22135Y46972*
X22186Y46999*
X22231Y47030*
X22270Y47067*
X22302Y47108*
X22328Y47153*
X22346Y47199*
X22357Y47247*
X22360Y47296*
X22357Y47345*
X22349Y47389*
X22334Y47430*
X22313Y47466*
X22287Y47498*
X22256Y47527*
X22221Y47551*
X22182Y47571*
X22132Y47590*
X22066Y47612*
X21984Y47636*
X21886Y47663*
X21821Y47681*
X21821Y47681*
X21769Y47696*
X21769Y47696*
X21732Y47707*
X21732Y47707*
X21710Y47714*
X21710Y47714*
X21686Y47726*
X21686Y47726*
X21665Y47738*
X21665Y47738*
X21647Y47752*
X21647Y47752*
X21633Y47768*
X21633Y47768*
X21623Y47784*
X21623Y47784*
X21615Y47801*
X21615Y47801*
X21611Y47819*
X21610Y47819*
X21609Y47838*
X21609Y47838*
X21613Y47867*
X21613Y47867*
X21624Y47895*
X21624Y47895*
X21642Y47921*
X21642Y47921*
X21668Y47945*
X21668Y47945*
X21702Y47965*
X21702Y47965*
X21747Y47979*
X21747Y47979*
X21801Y47987*
X21801Y47987*
X21864Y47990*
X21864Y47990*
X21919Y47987*
X21919Y47987*
X21968Y47977*
X21968Y47977*
X22010Y47961*
X22010Y47961*
X22045Y47939*
X22045Y47939*
X22074Y47911*
X22074Y47911*
X22096Y47878*
X22096Y47878*
X22112Y47840*
X22112Y47840*
X22122Y47797*
X22316Y47824*
X22305Y47877*
X22290Y47926*
X22270Y47969*
X22248Y48005*
X22219Y48038*
X22184Y48066*
X22142Y48092*
X22093Y48113*
X22039Y48131*
X21980Y48143*
X21917Y48151*
X21850Y48153*
X21805Y48152*
X21761Y48147*
X21719Y48140*
X21678Y48129*
X21640Y48117*
X21606Y48103*
X21576Y48088*
X21551Y48071*
X21522Y48048*
X21496Y48021*
X21473Y47992*
X21453Y47960*
X21437Y47926*
X21426Y47890*
X21419Y47853*
X21417Y47815*
X21420Y47772*
X21428Y47732*
X21442Y47693*
X21461Y47657*
X21485Y47623*
X21515Y47593*
X21549Y47567*
X21589Y47545*
X21640Y47524*
X21708Y47501*
X21792Y47476*
X21893Y47449*
X21893Y47449*
X21967Y47430*
X21967Y47430*
X22026Y47412*
X22026Y47412*
X22069Y47396*
X22069Y47396*
X22097Y47382*
X22097Y47382*
X22123Y47360*
X22123Y47360*
X22142Y47335*
X22142Y47335*
X22153Y47307*
X22153Y47307*
X22156Y47275*
X22156Y47275*
X22152Y47238*
X22152Y47238*
X22140Y47204*
X22140Y47204*
X22119Y47172*
X22119Y47172*
X22090Y47143*
X22090Y47143*
X22052Y47118*
X22052Y47118*
X22005Y47101*
X22005Y47101*
X21950Y47090*
X21950Y47090*
X21885Y47087*
X21885Y47087*
X21821Y47091*
X21821Y47091*
X21764Y47103*
X21764Y47103*
X21715Y47123*
X21715Y47123*
X21673Y47150*
X21673Y47150*
X21639Y47185*
X21639Y47185*
X21612Y47227*
X21612Y47227*
X21592Y47276*
X21592Y47276*
X21580Y47332*
X21384Y47301*
X21406Y47214*
X21439Y47137*
X21483Y47072*
X21537Y47019*
X21604Y46977*
X21685Y46948*
X21779Y46930*
X21887Y46924*
X21954Y46927*
X23841Y48383D02*
X23841Y48383D01*
X23842Y48384*
X24379Y48384*
X24379Y48574*
X23092Y48574*
X23092Y48384*
X23627Y48384*
X23627Y48383*
X23627Y46951*
X23841Y46951*
X23841Y48383*
X24687Y47566D02*
X24687Y47566D01*
X24687Y47566*
X24689Y47628*
X24689Y47628*
X24695Y47688*
X24695Y47688*
X24706Y47745*
X24706Y47745*
X24720Y47799*
X24720Y47799*
X24733Y47832*
X24733Y47832*
X24750Y47862*
X24750Y47862*
X24770Y47887*
X24771Y47887*
X24795Y47909*
X24795Y47909*
X24822Y47926*
X24822Y47926*
X24850Y47938*
X24850Y47938*
X24881Y47946*
X24881Y47946*
X24913Y47948*
X24913Y47948*
X24949Y47945*
X24949Y47945*
X24986Y47937*
X24986Y47937*
X25022Y47924*
X25022Y47924*
X25059Y47905*
X25127Y48089*
X25075Y48117*
X25024Y48137*
X24973Y48149*
X24922Y48153*
X24888Y48151*
X24856Y48143*
X24825Y48131*
X24795Y48113*
X24765Y48088*
X24734Y48052*
X24702Y48006*
X24668Y47948*
X24667Y47948*
X24667Y48127*
X24489Y48127*
X24489Y46951*
X24687Y46951*
X24687Y47566*
X25639Y46926D02*
X25639Y46926D01*
X25695Y46934*
X25749Y46946*
X25801Y46963*
X25852Y46986*
X25905Y47015*
X25959Y47052*
X26014Y47096*
X26015Y47096*
X26021Y47055*
X26029Y47017*
X26040Y46983*
X26054Y46951*
X26262Y46951*
X26245Y46984*
X26245Y46984*
X26231Y47019*
X26231Y47019*
X26220Y47055*
X26220Y47055*
X26212Y47091*
X26212Y47091*
X26206Y47141*
X26206Y47141*
X26202Y47216*
X26202Y47216*
X26200Y47317*
X26200Y47317*
X26199Y47443*
X26199Y47443*
X26199Y47709*
X26198Y47771*
X26196Y47822*
X26193Y47863*
X26189Y47893*
X26178Y47932*
X26165Y47968*
X26147Y48000*
X26127Y48029*
X26102Y48054*
X26070Y48078*
X26033Y48099*
X25989Y48118*
X25938Y48133*
X25880Y48144*
X25816Y48151*
X25744Y48153*
X25670Y48151*
X25601Y48143*
X25537Y48130*
X25477Y48112*
X25423Y48089*
X25375Y48061*
X25335Y48029*
X25301Y47993*
X25273Y47952*
X25249Y47904*
X25229Y47851*
X25213Y47792*
X25408Y47765*
X25426Y47823*
X25426Y47823*
X25448Y47871*
X25448Y47871*
X25475Y47910*
X25475Y47910*
X25507Y47940*
X25507Y47940*
X25545Y47961*
X25545Y47961*
X25592Y47977*
X25593Y47977*
X25649Y47986*
X25649Y47986*
X25715Y47989*
X25715Y47989*
X25786Y47985*
X25786Y47985*
X25847Y47972*
X25847Y47972*
X25900Y47951*
X25900Y47951*
X25943Y47921*
X25943Y47921*
X25967Y47892*
X25967Y47892*
X25985Y47853*
X25985Y47853*
X25996Y47806*
X25996Y47806*
X25999Y47749*
X25999Y47749*
X25999Y47742*
X25999Y47742*
X25999Y47731*
X25999Y47731*
X25999Y47716*
X25999Y47716*
X25998Y47697*
X25998Y47697*
X25933Y47677*
X25933Y47677*
X25852Y47659*
X25852Y47659*
X25755Y47643*
X25755Y47643*
X25642Y47628*
X25642Y47628*
X25586Y47621*
X25538Y47613*
X25498Y47606*
X25465Y47598*
X25426Y47586*
X25389Y47571*
X25354Y47553*
X25321Y47533*
X25291Y47509*
X25264Y47482*
X25239Y47452*
X25218Y47418*
X25201Y47381*
X25189Y47343*
X25181Y47303*
X25179Y47260*
X25186Y47190*
X25205Y47126*
X25238Y47069*
X25283Y47019*
X25341Y46977*
X25409Y46948*
X25490Y46930*
X25581Y46924*
X25639Y46926*
X25998Y47541D02*
X25998Y47541D01*
X25937Y47519*
X25862Y47500*
X25774Y47482*
X25672Y47465*
X25615Y47456*
X25567Y47447*
X25528Y47436*
X25498Y47426*
X25474Y47413*
X25453Y47398*
X25434Y47381*
X25419Y47361*
X25407Y47339*
X25398Y47316*
X25393Y47291*
X25391Y47266*
X25395Y47228*
X25406Y47193*
X25425Y47161*
X25452Y47133*
X25485Y47110*
X25526Y47093*
X25574Y47083*
X25629Y47080*
X25685Y47083*
X25737Y47092*
X25787Y47108*
X25834Y47130*
X25875Y47158*
X25911Y47190*
X25941Y47227*
X25965Y47268*
X25980Y47306*
X25990Y47352*
X25996Y47406*
X25998Y47468*
X25998Y47541*
X26754Y47972D02*
X26754Y47972D01*
X26754Y47972*
X26984Y47972*
X26984Y48127*
X26754Y48127*
X26754Y48127*
X26754Y48236*
X26754Y48236*
X26757Y48285*
X26757Y48285*
X26764Y48325*
X26764Y48325*
X26775Y48358*
X26775Y48358*
X26792Y48381*
X26792Y48381*
X26814Y48398*
X26814Y48398*
X26843Y48411*
X26843Y48411*
X26879Y48418*
X26879Y48418*
X26921Y48420*
X26921Y48420*
X26949Y48420*
X26949Y48420*
X26978Y48417*
X26978Y48417*
X27008Y48414*
X27008Y48414*
X27038Y48409*
X27068Y48582*
X27018Y48591*
X26971Y48597*
X26925Y48601*
X26882Y48602*
X26820Y48599*
X26766Y48590*
X26719Y48575*
X26679Y48554*
X26646Y48528*
X26617Y48499*
X26595Y48465*
X26578Y48428*
X26569Y48396*
X26562Y48356*
X26558Y48308*
X26557Y48252*
X26557Y48127*
X26556Y48127*
X26381Y48127*
X26381Y47972*
X26556Y47972*
X26557Y47972*
X26557Y46951*
X26754Y46951*
X26754Y47972*
X27344Y47972D02*
X27344Y47972D01*
X27344Y47972*
X27573Y47972*
X27573Y48127*
X27344Y48127*
X27344Y48127*
X27344Y48236*
X27344Y48236*
X27346Y48285*
X27346Y48285*
X27353Y48325*
X27353Y48325*
X27365Y48358*
X27365Y48358*
X27382Y48381*
X27382Y48381*
X27404Y48398*
X27404Y48398*
X27433Y48411*
X27433Y48411*
X27468Y48418*
X27468Y48418*
X27511Y48420*
X27511Y48420*
X27539Y48420*
X27539Y48420*
X27568Y48417*
X27568Y48417*
X27598Y48414*
X27598Y48414*
X27628Y48409*
X27657Y48582*
X27608Y48591*
X27560Y48597*
X27515Y48601*
X27472Y48602*
X27410Y48599*
X27356Y48590*
X27309Y48575*
X27269Y48554*
X27235Y48528*
X27207Y48499*
X27185Y48465*
X27167Y48428*
X27158Y48396*
X27152Y48356*
X27148Y48308*
X27146Y48252*
X27146Y48127*
X27146Y48127*
X26970Y48127*
X26970Y47972*
X27146Y47972*
X27146Y47972*
X27146Y46951*
X27344Y46951*
X27344Y47972*
X27929Y48574D02*
X27929Y48574D01*
X27731Y48574*
X27731Y48346*
X27929Y48346*
X27929Y48574*
X27929Y48127D02*
X27929Y48127D01*
X27731Y48127*
X27731Y46951*
X27929Y46951*
X27929Y48127*
X28800Y46931D02*
X28800Y46931D01*
X28885Y46953*
X28963Y46988*
X29033Y47039*
X29092Y47101*
X29140Y47175*
X29175Y47260*
X29197Y47355*
X29002Y47381*
X28988Y47311*
X28988Y47311*
X28966Y47251*
X28966Y47251*
X28938Y47200*
X28938Y47200*
X28902Y47159*
X28902Y47159*
X28860Y47128*
X28860Y47128*
X28813Y47105*
X28813Y47105*
X28762Y47091*
X28762Y47091*
X28705Y47087*
X28705Y47087*
X28636Y47094*
X28636Y47094*
X28573Y47114*
X28573Y47114*
X28517Y47147*
X28517Y47148*
X28468Y47195*
X28468Y47195*
X28428Y47257*
X28428Y47257*
X28400Y47335*
X28400Y47335*
X28382Y47429*
X28382Y47429*
X28377Y47540*
X28377Y47540*
X28383Y47649*
X28383Y47649*
X28400Y47742*
X28400Y47742*
X28430Y47820*
X28430Y47820*
X28471Y47882*
X28471Y47882*
X28522Y47929*
X28522Y47929*
X28580Y47963*
X28580Y47963*
X28645Y47983*
X28645Y47983*
X28716Y47990*
X28716Y47990*
X28765Y47986*
X28765Y47986*
X28809Y47975*
X28809Y47975*
X28850Y47956*
X28850Y47956*
X28887Y47930*
X28887Y47930*
X28920Y47897*
X28920Y47897*
X28947Y47856*
X28947Y47856*
X28969Y47807*
X28969Y47807*
X28985Y47752*
X29178Y47782*
X29156Y47865*
X29122Y47939*
X29077Y48003*
X29022Y48056*
X28957Y48099*
X28883Y48129*
X28800Y48147*
X28709Y48153*
X28634Y48149*
X28563Y48135*
X28494Y48113*
X28428Y48082*
X28368Y48042*
X28315Y47993*
X28272Y47935*
X28236Y47868*
X28208Y47793*
X28189Y47713*
X28177Y47626*
X28173Y47534*
X28182Y47395*
X28209Y47274*
X28255Y47169*
X28319Y47082*
X28399Y47013*
X28490Y46963*
X28593Y46934*
X28708Y46924*
X28800Y46931*
X30729Y46927D02*
X30729Y46927D01*
X30809Y46939*
X30885Y46959*
X30957Y46986*
X31022Y47022*
X31080Y47063*
X31129Y47111*
X31170Y47165*
X31203Y47223*
X31226Y47283*
X31240Y47345*
X31244Y47409*
X31240Y47472*
X31227Y47532*
X31206Y47588*
X31177Y47640*
X31138Y47688*
X31091Y47731*
X31034Y47770*
X30967Y47805*
X30908Y47828*
X30829Y47853*
X30729Y47880*
X30608Y47909*
X30608Y47909*
X30489Y47938*
X30489Y47938*
X30396Y47967*
X30396Y47967*
X30327Y47996*
X30327Y47996*
X30284Y48025*
X30283Y48025*
X30256Y48055*
X30256Y48055*
X30236Y48089*
X30236Y48089*
X30224Y48127*
X30224Y48127*
X30220Y48169*
X30220Y48169*
X30226Y48218*
X30226Y48218*
X30242Y48263*
X30242Y48263*
X30270Y48304*
X30270Y48304*
X30310Y48342*
X30310Y48342*
X30361Y48373*
X30361Y48373*
X30425Y48396*
X30425Y48396*
X30503Y48409*
X30503Y48409*
X30594Y48414*
X30594Y48414*
X30682Y48409*
X30682Y48409*
X30759Y48394*
X30759Y48394*
X30824Y48369*
X30824Y48369*
X30878Y48335*
X30878Y48335*
X30921Y48291*
X30921Y48291*
X30954Y48237*
X30954Y48237*
X30977Y48174*
X30977Y48174*
X30990Y48102*
X31195Y48118*
X31188Y48187*
X31173Y48252*
X31149Y48315*
X31116Y48373*
X31075Y48426*
X31026Y48472*
X30969Y48511*
X30904Y48544*
X30832Y48569*
X30755Y48588*
X30673Y48598*
X30585Y48602*
X30505Y48599*
X30429Y48588*
X30356Y48571*
X30287Y48547*
X30224Y48516*
X30169Y48478*
X30122Y48435*
X30084Y48385*
X30053Y48330*
X30031Y48274*
X30018Y48215*
X30014Y48155*
X30017Y48100*
X30028Y48048*
X30046Y47999*
X30071Y47953*
X30103Y47910*
X30143Y47870*
X30190Y47834*
X30244Y47802*
X30297Y47778*
X30367Y47753*
X30454Y47727*
X30558Y47700*
X30660Y47675*
X30660Y47675*
X30742Y47654*
X30742Y47654*
X30804Y47636*
X30804Y47636*
X30847Y47621*
X30847Y47621*
X30894Y47601*
X30894Y47600*
X30935Y47578*
X30935Y47578*
X30968Y47552*
X30968Y47552*
X30994Y47525*
X30994Y47525*
X31013Y47495*
X31013Y47495*
X31027Y47463*
X31027Y47463*
X31035Y47428*
X31035Y47428*
X31038Y47391*
X31038Y47391*
X31035Y47354*
X31035Y47354*
X31027Y47319*
X31026Y47319*
X31012Y47284*
X31012Y47284*
X30992Y47252*
X30992Y47252*
X30966Y47222*
X30966Y47221*
X30934Y47195*
X30934Y47195*
X30896Y47171*
X30896Y47171*
X30852Y47151*
X30851Y47151*
X30803Y47135*
X30803Y47135*
X30750Y47124*
X30750Y47124*
X30694Y47117*
X30694Y47117*
X30634Y47115*
X30634Y47115*
X30566Y47118*
X30566Y47118*
X30502Y47127*
X30502Y47127*
X30442Y47142*
X30442Y47142*
X30384Y47163*
X30384Y47163*
X30333Y47189*
X30333Y47189*
X30288Y47219*
X30288Y47219*
X30251Y47252*
X30251Y47252*
X30221Y47289*
X30221Y47289*
X30197Y47331*
X30197Y47331*
X30178Y47379*
X30178Y47379*
X30163Y47431*
X30163Y47431*
X30154Y47489*
X29952Y47472*
X29959Y47393*
X29976Y47318*
X30004Y47247*
X30041Y47180*
X30087Y47120*
X30142Y47067*
X30204Y47023*
X30275Y46987*
X30354Y46959*
X30441Y46939*
X30538Y46927*
X30644Y46923*
X30729Y46927*
X31679Y46476D02*
X31679Y46476D01*
X31721Y46484*
X31761Y46499*
X31797Y46519*
X31830Y46545*
X31861Y46578*
X31891Y46617*
X31918Y46663*
X31940Y46707*
X31966Y46766*
X31996Y46841*
X32030Y46930*
X32478Y48127*
X32279Y48127*
X32028Y47441*
X32005Y47375*
X31984Y47308*
X31964Y47241*
X31946Y47172*
X31945Y47172*
X31925Y47243*
X31905Y47312*
X31883Y47380*
X31860Y47445*
X31615Y48127*
X31401Y48127*
X31847Y46948*
X31847Y46948*
X31841Y46933*
X31837Y46919*
X31833Y46908*
X31829Y46899*
X31829Y46899*
X31810Y46845*
X31810Y46845*
X31793Y46802*
X31793Y46802*
X31779Y46771*
X31779Y46771*
X31768Y46750*
X31768Y46750*
X31755Y46731*
X31755Y46731*
X31739Y46715*
X31739Y46715*
X31722Y46700*
X31722Y46700*
X31703Y46688*
X31703Y46688*
X31681Y46678*
X31681Y46678*
X31656Y46671*
X31656Y46671*
X31628Y46667*
X31628Y46667*
X31596Y46666*
X31596Y46666*
X31571Y46667*
X31571Y46667*
X31543Y46670*
X31543Y46670*
X31514Y46676*
X31514Y46676*
X31483Y46683*
X31505Y46497*
X31539Y46486*
X31572Y46479*
X31603Y46474*
X31633Y46473*
X31679Y46476*
X33139Y46927D02*
X33139Y46927D01*
X33203Y46936*
X33263Y46951*
X33320Y46972*
X33371Y46999*
X33416Y47030*
X33455Y47067*
X33487Y47108*
X33513Y47153*
X33531Y47199*
X33542Y47247*
X33545Y47296*
X33542Y47345*
X33534Y47389*
X33519Y47430*
X33498Y47466*
X33472Y47498*
X33441Y47527*
X33406Y47551*
X33367Y47571*
X33317Y47590*
X33251Y47612*
X33169Y47636*
X33071Y47663*
X33006Y47681*
X33006Y47681*
X32954Y47696*
X32954Y47696*
X32917Y47707*
X32917Y47707*
X32895Y47714*
X32895Y47714*
X32871Y47726*
X32871Y47726*
X32850Y47738*
X32850Y47738*
X32832Y47752*
X32832Y47752*
X32818Y47768*
X32818Y47768*
X32808Y47784*
X32808Y47784*
X32800Y47801*
X32800Y47801*
X32795Y47819*
X32795Y47819*
X32794Y47838*
X32794Y47838*
X32798Y47867*
X32798Y47867*
X32809Y47895*
X32809Y47895*
X32827Y47921*
X32827Y47921*
X32853Y47945*
X32853Y47945*
X32887Y47965*
X32887Y47965*
X32931Y47979*
X32932Y47979*
X32986Y47987*
X32986Y47987*
X33049Y47990*
X33049Y47990*
X33104Y47987*
X33104Y47987*
X33153Y47977*
X33153Y47977*
X33195Y47961*
X33195Y47961*
X33230Y47939*
X33230Y47939*
X33259Y47911*
X33259Y47911*
X33281Y47878*
X33281Y47878*
X33297Y47840*
X33297Y47840*
X33307Y47797*
X33501Y47824*
X33490Y47877*
X33475Y47926*
X33455Y47969*
X33432Y48005*
X33404Y48038*
X33369Y48066*
X33327Y48092*
X33278Y48113*
X33224Y48131*
X33165Y48143*
X33102Y48151*
X33035Y48153*
X32990Y48152*
X32946Y48147*
X32904Y48140*
X32863Y48129*
X32825Y48117*
X32791Y48103*
X32761Y48088*
X32736Y48071*
X32707Y48048*
X32681Y48021*
X32658Y47992*
X32638Y47960*
X32622Y47926*
X32611Y47890*
X32604Y47853*
X32602Y47815*
X32605Y47772*
X32613Y47732*
X32627Y47693*
X32646Y47657*
X32670Y47623*
X32700Y47593*
X32734Y47567*
X32774Y47545*
X32825Y47524*
X32893Y47501*
X32977Y47476*
X33078Y47449*
X33078Y47449*
X33152Y47430*
X33152Y47430*
X33211Y47412*
X33211Y47412*
X33254Y47396*
X33254Y47396*
X33282Y47382*
X33282Y47382*
X33308Y47360*
X33308Y47360*
X33327Y47335*
X33327Y47335*
X33338Y47307*
X33338Y47307*
X33341Y47275*
X33341Y47275*
X33337Y47238*
X33337Y47238*
X33325Y47204*
X33325Y47204*
X33304Y47172*
X33304Y47172*
X33275Y47143*
X33275Y47143*
X33237Y47118*
X33237Y47118*
X33190Y47101*
X33190Y47101*
X33135Y47090*
X33135Y47090*
X33070Y47087*
X33070Y47087*
X33006Y47091*
X33006Y47091*
X32949Y47103*
X32949Y47103*
X32900Y47123*
X32900Y47123*
X32858Y47150*
X32858Y47150*
X32824Y47185*
X32823Y47185*
X32797Y47227*
X32797Y47227*
X32777Y47276*
X32777Y47276*
X32765Y47332*
X32569Y47301*
X32591Y47214*
X32624Y47137*
X32668Y47072*
X32722Y47019*
X32789Y46977*
X32870Y46948*
X32964Y46930*
X33072Y46924*
X33139Y46927*
X34131Y46936D02*
X34131Y46936D01*
X34168Y46939*
X34207Y46945*
X34247Y46953*
X34218Y47128*
X34193Y47125*
X34193Y47125*
X34170Y47122*
X34170Y47122*
X34149Y47121*
X34149Y47121*
X34131Y47120*
X34131Y47120*
X34110Y47121*
X34110Y47121*
X34092Y47124*
X34092Y47124*
X34076Y47128*
X34076Y47128*
X34063Y47135*
X34063Y47135*
X34052Y47143*
X34052Y47143*
X34042Y47152*
X34042Y47152*
X34034Y47162*
X34034Y47162*
X34028Y47174*
X34028Y47174*
X34024Y47190*
X34024Y47190*
X34020Y47213*
X34020Y47213*
X34018Y47245*
X34018Y47245*
X34018Y47284*
X34018Y47284*
X34018Y47972*
X34018Y47972*
X34218Y47972*
X34218Y48127*
X34018Y48127*
X34018Y48127*
X34018Y48537*
X33820Y48418*
X33820Y48127*
X33820Y48127*
X33674Y48127*
X33674Y47972*
X33820Y47972*
X33820Y47972*
X33820Y47295*
X33822Y47213*
X33826Y47146*
X33834Y47095*
X33845Y47059*
X33859Y47033*
X33878Y47009*
X33901Y46988*
X33929Y46969*
X33962Y46954*
X34001Y46944*
X34046Y46937*
X34097Y46935*
X34131Y46936*
X35006Y46930D02*
X35006Y46930D01*
X35095Y46949*
X35174Y46980*
X35245Y47024*
X35306Y47078*
X35356Y47143*
X35396Y47219*
X35425Y47303*
X35220Y47329*
X35195Y47270*
X35195Y47270*
X35167Y47220*
X35167Y47220*
X35134Y47178*
X35134Y47178*
X35097Y47145*
X35097Y47145*
X35056Y47119*
X35056Y47119*
X35011Y47101*
X35011Y47101*
X34962Y47091*
X34962Y47091*
X34909Y47087*
X34909Y47087*
X34839Y47093*
X34839Y47093*
X34774Y47113*
X34774Y47113*
X34715Y47145*
X34715Y47145*
X34663Y47190*
X34663Y47190*
X34619Y47247*
X34619Y47247*
X34586Y47316*
X34586Y47316*
X34564Y47396*
X34564Y47396*
X34553Y47488*
X34553Y47488*
X35431Y47488*
X35431Y47504*
X35432Y47519*
X35432Y47531*
X35432Y47541*
X35423Y47678*
X35395Y47799*
X35348Y47904*
X35282Y47993*
X35202Y48063*
X35111Y48113*
X35010Y48143*
X34897Y48153*
X34781Y48143*
X34676Y48112*
X34583Y48061*
X34501Y47989*
X34434Y47899*
X34386Y47792*
X34357Y47669*
X34348Y47529*
X34357Y47393*
X34386Y47274*
X34433Y47170*
X34499Y47083*
X34581Y47013*
X34677Y46964*
X34786Y46934*
X34908Y46924*
X35006Y46930*
X34565Y47652D02*
X34565Y47652D01*
X35222Y47652*
X35212Y47721*
X35196Y47782*
X35174Y47833*
X35147Y47874*
X35095Y47925*
X35037Y47961*
X34972Y47982*
X34899Y47990*
X34833Y47984*
X34773Y47967*
X34718Y47938*
X34668Y47898*
X34627Y47848*
X34595Y47790*
X34575Y47725*
X34565Y47652*
X35676Y46950D02*
X35676Y46950D01*
X35676Y48127*
X35855Y48127*
X35855Y47962*
X35885Y48003*
X35919Y48040*
X35958Y48073*
X36002Y48101*
X36050Y48124*
X36101Y48141*
X36155Y48150*
X36212Y48154*
X36274Y48150*
X36331Y48140*
X36381Y48123*
X36426Y48099*
X36465Y48070*
X36498Y48034*
X36524Y47994*
X36544Y47948*
X36619Y48038*
X36705Y48102*
X36801Y48141*
X36908Y48154*
X36990Y48148*
X37063Y48129*
X37125Y48099*
X37177Y48057*
X37218Y48002*
X37248Y47934*
X37265Y47852*
X37271Y47758*
X37271Y46950*
X37073Y46950*
X37073Y47692*
X37072Y47747*
X37068Y47794*
X37062Y47833*
X37054Y47864*
X37042Y47889*
X37026Y47911*
X37007Y47931*
X36983Y47949*
X36957Y47963*
X36928Y47973*
X36897Y47979*
X36863Y47981*
X36804Y47976*
X36750Y47960*
X36701Y47934*
X36657Y47898*
X36621Y47851*
X36596Y47791*
X36580Y47719*
X36575Y47634*
X36575Y46950*
X36376Y46950*
X36376Y47715*
X36373Y47777*
X36364Y47831*
X36348Y47877*
X36327Y47914*
X36299Y47943*
X36263Y47964*
X36219Y47977*
X36167Y47981*
X36126Y47978*
X36086Y47970*
X36048Y47956*
X36012Y47936*
X35978Y47912*
X35950Y47882*
X35927Y47847*
X35908Y47807*
X35894Y47759*
X35884Y47703*
X35878Y47636*
X35876Y47561*
X35876Y46950*
X35676Y46950*
X38932Y47809D02*
X38932Y47809D01*
X38932Y47809*
X39503Y48574*
X39270Y48574*
X38943Y48143*
X38907Y48096*
X38874Y48049*
X38843Y48003*
X38815Y47958*
X38814Y47958*
X38791Y47997*
X38762Y48043*
X38726Y48097*
X38683Y48158*
X38388Y48574*
X38134Y48574*
X38687Y47797*
X38687Y47797*
X38059Y46951*
X38316Y46951*
X38724Y47517*
X38738Y47537*
X38755Y47564*
X38776Y47598*
X38802Y47639*
X38802Y47639*
X38821Y47610*
X38838Y47582*
X38856Y47555*
X38873Y47530*
X39282Y46951*
X39547Y46951*
X38932Y47809*
X40705Y47141D02*
X40705Y47141D01*
X39908Y47141*
X39908Y47142*
X39926Y47169*
X39926Y47169*
X39946Y47196*
X39946Y47196*
X39968Y47223*
X39968Y47223*
X39992Y47250*
X39992Y47250*
X40026Y47283*
X40026Y47283*
X40075Y47328*
X40075Y47328*
X40141Y47385*
X40141Y47385*
X40223Y47455*
X40323Y47541*
X40407Y47617*
X40476Y47684*
X40530Y47741*
X40573Y47792*
X40610Y47842*
X40639Y47891*
X40663Y47939*
X40680Y47986*
X40693Y48034*
X40700Y48082*
X40702Y48130*
X40694Y48222*
X40668Y48306*
X40626Y48383*
X40566Y48452*
X40492Y48508*
X40406Y48549*
X40307Y48573*
X40196Y48581*
X40087Y48574*
X39989Y48551*
X39902Y48513*
X39828Y48461*
X39766Y48394*
X39719Y48314*
X39687Y48219*
X39669Y48112*
X39873Y48091*
X39879Y48163*
X39879Y48163*
X39896Y48227*
X39896Y48227*
X39923Y48283*
X39923Y48283*
X39961Y48330*
X39961Y48330*
X40008Y48368*
X40008Y48368*
X40062Y48395*
X40062Y48395*
X40123Y48412*
X40124Y48412*
X40192Y48417*
X40192Y48417*
X40257Y48412*
X40257Y48412*
X40316Y48397*
X40316Y48397*
X40368Y48371*
X40368Y48371*
X40413Y48335*
X40414Y48335*
X40451Y48292*
X40451Y48292*
X40477Y48244*
X40477Y48244*
X40493Y48192*
X40493Y48192*
X40498Y48135*
X40498Y48135*
X40493Y48077*
X40493Y48077*
X40475Y48018*
X40475Y48018*
X40446Y47957*
X40446Y47957*
X40405Y47895*
X40405Y47895*
X40348Y47825*
X40348Y47825*
X40269Y47745*
X40269Y47745*
X40169Y47653*
X40169Y47653*
X40047Y47550*
X40047Y47550*
X39967Y47483*
X39897Y47419*
X39836Y47360*
X39786Y47304*
X39744Y47251*
X39708Y47197*
X39678Y47143*
X39655Y47088*
X39644Y47055*
X39636Y47021*
X39632Y46986*
X39632Y46951*
X40705Y46951*
X40705Y47141*
X41534Y46929D02*
X41534Y46929D01*
X41612Y46947*
X41682Y46977*
X41744Y47019*
X41799Y47071*
X41846Y47134*
X41887Y47207*
X41920Y47290*
X41945Y47385*
X41964Y47493*
X41975Y47615*
X41978Y47751*
X41976Y47866*
X41969Y47968*
X41958Y48058*
X41942Y48135*
X41922Y48204*
X41898Y48267*
X41871Y48325*
X41841Y48377*
X41807Y48423*
X41768Y48464*
X41725Y48499*
X41678Y48528*
X41627Y48551*
X41572Y48568*
X41512Y48578*
X41449Y48581*
X41364Y48575*
X41287Y48557*
X41217Y48527*
X41155Y48486*
X41100Y48433*
X41053Y48371*
X41012Y48298*
X40979Y48215*
X40953Y48120*
X40934Y48011*
X40923Y47888*
X40920Y47751*
X40930Y47538*
X40960Y47357*
X41010Y47208*
X41080Y47091*
X41154Y47017*
X41239Y46965*
X41338Y46933*
X41449Y46923*
X41534Y46929*
X41124Y47751D02*
X41124Y47751D01*
X41130Y47568*
X41148Y47418*
X41177Y47302*
X41218Y47219*
X41267Y47161*
X41322Y47119*
X41383Y47095*
X41449Y47086*
X41515Y47095*
X41575Y47120*
X41630Y47161*
X41680Y47219*
X41721Y47302*
X41750Y47419*
X41768Y47568*
X41774Y47751*
X41768Y47935*
X41750Y48085*
X41721Y48202*
X41680Y48285*
X41630Y48342*
X41575Y48383*
X41514Y48408*
X41447Y48416*
X41381Y48409*
X41323Y48387*
X41272Y48351*
X41227Y48300*
X41182Y48210*
X41150Y48089*
X41131Y47936*
X41124Y47751*
X42797Y46929D02*
X42797Y46929D01*
X42874Y46947*
X42944Y46977*
X43007Y47019*
X43061Y47071*
X43109Y47134*
X43149Y47207*
X43182Y47290*
X43208Y47385*
X43226Y47493*
X43237Y47615*
X43241Y47751*
X43238Y47866*
X43232Y47968*
X43220Y48058*
X43204Y48135*
X43184Y48204*
X43161Y48267*
X43134Y48325*
X43103Y48377*
X43069Y48423*
X43031Y48464*
X42988Y48499*
X42941Y48528*
X42889Y48551*
X42834Y48568*
X42775Y48578*
X42711Y48581*
X42627Y48575*
X42549Y48557*
X42480Y48527*
X42417Y48486*
X42363Y48433*
X42315Y48371*
X42275Y48298*
X42241Y48215*
X42215Y48120*
X42197Y48011*
X42186Y47888*
X42182Y47751*
X42192Y47538*
X42222Y47357*
X42272Y47208*
X42343Y47091*
X42416Y47017*
X42502Y46965*
X42600Y46933*
X42711Y46923*
X42797Y46929*
X42387Y47751D02*
X42387Y47751D01*
X42393Y47568*
X42410Y47418*
X42439Y47302*
X42480Y47219*
X42530Y47161*
X42585Y47119*
X42645Y47095*
X42711Y47086*
X42777Y47095*
X42838Y47120*
X42893Y47161*
X42943Y47219*
X42984Y47302*
X43013Y47419*
X43030Y47568*
X43036Y47751*
X43030Y47935*
X43013Y48085*
X42984Y48202*
X42943Y48285*
X42893Y48342*
X42837Y48383*
X42776Y48408*
X42709Y48416*
X42644Y48409*
X42586Y48387*
X42534Y48351*
X42490Y48300*
X42445Y48210*
X42412Y48089*
X42393Y47936*
X42387Y47751*
X44059Y46929D02*
X44059Y46929D01*
X44137Y46947*
X44207Y46977*
X44269Y47019*
X44324Y47071*
X44371Y47134*
X44412Y47207*
X44445Y47290*
X44470Y47385*
X44489Y47493*
X44500Y47615*
X44503Y47751*
X44501Y47866*
X44494Y47968*
X44483Y48058*
X44467Y48135*
X44447Y48204*
X44423Y48267*
X44396Y48325*
X44366Y48377*
X44332Y48423*
X44293Y48464*
X44250Y48499*
X44203Y48528*
X44152Y48551*
X44097Y48568*
X44037Y48578*
X43974Y48581*
X43889Y48575*
X43812Y48557*
X43742Y48527*
X43680Y48486*
X43625Y48433*
X43578Y48371*
X43537Y48298*
X43504Y48215*
X43478Y48120*
X43459Y48011*
X43448Y47888*
X43445Y47751*
X43455Y47538*
X43485Y47357*
X43535Y47208*
X43605Y47091*
X43679Y47017*
X43764Y46965*
X43863Y46933*
X43974Y46923*
X44059Y46929*
X43649Y47751D02*
X43649Y47751D01*
X43655Y47568*
X43673Y47418*
X43702Y47302*
X43743Y47219*
X43792Y47161*
X43847Y47119*
X43908Y47095*
X43974Y47086*
X44040Y47095*
X44100Y47120*
X44155Y47161*
X44205Y47219*
X44246Y47302*
X44275Y47419*
X44293Y47568*
X44299Y47751*
X44293Y47935*
X44275Y48085*
X44246Y48202*
X44205Y48285*
X44155Y48342*
X44100Y48383*
X44039Y48408*
X43972Y48416*
X43906Y48409*
X43848Y48387*
X43797Y48351*
X43752Y48300*
X43707Y48210*
X43675Y48089*
X43656Y47936*
X43649Y47751*
X46351Y48127D02*
X46351Y48127D01*
X46147Y48127*
X45885Y47409*
X45863Y47346*
X45843Y47287*
X45826Y47234*
X45811Y47184*
X45810Y47184*
X45792Y47246*
X45774Y47306*
X45755Y47364*
X45735Y47422*
X45482Y48127*
X45273Y48127*
X45720Y46951*
X45906Y46951*
X46351Y48127*
X47087Y46929D02*
X47087Y46929D01*
X47165Y46947*
X47235Y46977*
X47297Y47019*
X47352Y47071*
X47399Y47134*
X47440Y47207*
X47473Y47290*
X47498Y47385*
X47517Y47493*
X47528Y47615*
X47531Y47751*
X47529Y47866*
X47522Y47968*
X47511Y48058*
X47495Y48135*
X47475Y48204*
X47451Y48267*
X47424Y48325*
X47394Y48377*
X47360Y48423*
X47321Y48464*
X47278Y48499*
X47231Y48528*
X47180Y48551*
X47125Y48568*
X47065Y48578*
X47002Y48581*
X46917Y48575*
X46840Y48557*
X46770Y48527*
X46708Y48486*
X46653Y48433*
X46606Y48371*
X46565Y48298*
X46532Y48215*
X46506Y48120*
X46488Y48011*
X46477Y47888*
X46473Y47751*
X46483Y47538*
X46513Y47357*
X46563Y47208*
X46633Y47091*
X46707Y47017*
X46793Y46965*
X46891Y46933*
X47002Y46923*
X47087Y46929*
X46677Y47751D02*
X46677Y47751D01*
X46683Y47568*
X46701Y47418*
X46730Y47302*
X46771Y47219*
X46821Y47161*
X46876Y47119*
X46936Y47095*
X47002Y47086*
X47068Y47095*
X47129Y47120*
X47184Y47161*
X47233Y47219*
X47274Y47302*
X47303Y47419*
X47321Y47568*
X47327Y47751*
X47321Y47935*
X47303Y48085*
X47274Y48202*
X47233Y48285*
X47184Y48342*
X47128Y48383*
X47067Y48408*
X47000Y48416*
X46935Y48409*
X46876Y48387*
X46825Y48351*
X46780Y48300*
X46735Y48210*
X46703Y48089*
X46684Y47936*
X46677Y47751*
X48073Y47177D02*
X48073Y47177D01*
X47847Y47177*
X47847Y46951*
X48073Y46951*
X48073Y47177*
X49116Y48581D02*
X49116Y48581D01*
X48989Y48581*
X48958Y48528*
X48958Y48528*
X48918Y48474*
X48918Y48474*
X48869Y48420*
X48869Y48420*
X48811Y48364*
X48811Y48364*
X48746Y48310*
X48746Y48310*
X48676Y48260*
X48676Y48260*
X48600Y48215*
X48600Y48215*
X48519Y48173*
X48519Y47982*
X48566Y48001*
X48617Y48024*
X48671Y48052*
X48728Y48084*
X48784Y48119*
X48834Y48153*
X48878Y48187*
X48917Y48222*
X48918Y48222*
X48918Y46951*
X49116Y46951*
X49116Y48581*
X53056Y41192D02*
X53056Y41192D01*
X53120Y41213*
X53176Y41247*
X53223Y41295*
X53255Y41342*
X53277Y41393*
X53290Y41449*
X53295Y41508*
X53290Y41570*
X53275Y41626*
X53249Y41676*
X53213Y41720*
X53170Y41756*
X53122Y41782*
X53070Y41797*
X53013Y41802*
X52968Y41799*
X52925Y41788*
X52883Y41770*
X52841Y41745*
X52840Y41745*
X52889Y41990*
X52890Y41991*
X53252Y41991*
X53252Y42096*
X52801Y42096*
X52713Y41630*
X52817Y41617*
X52831Y41635*
X52831Y41635*
X52846Y41652*
X52846Y41652*
X52865Y41667*
X52865Y41667*
X52885Y41680*
X52885Y41680*
X52908Y41691*
X52908Y41691*
X52931Y41699*
X52932Y41699*
X52957Y41703*
X52957Y41703*
X52983Y41705*
X52983Y41705*
X53024Y41701*
X53024Y41701*
X53062Y41691*
X53062Y41691*
X53095Y41674*
X53095Y41674*
X53124Y41649*
X53124Y41649*
X53147Y41619*
X53147Y41619*
X53164Y41584*
X53164Y41584*
X53174Y41544*
X53174Y41544*
X53178Y41498*
X53178Y41498*
X53174Y41450*
X53174Y41450*
X53164Y41408*
X53164Y41408*
X53146Y41370*
X53146Y41370*
X53122Y41337*
X53122Y41337*
X53092Y41310*
X53092Y41310*
X53059Y41291*
X53059Y41291*
X53024Y41280*
X53024Y41280*
X52985Y41276*
X52985Y41276*
X52952Y41278*
X52952Y41278*
X52923Y41287*
X52922Y41287*
X52895Y41300*
X52895Y41300*
X52870Y41319*
X52870Y41319*
X52848Y41343*
X52848Y41343*
X52831Y41373*
X52831Y41373*
X52818Y41408*
X52818Y41408*
X52810Y41448*
X52693Y41438*
X52703Y41384*
X52721Y41335*
X52748Y41292*
X52783Y41254*
X52825Y41224*
X52872Y41202*
X52926Y41189*
X52985Y41185*
X53056Y41192*
X54183Y42109D02*
X54183Y42109D01*
X54061Y42109*
X53816Y41448*
X53802Y41411*
X53789Y41374*
X53778Y41337*
X53767Y41299*
X53766Y41299*
X53755Y41335*
X53744Y41372*
X53732Y41409*
X53718Y41448*
X53482Y42109*
X53353Y42109*
X53704Y41201*
X53827Y41201*
X54183Y42109*
X54741Y6907D02*
X54741Y6907D01*
X54293Y6907*
X54293Y6907*
X54293Y7709*
X54174Y7709*
X54174Y6801*
X54741Y6801*
X54741Y6907*
X55565Y6907D02*
X55565Y6907D01*
X55007Y6907*
X55007Y6907*
X55007Y7217*
X55007Y7217*
X55509Y7217*
X55509Y7323*
X55007Y7323*
X55007Y7323*
X55007Y7602*
X55007Y7602*
X55544Y7602*
X55544Y7709*
X54887Y7709*
X54887Y6801*
X55565Y6801*
X55565Y6907*
X56099Y6801D02*
X56099Y6801D01*
X56137Y6804*
X56172Y6809*
X56205Y6816*
X56236Y6825*
X56264Y6835*
X56290Y6847*
X56314Y6862*
X56336Y6878*
X56357Y6897*
X56377Y6919*
X56396Y6944*
X56414Y6972*
X56431Y7003*
X56445Y7038*
X56458Y7076*
X56469Y7118*
X56476Y7162*
X56481Y7209*
X56482Y7260*
X56480Y7319*
X56474Y7374*
X56462Y7427*
X56447Y7475*
X56427Y7521*
X56402Y7561*
X56373Y7598*
X56339Y7631*
X56310Y7652*
X56279Y7670*
X56244Y7685*
X56206Y7696*
X56175Y7701*
X56138Y7705*
X56094Y7708*
X56045Y7709*
X55732Y7709*
X55732Y6801*
X56059Y6801*
X56099Y6801*
X55852Y6907D02*
X55852Y6907D01*
X56046Y6907*
X56088Y6908*
X56126Y6911*
X56159Y6917*
X56187Y6924*
X56211Y6933*
X56233Y6944*
X56252Y6957*
X56268Y6971*
X56289Y6994*
X56306Y7021*
X56322Y7052*
X56335Y7086*
X56346Y7124*
X56353Y7166*
X56357Y7212*
X56359Y7261*
X56356Y7329*
X56347Y7387*
X56333Y7438*
X56312Y7481*
X56287Y7516*
X56260Y7545*
X56231Y7567*
X56198Y7583*
X56170Y7591*
X56135Y7597*
X56093Y7601*
X56043Y7602*
X55852Y7602*
X55852Y6907*
X57271Y6628D02*
X57271Y6628D01*
X56532Y6628*
X56532Y6548*
X57271Y6548*
X57271Y6628*
X57475Y7170D02*
X57475Y7170D01*
X57475Y7170*
X57708Y7170*
X57797Y7175*
X57871Y7190*
X57930Y7215*
X57975Y7250*
X58007Y7293*
X58030Y7339*
X58044Y7390*
X58048Y7446*
X58047Y7479*
X58041Y7511*
X58033Y7541*
X58021Y7570*
X58006Y7597*
X57989Y7620*
X57970Y7640*
X57948Y7658*
X57924Y7672*
X57897Y7684*
X57868Y7693*
X57836Y7700*
X57809Y7704*
X57778Y7706*
X57740Y7708*
X57698Y7709*
X57355Y7709*
X57355Y6801*
X57475Y6801*
X57475Y7170*
X57475Y7277D02*
X57475Y7277D01*
X57710Y7277*
X57764Y7280*
X57810Y7288*
X57847Y7301*
X57876Y7320*
X57897Y7344*
X57913Y7373*
X57922Y7405*
X57925Y7442*
X57923Y7470*
X57918Y7495*
X57909Y7519*
X57896Y7540*
X57880Y7559*
X57863Y7574*
X57842Y7586*
X57820Y7594*
X57802Y7597*
X57777Y7600*
X57745Y7601*
X57708Y7602*
X57475Y7602*
X57475Y7277*
X58658Y6789D02*
X58658Y6789D01*
X58714Y6799*
X58769Y6817*
X58821Y6841*
X58869Y6872*
X58911Y6910*
X58948Y6955*
X58979Y7006*
X59003Y7062*
X59020Y7122*
X59031Y7186*
X59034Y7253*
X59031Y7320*
X59021Y7382*
X59004Y7442*
X58981Y7497*
X58952Y7548*
X58916Y7593*
X58875Y7632*
X58827Y7665*
X58775Y7691*
X58720Y7710*
X58662Y7721*
X58601Y7725*
X58509Y7717*
X58426Y7693*
X58352Y7653*
X58287Y7597*
X58234Y7527*
X58196Y7444*
X58174Y7350*
X58166Y7243*
X58169Y7184*
X58179Y7126*
X58195Y7070*
X58218Y7016*
X58247Y6965*
X58282Y6920*
X58324Y6881*
X58371Y6847*
X58423Y6820*
X58479Y6800*
X58538Y6789*
X58600Y6785*
X58658Y6789*
X58289Y7241D02*
X58289Y7241D01*
X58295Y7163*
X58312Y7094*
X58339Y7034*
X58378Y6982*
X58425Y6941*
X58477Y6911*
X58536Y6893*
X58599Y6887*
X58664Y6893*
X58723Y6911*
X58776Y6941*
X58823Y6983*
X58861Y7036*
X58889Y7098*
X58905Y7171*
X58911Y7254*
X58908Y7308*
X58901Y7358*
X58890Y7405*
X58873Y7448*
X58852Y7487*
X58827Y7521*
X58797Y7551*
X58764Y7576*
X58726Y7596*
X58687Y7610*
X58645Y7619*
X58601Y7622*
X58540Y7616*
X58483Y7600*
X58430Y7572*
X58382Y7534*
X58341Y7483*
X58312Y7417*
X58295Y7336*
X58289Y7241*
X59584Y6787D02*
X59584Y6787D01*
X59629Y6794*
X59671Y6805*
X59711Y6821*
X59748Y6840*
X59780Y6863*
X59808Y6890*
X59831Y6920*
X59849Y6953*
X59862Y6986*
X59870Y7021*
X59872Y7057*
X59870Y7092*
X59863Y7125*
X59851Y7157*
X59834Y7186*
X59813Y7213*
X59786Y7237*
X59754Y7259*
X59717Y7278*
X59684Y7291*
X59640Y7305*
X59584Y7320*
X59516Y7336*
X59516Y7336*
X59450Y7353*
X59450Y7353*
X59398Y7369*
X59397Y7369*
X59359Y7385*
X59359Y7385*
X59335Y7401*
X59335Y7401*
X59319Y7418*
X59319Y7418*
X59308Y7437*
X59308Y7437*
X59301Y7459*
X59301Y7459*
X59299Y7482*
X59299Y7482*
X59302Y7509*
X59302Y7509*
X59312Y7535*
X59312Y7535*
X59327Y7558*
X59327Y7558*
X59349Y7579*
X59349Y7579*
X59378Y7597*
X59378Y7597*
X59414Y7609*
X59414Y7609*
X59458Y7617*
X59458Y7617*
X59509Y7619*
X59509Y7619*
X59558Y7616*
X59558Y7616*
X59601Y7608*
X59601Y7608*
X59637Y7594*
X59637Y7594*
X59667Y7575*
X59667Y7575*
X59691Y7550*
X59692Y7550*
X59710Y7520*
X59710Y7520*
X59723Y7485*
X59723Y7485*
X59730Y7445*
X59845Y7453*
X59841Y7492*
X59832Y7529*
X59819Y7563*
X59800Y7596*
X59777Y7626*
X59750Y7651*
X59718Y7673*
X59682Y7692*
X59642Y7706*
X59599Y7716*
X59553Y7722*
X59504Y7724*
X59459Y7722*
X59416Y7716*
X59376Y7707*
X59337Y7693*
X59302Y7676*
X59271Y7655*
X59245Y7631*
X59223Y7602*
X59206Y7572*
X59194Y7541*
X59187Y7508*
X59184Y7474*
X59186Y7444*
X59192Y7415*
X59202Y7387*
X59216Y7361*
X59234Y7337*
X59256Y7315*
X59282Y7295*
X59313Y7277*
X59343Y7263*
X59382Y7249*
X59430Y7235*
X59488Y7220*
X59545Y7206*
X59545Y7206*
X59591Y7194*
X59591Y7194*
X59626Y7184*
X59626Y7184*
X59650Y7176*
X59650Y7176*
X59677Y7164*
X59677Y7164*
X59699Y7151*
X59699Y7151*
X59718Y7137*
X59718Y7137*
X59732Y7122*
X59732Y7122*
X59743Y7105*
X59743Y7105*
X59751Y7087*
X59751Y7087*
X59756Y7068*
X59756Y7068*
X59757Y7047*
X59757Y7047*
X59756Y7026*
X59756Y7026*
X59751Y7006*
X59751Y7006*
X59743Y6987*
X59743Y6987*
X59731Y6969*
X59731Y6969*
X59717Y6952*
X59717Y6952*
X59699Y6937*
X59699Y6937*
X59677Y6924*
X59677Y6924*
X59653Y6912*
X59653Y6912*
X59625Y6903*
X59625Y6903*
X59596Y6897*
X59596Y6897*
X59564Y6893*
X59564Y6893*
X59531Y6892*
X59531Y6892*
X59493Y6894*
X59493Y6894*
X59457Y6899*
X59457Y6899*
X59423Y6907*
X59423Y6907*
X59391Y6919*
X59391Y6919*
X59362Y6933*
X59362Y6933*
X59337Y6950*
X59337Y6950*
X59316Y6969*
X59316Y6969*
X59300Y6990*
X59300Y6990*
X59286Y7013*
X59286Y7013*
X59275Y7040*
X59275Y7040*
X59267Y7069*
X59267Y7069*
X59262Y7101*
X59149Y7092*
X59153Y7048*
X59163Y7006*
X59178Y6966*
X59199Y6929*
X59225Y6895*
X59256Y6866*
X59291Y6841*
X59330Y6821*
X59374Y6805*
X59423Y6794*
X59477Y6787*
X59537Y6785*
X59584Y6787*
X14901Y44227D02*
X14901Y44227D01*
X14950Y44234*
X14998Y44245*
X15045Y44261*
X15092Y44281*
X15138Y44305*
X15183Y44334*
X15228Y44367*
X15228Y44703*
X14844Y44703*
X14844Y44597*
X15111Y44597*
X15111Y44597*
X15111Y44427*
X15111Y44427*
X15089Y44410*
X15089Y44410*
X15063Y44394*
X15063Y44394*
X15033Y44378*
X15033Y44378*
X14998Y44363*
X14998Y44363*
X14961Y44349*
X14960Y44349*
X14923Y44340*
X14923Y44340*
X14884Y44334*
X14884Y44334*
X14845Y44333*
X14845Y44333*
X14801Y44335*
X14801Y44335*
X14758Y44342*
X14758Y44342*
X14716Y44355*
X14716Y44355*
X14675Y44372*
X14675Y44372*
X14637Y44395*
X14637Y44395*
X14605Y44423*
X14604Y44423*
X14576Y44456*
X14576Y44456*
X14553Y44494*
X14553Y44494*
X14535Y44537*
X14535Y44538*
X14522Y44586*
X14522Y44586*
X14514Y44639*
X14514Y44639*
X14511Y44698*
X14511Y44698*
X14513Y44746*
X14513Y44746*
X14520Y44793*
X14520Y44793*
X14531Y44838*
X14531Y44838*
X14546Y44881*
X14546Y44881*
X14557Y44905*
X14557Y44905*
X14570Y44928*
X14570Y44928*
X14586Y44950*
X14586Y44950*
X14603Y44971*
X14603Y44971*
X14623Y44990*
X14623Y44990*
X14646Y45008*
X14646Y45008*
X14672Y45023*
X14672Y45023*
X14701Y45037*
X14701Y45037*
X14732Y45048*
X14732Y45048*
X14766Y45056*
X14766Y45056*
X14803Y45061*
X14804Y45061*
X14843Y45062*
X14843Y45062*
X14877Y45061*
X14877Y45061*
X14909Y45056*
X14909Y45056*
X14940Y45049*
X14940Y45049*
X14969Y45038*
X14969Y45038*
X14995Y45025*
X14995Y45025*
X15019Y45010*
X15019Y45010*
X15039Y44993*
X15039Y44993*
X15056Y44975*
X15056Y44975*
X15070Y44953*
X15070Y44953*
X15084Y44927*
X15084Y44927*
X15096Y44898*
X15096Y44898*
X15107Y44866*
X15214Y44895*
X15201Y44938*
X15185Y44978*
X15167Y45013*
X15146Y45043*
X15121Y45070*
X15092Y45094*
X15058Y45115*
X15021Y45132*
X14980Y45146*
X14937Y45156*
X14891Y45162*
X14843Y45164*
X14777Y45161*
X14715Y45150*
X14657Y45133*
X14603Y45108*
X14554Y45077*
X14511Y45038*
X14474Y44991*
X14444Y44938*
X14419Y44879*
X14402Y44818*
X14392Y44755*
X14388Y44690*
X14392Y44625*
X14402Y44563*
X14419Y44504*
X14444Y44448*
X14475Y44397*
X14513Y44352*
X14558Y44314*
X14609Y44282*
X14665Y44257*
X14724Y44239*
X14787Y44229*
X14852Y44225*
X14901Y44227*
X15528Y44644D02*
X15528Y44644D01*
X15528Y44644*
X15668Y44644*
X15668Y44644*
X15689Y44644*
X15689Y44644*
X15708Y44643*
X15708Y44643*
X15723Y44642*
X15723Y44642*
X15735Y44640*
X15735Y44640*
X15749Y44636*
X15749Y44636*
X15762Y44630*
X15762Y44630*
X15776Y44624*
X15776Y44624*
X15790Y44616*
X15790Y44616*
X15804Y44605*
X15804Y44605*
X15819Y44592*
X15819Y44592*
X15834Y44575*
X15834Y44575*
X15851Y44555*
X15851Y44555*
X15869Y44531*
X15869Y44531*
X15890Y44502*
X15890Y44502*
X15913Y44468*
X15913Y44468*
X15938Y44429*
X15938Y44429*
X16058Y44241*
X16208Y44241*
X16050Y44487*
X16026Y44522*
X16002Y44554*
X15977Y44582*
X15951Y44608*
X15937Y44619*
X15920Y44630*
X15901Y44642*
X15878Y44653*
X15878Y44654*
X15939Y44666*
X15992Y44684*
X16036Y44708*
X16071Y44738*
X16099Y44773*
X16118Y44812*
X16130Y44855*
X16134Y44901*
X16132Y44938*
X16125Y44973*
X16113Y45006*
X16096Y45038*
X16076Y45066*
X16052Y45090*
X16025Y45110*
X15995Y45124*
X15960Y45135*
X15918Y45142*
X15868Y45147*
X15811Y45149*
X15408Y45149*
X15408Y44241*
X15528Y44241*
X15528Y44644*
X15528Y44748D02*
X15528Y44748D01*
X15787Y44748*
X15826Y44749*
X15860Y44752*
X15890Y44757*
X15916Y44765*
X15937Y44775*
X15957Y44787*
X15973Y44802*
X15986Y44819*
X15997Y44839*
X16004Y44859*
X16009Y44879*
X16010Y44901*
X16008Y44932*
X15999Y44960*
X15984Y44985*
X15964Y45007*
X15937Y45025*
X15903Y45038*
X15863Y45046*
X15816Y45049*
X15528Y45049*
X15528Y44748*
X17038Y45149D02*
X17038Y45149D01*
X16923Y45149*
X16923Y44435*
X16922Y44435*
X16445Y45149*
X16322Y45149*
X16322Y44241*
X16437Y44241*
X16437Y44955*
X16437Y44955*
X16915Y44241*
X17038Y44241*
X17038Y45149*
X53221Y43667D02*
X53221Y43667D01*
X53270Y43674*
X53318Y43685*
X53365Y43701*
X53412Y43721*
X53458Y43745*
X53503Y43774*
X53548Y43807*
X53548Y44143*
X53164Y44143*
X53164Y44037*
X53431Y44037*
X53431Y44037*
X53431Y43867*
X53431Y43867*
X53409Y43850*
X53409Y43850*
X53383Y43834*
X53383Y43834*
X53353Y43818*
X53353Y43818*
X53318Y43803*
X53318Y43803*
X53281Y43789*
X53280Y43789*
X53243Y43780*
X53243Y43780*
X53204Y43774*
X53204Y43774*
X53165Y43773*
X53165Y43773*
X53121Y43775*
X53121Y43775*
X53078Y43782*
X53078Y43782*
X53036Y43795*
X53036Y43795*
X52995Y43812*
X52995Y43812*
X52957Y43835*
X52957Y43835*
X52925Y43863*
X52924Y43863*
X52896Y43896*
X52896Y43896*
X52873Y43934*
X52873Y43934*
X52855Y43977*
X52855Y43978*
X52842Y44026*
X52842Y44026*
X52834Y44079*
X52834Y44079*
X52831Y44138*
X52831Y44138*
X52833Y44186*
X52833Y44186*
X52840Y44233*
X52840Y44233*
X52851Y44278*
X52851Y44278*
X52866Y44321*
X52866Y44321*
X52877Y44345*
X52877Y44345*
X52890Y44368*
X52890Y44368*
X52906Y44390*
X52906Y44390*
X52923Y44411*
X52923Y44411*
X52943Y44430*
X52943Y44430*
X52966Y44448*
X52966Y44448*
X52992Y44463*
X52992Y44463*
X53021Y44477*
X53021Y44477*
X53052Y44488*
X53052Y44488*
X53086Y44496*
X53086Y44496*
X53123Y44501*
X53124Y44501*
X53163Y44502*
X53163Y44502*
X53197Y44501*
X53197Y44501*
X53229Y44496*
X53229Y44496*
X53260Y44489*
X53260Y44489*
X53289Y44478*
X53289Y44478*
X53315Y44465*
X53315Y44465*
X53339Y44450*
X53339Y44450*
X53359Y44433*
X53359Y44433*
X53376Y44415*
X53376Y44415*
X53390Y44393*
X53390Y44393*
X53404Y44367*
X53404Y44367*
X53416Y44338*
X53416Y44338*
X53427Y44306*
X53534Y44335*
X53521Y44378*
X53505Y44418*
X53487Y44453*
X53466Y44483*
X53441Y44510*
X53412Y44534*
X53378Y44555*
X53341Y44572*
X53300Y44586*
X53257Y44596*
X53211Y44602*
X53163Y44604*
X53097Y44601*
X53035Y44590*
X52977Y44573*
X52923Y44548*
X52874Y44517*
X52831Y44478*
X52794Y44431*
X52764Y44378*
X52739Y44319*
X52722Y44258*
X52712Y44195*
X52708Y44130*
X52712Y44065*
X52722Y44003*
X52739Y43944*
X52764Y43888*
X52795Y43837*
X52833Y43792*
X52878Y43754*
X52929Y43722*
X52985Y43697*
X53044Y43679*
X53107Y43669*
X53172Y43665*
X53221Y43667*
X54440Y44589D02*
X54440Y44589D01*
X54326Y44589*
X54326Y43875*
X54325Y43875*
X53848Y44589*
X53725Y44589*
X53725Y43681*
X53839Y43681*
X53839Y44395*
X53840Y44395*
X54318Y43681*
X54440Y43681*
X54440Y44589*
X55011Y43681D02*
X55011Y43681D01*
X55049Y43684*
X55084Y43689*
X55117Y43696*
X55148Y43705*
X55176Y43715*
X55202Y43727*
X55225Y43742*
X55247Y43758*
X55268Y43777*
X55289Y43799*
X55308Y43824*
X55326Y43852*
X55342Y43883*
X55357Y43918*
X55370Y43956*
X55380Y43998*
X55388Y44042*
X55393Y44089*
X55394Y44140*
X55392Y44199*
X55385Y44254*
X55374Y44307*
X55358Y44355*
X55338Y44401*
X55314Y44441*
X55285Y44478*
X55251Y44511*
X55222Y44532*
X55190Y44550*
X55155Y44565*
X55118Y44576*
X55087Y44581*
X55050Y44585*
X55006Y44588*
X54956Y44589*
X54644Y44589*
X54644Y43681*
X54971Y43681*
X55011Y43681*
X54763Y43787D02*
X54763Y43787D01*
X54957Y43787*
X55000Y43788*
X55038Y43791*
X55070Y43797*
X55098Y43804*
X55123Y43813*
X55144Y43824*
X55164Y43837*
X55180Y43851*
X55200Y43874*
X55218Y43901*
X55234Y43932*
X55247Y43966*
X55257Y44004*
X55265Y44046*
X55269Y44092*
X55271Y44141*
X55268Y44209*
X55259Y44267*
X55244Y44318*
X55224Y44361*
X55199Y44396*
X55172Y44425*
X55142Y44447*
X55110Y44463*
X55082Y44471*
X55047Y44477*
X55004Y44481*
X54954Y44482*
X54763Y44482*
X54763Y43787*
X28714Y8305D02*
X28714Y8305D01*
X28714Y8305*
X29076Y8829*
X28937Y8829*
X28761Y8562*
X28733Y8518*
X28707Y8477*
X28684Y8438*
X28662Y8401*
X28661Y8401*
X28639Y8439*
X28617Y8478*
X28593Y8516*
X28569Y8555*
X28390Y8829*
X28245Y8829*
X28595Y8305*
X28595Y8305*
X28595Y7921*
X28714Y7921*
X28714Y8305*
X29865Y8027D02*
X29865Y8027D01*
X29308Y8027*
X29307Y8027*
X29307Y8337*
X29308Y8337*
X29810Y8337*
X29810Y8443*
X29308Y8443*
X29307Y8443*
X29307Y8722*
X29308Y8722*
X29844Y8722*
X29844Y8829*
X29188Y8829*
X29188Y7921*
X29865Y7921*
X29865Y8027*
X30595Y8027D02*
X30595Y8027D01*
X30147Y8027*
X30147Y8027*
X30147Y8829*
X30028Y8829*
X30028Y7921*
X30595Y7921*
X30595Y8027*
X25621Y9347D02*
X25621Y9347D01*
X25670Y9354*
X25718Y9365*
X25765Y9381*
X25812Y9401*
X25858Y9425*
X25903Y9454*
X25948Y9487*
X25948Y9823*
X25564Y9823*
X25564Y9717*
X25831Y9717*
X25831Y9717*
X25831Y9547*
X25831Y9547*
X25809Y9530*
X25809Y9530*
X25783Y9514*
X25783Y9514*
X25753Y9498*
X25753Y9498*
X25718Y9483*
X25718Y9483*
X25681Y9469*
X25680Y9469*
X25643Y9460*
X25643Y9460*
X25604Y9454*
X25604Y9454*
X25565Y9453*
X25565Y9453*
X25521Y9455*
X25521Y9455*
X25478Y9462*
X25478Y9462*
X25436Y9475*
X25436Y9475*
X25395Y9492*
X25395Y9492*
X25357Y9515*
X25357Y9515*
X25325Y9543*
X25324Y9543*
X25296Y9576*
X25296Y9576*
X25273Y9614*
X25273Y9614*
X25255Y9657*
X25255Y9658*
X25242Y9706*
X25242Y9706*
X25234Y9759*
X25234Y9759*
X25231Y9818*
X25231Y9818*
X25233Y9866*
X25233Y9866*
X25240Y9913*
X25240Y9913*
X25251Y9958*
X25251Y9958*
X25266Y10001*
X25266Y10001*
X25277Y10025*
X25277Y10025*
X25290Y10048*
X25290Y10048*
X25306Y10070*
X25306Y10070*
X25323Y10091*
X25323Y10091*
X25343Y10110*
X25343Y10110*
X25366Y10128*
X25366Y10128*
X25392Y10143*
X25392Y10143*
X25421Y10157*
X25421Y10157*
X25452Y10168*
X25452Y10168*
X25486Y10176*
X25486Y10176*
X25523Y10181*
X25524Y10181*
X25563Y10182*
X25563Y10182*
X25597Y10181*
X25597Y10181*
X25629Y10176*
X25629Y10176*
X25660Y10169*
X25660Y10169*
X25689Y10158*
X25689Y10158*
X25715Y10145*
X25715Y10145*
X25739Y10130*
X25739Y10130*
X25759Y10113*
X25759Y10113*
X25776Y10095*
X25776Y10095*
X25790Y10073*
X25790Y10073*
X25804Y10047*
X25804Y10047*
X25816Y10018*
X25816Y10018*
X25827Y9986*
X25934Y10015*
X25921Y10058*
X25905Y10098*
X25887Y10133*
X25866Y10163*
X25841Y10190*
X25812Y10214*
X25778Y10235*
X25741Y10252*
X25700Y10266*
X25657Y10276*
X25611Y10282*
X25563Y10284*
X25497Y10281*
X25435Y10270*
X25377Y10253*
X25323Y10228*
X25274Y10197*
X25231Y10158*
X25194Y10111*
X25164Y10058*
X25139Y9999*
X25122Y9938*
X25112Y9875*
X25108Y9810*
X25112Y9745*
X25122Y9683*
X25139Y9624*
X25164Y9568*
X25195Y9517*
X25233Y9472*
X25278Y9434*
X25329Y9402*
X25385Y9377*
X25444Y9359*
X25507Y9349*
X25572Y9345*
X25621Y9347*
X26248Y9764D02*
X26248Y9764D01*
X26248Y9764*
X26388Y9764*
X26388Y9764*
X26409Y9764*
X26409Y9764*
X26428Y9763*
X26428Y9763*
X26443Y9762*
X26443Y9762*
X26455Y9760*
X26455Y9760*
X26469Y9756*
X26469Y9756*
X26482Y9750*
X26482Y9750*
X26496Y9744*
X26496Y9744*
X26510Y9736*
X26510Y9736*
X26524Y9725*
X26524Y9725*
X26539Y9712*
X26539Y9712*
X26554Y9695*
X26554Y9695*
X26571Y9675*
X26571Y9675*
X26589Y9651*
X26589Y9651*
X26610Y9622*
X26610Y9622*
X26633Y9588*
X26633Y9588*
X26658Y9549*
X26658Y9549*
X26778Y9361*
X26928Y9361*
X26770Y9607*
X26746Y9642*
X26722Y9674*
X26697Y9702*
X26671Y9728*
X26657Y9739*
X26640Y9750*
X26621Y9762*
X26598Y9773*
X26598Y9774*
X26659Y9786*
X26712Y9804*
X26756Y9828*
X26791Y9858*
X26819Y9893*
X26838Y9932*
X26850Y9975*
X26854Y10021*
X26852Y10058*
X26845Y10093*
X26833Y10126*
X26816Y10158*
X26796Y10186*
X26772Y10210*
X26745Y10230*
X26715Y10244*
X26680Y10255*
X26638Y10262*
X26588Y10267*
X26531Y10269*
X26128Y10269*
X26128Y9361*
X26248Y9361*
X26248Y9764*
X26248Y9868D02*
X26248Y9868D01*
X26507Y9868*
X26546Y9869*
X26580Y9872*
X26610Y9877*
X26636Y9885*
X26657Y9895*
X26677Y9907*
X26693Y9922*
X26706Y9939*
X26717Y9959*
X26724Y9979*
X26729Y9999*
X26730Y10021*
X26728Y10052*
X26719Y10080*
X26704Y10105*
X26684Y10127*
X26657Y10145*
X26623Y10158*
X26583Y10166*
X26536Y10169*
X26248Y10169*
X26248Y9868*
X27758Y10269D02*
X27758Y10269D01*
X27643Y10269*
X27643Y9555*
X27642Y9555*
X27165Y10269*
X27042Y10269*
X27042Y9361*
X27157Y9361*
X27157Y10075*
X27157Y10075*
X27635Y9361*
X27758Y9361*
X27758Y10269*
X8081Y44241D02*
X8081Y44241D01*
X8120Y44244*
X8155Y44249*
X8186Y44256*
X8215Y44264*
X8241Y44274*
X8264Y44287*
X8286Y44301*
X8305Y44317*
X8322Y44337*
X8338Y44359*
X8352Y44385*
X8364Y44413*
X8372Y44442*
X8377Y44472*
X8379Y44504*
X8376Y44542*
X8368Y44577*
X8354Y44611*
X8335Y44641*
X8310Y44668*
X8281Y44691*
X8247Y44709*
X8208Y44723*
X8208Y44724*
X8238Y44741*
X8264Y44761*
X8286Y44783*
X8303Y44807*
X8317Y44833*
X8327Y44860*
X8333Y44888*
X8335Y44917*
X8333Y44947*
X8326Y44978*
X8315Y45007*
X8299Y45036*
X8280Y45063*
X8257Y45086*
X8231Y45105*
X8201Y45121*
X8167Y45133*
X8128Y45142*
X8084Y45147*
X8034Y45149*
X7694Y45149*
X7694Y44241*
X8040Y44241*
X8081Y44241*
X7813Y44767D02*
X7813Y44767D01*
X8010Y44767*
X8047Y44768*
X8079Y44770*
X8104Y44773*
X8125Y44778*
X8146Y44786*
X8165Y44796*
X8181Y44808*
X8194Y44823*
X8204Y44840*
X8211Y44859*
X8216Y44879*
X8217Y44902*
X8216Y44924*
X8212Y44945*
X8205Y44964*
X8195Y44982*
X8183Y44998*
X8169Y45011*
X8152Y45021*
X8133Y45029*
X8110Y45035*
X8079Y45039*
X8040Y45041*
X7995Y45042*
X7813Y45042*
X7813Y44767*
X7813Y44347D02*
X7813Y44347D01*
X8040Y44347*
X8067Y44348*
X8089Y44348*
X8108Y44350*
X8122Y44352*
X8141Y44356*
X8160Y44362*
X8176Y44368*
X8191Y44376*
X8204Y44386*
X8216Y44398*
X8227Y44411*
X8237Y44427*
X8245Y44444*
X8250Y44463*
X8254Y44482*
X8255Y44504*
X8253Y44528*
X8248Y44551*
X8240Y44572*
X8229Y44592*
X8215Y44609*
X8198Y44624*
X8178Y44636*
X8157Y44645*
X8131Y44651*
X8100Y44656*
X8064Y44659*
X8024Y44660*
X7813Y44660*
X7813Y44347*
X8969Y44228D02*
X8969Y44228D01*
X9025Y44238*
X9075Y44253*
X9119Y44275*
X9156Y44303*
X9187Y44333*
X9212Y44368*
X9230Y44406*
X9244Y44450*
X9254Y44501*
X9259Y44559*
X9261Y44624*
X9261Y45149*
X9142Y45149*
X9142Y44624*
X9142Y44624*
X9139Y44546*
X9139Y44546*
X9128Y44481*
X9128Y44481*
X9110Y44430*
X9110Y44430*
X9086Y44393*
X9086Y44393*
X9053Y44366*
X9052Y44366*
X9010Y44348*
X9010Y44348*
X8958Y44336*
X8958Y44336*
X8896Y44333*
X8896Y44333*
X8859Y44334*
X8859Y44334*
X8824Y44340*
X8824Y44340*
X8793Y44350*
X8793Y44350*
X8765Y44363*
X8765Y44363*
X8740Y44380*
X8740Y44380*
X8719Y44400*
X8719Y44400*
X8702Y44423*
X8702Y44423*
X8689Y44450*
X8689Y44450*
X8679Y44482*
X8679Y44482*
X8672Y44522*
X8672Y44522*
X8668Y44569*
X8668Y44569*
X8667Y44624*
X8667Y44624*
X8667Y45149*
X8547Y45149*
X8547Y44624*
X8550Y44555*
X8556Y44495*
X8567Y44442*
X8582Y44396*
X8602Y44357*
X8628Y44323*
X8660Y44293*
X8698Y44269*
X8741Y44250*
X8791Y44236*
X8846Y44228*
X8907Y44225*
X8969Y44228*
X10108Y44347D02*
X10108Y44347D01*
X9528Y44347*
X9527Y44347*
X9583Y44411*
X10093Y45042*
X10093Y45149*
X9443Y45149*
X9443Y45042*
X9950Y45042*
X9950Y45042*
X9927Y45018*
X9904Y44992*
X9880Y44964*
X9856Y44934*
X9390Y44351*
X9390Y44241*
X10108Y44241*
X10108Y44347*
X43061Y7827D02*
X43061Y7827D01*
X43110Y7834*
X43158Y7845*
X43205Y7861*
X43252Y7881*
X43298Y7905*
X43343Y7934*
X43388Y7967*
X43388Y8303*
X43004Y8303*
X43004Y8197*
X43271Y8197*
X43271Y8197*
X43271Y8027*
X43271Y8027*
X43249Y8010*
X43249Y8010*
X43223Y7994*
X43223Y7994*
X43193Y7978*
X43193Y7978*
X43158Y7963*
X43158Y7963*
X43121Y7949*
X43120Y7949*
X43083Y7940*
X43083Y7940*
X43044Y7934*
X43044Y7934*
X43005Y7933*
X43005Y7933*
X42961Y7935*
X42961Y7935*
X42918Y7942*
X42918Y7942*
X42876Y7955*
X42876Y7955*
X42835Y7972*
X42835Y7972*
X42797Y7995*
X42797Y7995*
X42765Y8023*
X42764Y8023*
X42736Y8056*
X42736Y8056*
X42713Y8094*
X42713Y8094*
X42695Y8137*
X42695Y8138*
X42682Y8186*
X42682Y8186*
X42674Y8239*
X42674Y8239*
X42671Y8298*
X42671Y8298*
X42673Y8346*
X42673Y8346*
X42680Y8393*
X42680Y8393*
X42691Y8438*
X42691Y8438*
X42706Y8481*
X42706Y8481*
X42717Y8505*
X42717Y8505*
X42730Y8528*
X42730Y8528*
X42746Y8550*
X42746Y8550*
X42763Y8571*
X42763Y8571*
X42783Y8590*
X42783Y8590*
X42806Y8608*
X42806Y8608*
X42832Y8623*
X42832Y8623*
X42861Y8637*
X42861Y8637*
X42892Y8648*
X42892Y8648*
X42926Y8656*
X42926Y8656*
X42963Y8661*
X42964Y8661*
X43003Y8662*
X43003Y8662*
X43037Y8661*
X43037Y8661*
X43069Y8656*
X43069Y8656*
X43100Y8649*
X43100Y8649*
X43129Y8638*
X43129Y8638*
X43155Y8625*
X43155Y8625*
X43179Y8610*
X43179Y8610*
X43199Y8593*
X43199Y8593*
X43216Y8575*
X43216Y8575*
X43230Y8553*
X43230Y8553*
X43244Y8527*
X43244Y8527*
X43256Y8498*
X43256Y8498*
X43267Y8466*
X43374Y8495*
X43361Y8538*
X43345Y8578*
X43327Y8613*
X43306Y8643*
X43281Y8670*
X43252Y8694*
X43218Y8715*
X43181Y8732*
X43140Y8746*
X43097Y8756*
X43051Y8762*
X43003Y8764*
X42937Y8761*
X42875Y8750*
X42817Y8733*
X42763Y8708*
X42714Y8677*
X42671Y8638*
X42634Y8591*
X42604Y8538*
X42579Y8479*
X42562Y8418*
X42552Y8355*
X42548Y8290*
X42552Y8225*
X42562Y8163*
X42579Y8104*
X42604Y8048*
X42635Y7997*
X42673Y7952*
X42718Y7914*
X42769Y7882*
X42825Y7857*
X42884Y7839*
X42947Y7829*
X43012Y7825*
X43061Y7827*
X44280Y8749D02*
X44280Y8749D01*
X44166Y8749*
X44166Y8035*
X44165Y8035*
X43688Y8749*
X43565Y8749*
X43565Y7841*
X43679Y7841*
X43679Y8555*
X43680Y8555*
X44158Y7841*
X44280Y7841*
X44280Y8749*
X44851Y7841D02*
X44851Y7841D01*
X44889Y7844*
X44924Y7849*
X44957Y7856*
X44988Y7865*
X45016Y7875*
X45042Y7887*
X45065Y7902*
X45087Y7918*
X45108Y7937*
X45129Y7959*
X45148Y7984*
X45166Y8012*
X45182Y8043*
X45197Y8078*
X45210Y8116*
X45220Y8158*
X45228Y8202*
X45233Y8249*
X45234Y8300*
X45232Y8359*
X45225Y8414*
X45214Y8467*
X45198Y8515*
X45178Y8561*
X45154Y8601*
X45125Y8638*
X45091Y8671*
X45062Y8692*
X45030Y8710*
X44995Y8725*
X44958Y8736*
X44927Y8741*
X44890Y8745*
X44846Y8748*
X44796Y8749*
X44484Y8749*
X44484Y7841*
X44811Y7841*
X44851Y7841*
X44603Y7947D02*
X44603Y7947D01*
X44797Y7947*
X44840Y7948*
X44878Y7951*
X44910Y7957*
X44938Y7964*
X44963Y7973*
X44984Y7984*
X45004Y7997*
X45020Y8011*
X45040Y8034*
X45058Y8061*
X45074Y8092*
X45087Y8126*
X45097Y8164*
X45105Y8206*
X45109Y8252*
X45111Y8301*
X45108Y8369*
X45099Y8427*
X45084Y8478*
X45064Y8521*
X45039Y8556*
X45012Y8585*
X44982Y8607*
X44950Y8623*
X44922Y8631*
X44887Y8637*
X44844Y8641*
X44794Y8642*
X44603Y8642*
X44603Y7947*
X28220Y44324D02*
X28220Y44324D01*
X28220Y44324*
X28360Y44324*
X28360Y44324*
X28381Y44324*
X28381Y44324*
X28400Y44323*
X28400Y44323*
X28415Y44322*
X28415Y44322*
X28427Y44320*
X28427Y44320*
X28441Y44316*
X28441Y44316*
X28455Y44310*
X28455Y44310*
X28468Y44304*
X28468Y44304*
X28482Y44296*
X28482Y44296*
X28496Y44285*
X28496Y44285*
X28511Y44272*
X28511Y44272*
X28526Y44255*
X28526Y44255*
X28543Y44235*
X28543Y44235*
X28561Y44211*
X28561Y44211*
X28582Y44182*
X28582Y44182*
X28605Y44148*
X28605Y44148*
X28630Y44109*
X28630Y44109*
X28750Y43921*
X28900Y43921*
X28742Y44167*
X28719Y44202*
X28694Y44234*
X28669Y44262*
X28643Y44288*
X28629Y44299*
X28612Y44310*
X28593Y44322*
X28570Y44333*
X28570Y44334*
X28632Y44346*
X28684Y44364*
X28728Y44388*
X28764Y44418*
X28791Y44453*
X28810Y44492*
X28822Y44535*
X28826Y44581*
X28824Y44618*
X28817Y44653*
X28805Y44686*
X28788Y44718*
X28768Y44746*
X28744Y44770*
X28717Y44790*
X28688Y44804*
X28652Y44815*
X28610Y44822*
X28560Y44827*
X28503Y44829*
X28100Y44829*
X28100Y43921*
X28220Y43921*
X28220Y44324*
X28220Y44428D02*
X28220Y44428D01*
X28479Y44428*
X28518Y44429*
X28552Y44432*
X28582Y44437*
X28608Y44445*
X28630Y44455*
X28649Y44467*
X28665Y44482*
X28678Y44499*
X28689Y44519*
X28697Y44539*
X28701Y44559*
X28703Y44581*
X28700Y44612*
X28691Y44640*
X28676Y44665*
X28656Y44687*
X28629Y44705*
X28595Y44718*
X28555Y44726*
X28508Y44729*
X28220Y44729*
X28220Y44428*
X29696Y44027D02*
X29696Y44027D01*
X29138Y44027*
X29137Y44027*
X29137Y44337*
X29138Y44337*
X29640Y44337*
X29640Y44443*
X29138Y44443*
X29137Y44443*
X29137Y44722*
X29138Y44722*
X29674Y44722*
X29674Y44829*
X29018Y44829*
X29018Y43921*
X29696Y43921*
X29696Y44027*
X30230Y43921D02*
X30230Y43921D01*
X30268Y43924*
X30303Y43929*
X30336Y43936*
X30367Y43945*
X30395Y43955*
X30421Y43967*
X30445Y43982*
X30467Y43998*
X30488Y44017*
X30508Y44039*
X30527Y44064*
X30545Y44092*
X30562Y44123*
X30576Y44158*
X30589Y44196*
X30600Y44238*
X30607Y44282*
X30612Y44329*
X30613Y44380*
X30611Y44439*
X30604Y44494*
X30593Y44547*
X30578Y44595*
X30558Y44641*
X30533Y44681*
X30504Y44718*
X30470Y44751*
X30441Y44772*
X30409Y44790*
X30375Y44805*
X30337Y44816*
X30306Y44821*
X30269Y44825*
X30225Y44828*
X30175Y44829*
X29863Y44829*
X29863Y43921*
X30190Y43921*
X30230Y43921*
X29983Y44027D02*
X29983Y44027D01*
X30177Y44027*
X30219Y44028*
X30257Y44031*
X30290Y44037*
X30318Y44044*
X30342Y44053*
X30364Y44064*
X30383Y44077*
X30399Y44091*
X30419Y44114*
X30437Y44141*
X30453Y44172*
X30466Y44206*
X30476Y44244*
X30484Y44286*
X30488Y44332*
X30490Y44381*
X30487Y44449*
X30478Y44507*
X30463Y44558*
X30443Y44601*
X30418Y44636*
X30391Y44665*
X30361Y44687*
X30329Y44703*
X30301Y44711*
X30266Y44717*
X30223Y44721*
X30174Y44722*
X29983Y44722*
X29983Y44027*
X33753Y9232D02*
X33753Y9232D01*
X33682Y9232*
X33665Y9203*
X33665Y9203*
X33642Y9173*
X33642Y9173*
X33615Y9142*
X33615Y9142*
X33582Y9111*
X33582Y9111*
X33546Y9081*
X33546Y9081*
X33506Y9053*
X33506Y9053*
X33464Y9027*
X33464Y9027*
X33419Y9004*
X33419Y8897*
X33445Y8908*
X33473Y8921*
X33504Y8937*
X33536Y8955*
X33567Y8974*
X33595Y8993*
X33619Y9012*
X33641Y9032*
X33642Y9032*
X33642Y8321*
X33753Y8321*
X33753Y9232*
X34625Y8427D02*
X34625Y8427D01*
X34179Y8427*
X34179Y8427*
X34189Y8443*
X34189Y8443*
X34200Y8458*
X34200Y8458*
X34213Y8473*
X34213Y8473*
X34227Y8488*
X34227Y8488*
X34245Y8507*
X34245Y8507*
X34273Y8532*
X34273Y8532*
X34310Y8564*
X34310Y8564*
X34356Y8603*
X34411Y8651*
X34459Y8693*
X34497Y8731*
X34528Y8762*
X34552Y8791*
X34572Y8819*
X34589Y8847*
X34602Y8873*
X34611Y8900*
X34618Y8926*
X34623Y8953*
X34624Y8980*
X34619Y9032*
X34605Y9079*
X34581Y9122*
X34548Y9160*
X34506Y9192*
X34458Y9214*
X34403Y9228*
X34341Y9232*
X34280Y9228*
X34225Y9216*
X34177Y9195*
X34135Y9165*
X34101Y9128*
X34074Y9083*
X34056Y9030*
X34046Y8970*
X34160Y8959*
X34163Y8999*
X34163Y8999*
X34173Y9035*
X34173Y9035*
X34188Y9066*
X34188Y9066*
X34209Y9092*
X34209Y9092*
X34235Y9114*
X34236Y9114*
X34266Y9129*
X34266Y9129*
X34300Y9138*
X34300Y9138*
X34339Y9141*
X34339Y9141*
X34375Y9138*
X34375Y9138*
X34408Y9130*
X34408Y9129*
X34437Y9115*
X34437Y9115*
X34463Y9095*
X34463Y9095*
X34483Y9071*
X34483Y9071*
X34498Y9044*
X34498Y9044*
X34507Y9015*
X34507Y9015*
X34510Y8983*
X34510Y8983*
X34507Y8951*
X34507Y8951*
X34497Y8918*
X34497Y8918*
X34481Y8883*
X34481Y8883*
X34458Y8848*
X34458Y8848*
X34426Y8810*
X34426Y8810*
X34382Y8765*
X34382Y8765*
X34326Y8713*
X34326Y8713*
X34258Y8656*
X34258Y8656*
X34213Y8618*
X34173Y8582*
X34140Y8549*
X34112Y8518*
X34088Y8488*
X34068Y8458*
X34051Y8428*
X34038Y8397*
X34032Y8379*
X34028Y8359*
X34026Y8340*
X34025Y8321*
X34625Y8321*
X34625Y8427*
X35529Y9229D02*
X35529Y9229D01*
X35407Y9229*
X35162Y8568*
X35148Y8531*
X35136Y8494*
X35124Y8457*
X35113Y8419*
X35112Y8419*
X35102Y8455*
X35090Y8492*
X35078Y8529*
X35064Y8568*
X34828Y9229*
X34699Y9229*
X35051Y8321*
X35174Y8321*
X35529Y9229*
X46976Y31912D02*
X46976Y31912D01*
X47040Y31933*
X47096Y31967*
X47143Y32015*
X47175Y32062*
X47197Y32113*
X47210Y32169*
X47215Y32228*
X47210Y32290*
X47195Y32346*
X47169Y32396*
X47133Y32440*
X47090Y32476*
X47042Y32502*
X46990Y32517*
X46933Y32522*
X46888Y32519*
X46845Y32508*
X46803Y32490*
X46761Y32465*
X46760Y32465*
X46809Y32710*
X46810Y32711*
X47172Y32711*
X47172Y32816*
X46721Y32816*
X46633Y32350*
X46737Y32337*
X46751Y32355*
X46751Y32355*
X46766Y32372*
X46766Y32372*
X46785Y32387*
X46785Y32387*
X46805Y32400*
X46805Y32400*
X46828Y32411*
X46828Y32411*
X46851Y32419*
X46852Y32419*
X46877Y32423*
X46877Y32423*
X46903Y32425*
X46903Y32425*
X46944Y32421*
X46944Y32421*
X46982Y32411*
X46982Y32411*
X47015Y32394*
X47015Y32394*
X47044Y32369*
X47044Y32369*
X47067Y32339*
X47067Y32339*
X47084Y32304*
X47084Y32304*
X47094Y32264*
X47094Y32264*
X47098Y32218*
X47098Y32218*
X47094Y32170*
X47094Y32170*
X47084Y32128*
X47084Y32128*
X47066Y32090*
X47066Y32090*
X47042Y32057*
X47042Y32057*
X47012Y32030*
X47012Y32030*
X46979Y32011*
X46979Y32011*
X46944Y32000*
X46944Y32000*
X46905Y31996*
X46905Y31996*
X46872Y31998*
X46872Y31998*
X46843Y32007*
X46842Y32007*
X46815Y32020*
X46815Y32020*
X46790Y32039*
X46790Y32039*
X46768Y32063*
X46768Y32063*
X46751Y32093*
X46751Y32093*
X46738Y32128*
X46738Y32128*
X46730Y32168*
X46613Y32158*
X46623Y32104*
X46641Y32055*
X46668Y32012*
X46703Y31974*
X46745Y31944*
X46792Y31922*
X46846Y31909*
X46905Y31905*
X46976Y31912*
X48103Y32829D02*
X48103Y32829D01*
X47981Y32829*
X47736Y32168*
X47722Y32131*
X47709Y32094*
X47698Y32057*
X47687Y32019*
X47686Y32019*
X47675Y32055*
X47664Y32092*
X47652Y32129*
X47638Y32168*
X47402Y32829*
X47273Y32829*
X47624Y31921*
X47747Y31921*
X48103Y32829*
X53221Y38707D02*
X53221Y38707D01*
X53270Y38714*
X53318Y38725*
X53365Y38741*
X53412Y38761*
X53458Y38785*
X53503Y38814*
X53548Y38847*
X53548Y39183*
X53164Y39183*
X53164Y39077*
X53431Y39077*
X53431Y39077*
X53431Y38907*
X53431Y38907*
X53409Y38890*
X53409Y38890*
X53383Y38874*
X53383Y38874*
X53353Y38858*
X53353Y38858*
X53318Y38843*
X53318Y38843*
X53281Y38829*
X53280Y38829*
X53243Y38820*
X53243Y38820*
X53204Y38814*
X53204Y38814*
X53165Y38813*
X53165Y38813*
X53121Y38815*
X53121Y38815*
X53078Y38822*
X53078Y38822*
X53036Y38835*
X53036Y38835*
X52995Y38852*
X52995Y38852*
X52957Y38875*
X52957Y38875*
X52925Y38903*
X52924Y38903*
X52896Y38936*
X52896Y38936*
X52873Y38974*
X52873Y38974*
X52855Y39017*
X52855Y39018*
X52842Y39066*
X52842Y39066*
X52834Y39119*
X52834Y39119*
X52831Y39178*
X52831Y39178*
X52833Y39226*
X52833Y39226*
X52840Y39273*
X52840Y39273*
X52851Y39318*
X52851Y39318*
X52866Y39361*
X52866Y39361*
X52877Y39385*
X52877Y39385*
X52890Y39408*
X52890Y39408*
X52906Y39430*
X52906Y39430*
X52923Y39451*
X52923Y39451*
X52943Y39470*
X52943Y39470*
X52966Y39488*
X52966Y39488*
X52992Y39503*
X52992Y39503*
X53021Y39517*
X53021Y39517*
X53052Y39528*
X53052Y39528*
X53086Y39536*
X53086Y39536*
X53123Y39541*
X53124Y39541*
X53163Y39542*
X53163Y39542*
X53197Y39541*
X53197Y39541*
X53229Y39536*
X53229Y39536*
X53260Y39529*
X53260Y39529*
X53289Y39518*
X53289Y39518*
X53315Y39505*
X53315Y39505*
X53339Y39490*
X53339Y39490*
X53359Y39473*
X53359Y39473*
X53376Y39455*
X53376Y39455*
X53390Y39433*
X53390Y39433*
X53404Y39407*
X53404Y39407*
X53416Y39378*
X53416Y39378*
X53427Y39346*
X53534Y39375*
X53521Y39418*
X53505Y39458*
X53487Y39493*
X53466Y39523*
X53441Y39550*
X53412Y39574*
X53378Y39595*
X53341Y39612*
X53300Y39626*
X53257Y39636*
X53211Y39642*
X53163Y39644*
X53097Y39641*
X53035Y39630*
X52977Y39613*
X52923Y39588*
X52874Y39557*
X52831Y39518*
X52794Y39471*
X52764Y39418*
X52739Y39359*
X52722Y39298*
X52712Y39235*
X52708Y39170*
X52712Y39105*
X52722Y39043*
X52739Y38984*
X52764Y38928*
X52795Y38877*
X52833Y38832*
X52878Y38794*
X52929Y38762*
X52985Y38737*
X53044Y38719*
X53107Y38709*
X53172Y38705*
X53221Y38707*
X54440Y39629D02*
X54440Y39629D01*
X54326Y39629*
X54326Y38915*
X54325Y38915*
X53848Y39629*
X53725Y39629*
X53725Y38721*
X53839Y38721*
X53839Y39435*
X53840Y39435*
X54318Y38721*
X54440Y38721*
X54440Y39629*
X55011Y38721D02*
X55011Y38721D01*
X55049Y38724*
X55084Y38729*
X55117Y38736*
X55148Y38745*
X55176Y38755*
X55202Y38767*
X55225Y38782*
X55247Y38798*
X55268Y38817*
X55289Y38839*
X55308Y38864*
X55326Y38892*
X55342Y38923*
X55357Y38958*
X55370Y38996*
X55380Y39038*
X55388Y39082*
X55393Y39129*
X55394Y39180*
X55392Y39239*
X55385Y39294*
X55374Y39347*
X55358Y39395*
X55338Y39441*
X55314Y39481*
X55285Y39518*
X55251Y39551*
X55222Y39572*
X55190Y39590*
X55155Y39605*
X55118Y39616*
X55087Y39621*
X55050Y39625*
X55006Y39628*
X54956Y39629*
X54644Y39629*
X54644Y38721*
X54971Y38721*
X55011Y38721*
X54763Y38827D02*
X54763Y38827D01*
X54957Y38827*
X55000Y38828*
X55038Y38831*
X55070Y38837*
X55098Y38844*
X55123Y38853*
X55144Y38864*
X55164Y38877*
X55180Y38891*
X55200Y38914*
X55218Y38941*
X55234Y38972*
X55247Y39006*
X55257Y39044*
X55265Y39086*
X55269Y39132*
X55271Y39181*
X55268Y39249*
X55259Y39307*
X55244Y39358*
X55224Y39401*
X55199Y39436*
X55172Y39465*
X55142Y39487*
X55110Y39503*
X55082Y39511*
X55047Y39517*
X55004Y39521*
X54954Y39522*
X54763Y39522*
X54763Y38827*
X30860Y9684D02*
X30860Y9684D01*
X30860Y9684*
X31000Y9684*
X31000Y9684*
X31021Y9684*
X31021Y9684*
X31040Y9683*
X31040Y9683*
X31055Y9682*
X31055Y9682*
X31067Y9680*
X31067Y9680*
X31081Y9676*
X31081Y9676*
X31095Y9670*
X31095Y9670*
X31108Y9664*
X31108Y9664*
X31122Y9656*
X31122Y9656*
X31136Y9645*
X31136Y9645*
X31151Y9632*
X31151Y9632*
X31166Y9615*
X31166Y9615*
X31183Y9595*
X31183Y9595*
X31201Y9571*
X31201Y9571*
X31222Y9542*
X31222Y9542*
X31245Y9508*
X31245Y9508*
X31270Y9469*
X31270Y9469*
X31390Y9281*
X31540Y9281*
X31382Y9527*
X31359Y9562*
X31334Y9594*
X31309Y9622*
X31283Y9648*
X31269Y9659*
X31252Y9670*
X31233Y9682*
X31210Y9693*
X31210Y9694*
X31272Y9706*
X31324Y9724*
X31368Y9748*
X31404Y9778*
X31431Y9813*
X31450Y9852*
X31462Y9895*
X31466Y9941*
X31464Y9978*
X31457Y10013*
X31445Y10046*
X31428Y10078*
X31408Y10106*
X31384Y10130*
X31357Y10150*
X31328Y10164*
X31292Y10175*
X31250Y10182*
X31200Y10187*
X31143Y10189*
X30740Y10189*
X30740Y9281*
X30860Y9281*
X30860Y9684*
X30860Y9788D02*
X30860Y9788D01*
X31119Y9788*
X31158Y9789*
X31192Y9792*
X31222Y9797*
X31248Y9805*
X31270Y9815*
X31289Y9827*
X31305Y9842*
X31318Y9859*
X31329Y9879*
X31337Y9899*
X31341Y9919*
X31343Y9941*
X31340Y9972*
X31331Y10000*
X31316Y10025*
X31296Y10047*
X31269Y10065*
X31235Y10078*
X31195Y10086*
X31148Y10089*
X30860Y10089*
X30860Y9788*
X32336Y9387D02*
X32336Y9387D01*
X31778Y9387*
X31777Y9387*
X31777Y9697*
X31778Y9697*
X32280Y9697*
X32280Y9803*
X31778Y9803*
X31777Y9803*
X31777Y10082*
X31778Y10082*
X32314Y10082*
X32314Y10189*
X31658Y10189*
X31658Y9281*
X32336Y9281*
X32336Y9387*
X32870Y9281D02*
X32870Y9281D01*
X32908Y9284*
X32943Y9289*
X32976Y9296*
X33007Y9305*
X33035Y9315*
X33061Y9327*
X33085Y9342*
X33107Y9358*
X33128Y9377*
X33148Y9399*
X33167Y9424*
X33185Y9452*
X33202Y9483*
X33216Y9518*
X33229Y9556*
X33240Y9598*
X33247Y9642*
X33252Y9689*
X33253Y9740*
X33251Y9799*
X33244Y9854*
X33233Y9907*
X33218Y9955*
X33198Y10001*
X33173Y10041*
X33144Y10078*
X33110Y10111*
X33081Y10132*
X33049Y10150*
X33015Y10165*
X32977Y10176*
X32946Y10181*
X32909Y10185*
X32865Y10188*
X32815Y10189*
X32503Y10189*
X32503Y9281*
X32830Y9281*
X32870Y9281*
X32623Y9387D02*
X32623Y9387D01*
X32817Y9387*
X32859Y9388*
X32897Y9391*
X32930Y9397*
X32958Y9404*
X32982Y9413*
X33004Y9424*
X33023Y9437*
X33039Y9451*
X33059Y9474*
X33077Y9501*
X33093Y9532*
X33106Y9566*
X33116Y9604*
X33124Y9646*
X33128Y9692*
X33130Y9741*
X33127Y9809*
X33118Y9867*
X33103Y9918*
X33083Y9961*
X33058Y9996*
X33031Y10025*
X33001Y10047*
X32969Y10063*
X32941Y10071*
X32906Y10077*
X32863Y10081*
X32814Y10082*
X32623Y10082*
X32623Y9387*
M02*